<mxfile host="app.diagrams.net" modified="2022-09-20T19:10:47.347Z" agent="5.0 (Macintosh; Intel Mac OS X 10_15_7) AppleWebKit/537.36 (KHTML, like Gecko) Chrome/105.0.0.0 Safari/537.36" etag="t6wG6gOBXbbLOMjnccZZ" version="20.2.7" type="github">
  <diagram id="1N5PxikieF3C7qSUWYcA" name="Page-1">
    <mxGraphModel dx="1678" dy="2112" grid="1" gridSize="10" guides="1" tooltips="1" connect="1" arrows="1" fold="1" page="1" pageScale="1" pageWidth="850" pageHeight="1100" math="0" shadow="0">
      <root>
        <mxCell id="0" />
        <mxCell id="1" parent="0" />
        <mxCell id="OBkcXNZdzhIq3iiDm8Ts-53" value="" style="rounded=1;whiteSpace=wrap;html=1;align=left;verticalAlign=bottom;fontFamily=Manrope;fontSource=https%3A%2F%2Ffonts.googleapis.com%2Fcss%3Ffamily%3DManrope;" parent="1" vertex="1">
          <mxGeometry x="500.13" y="-380" width="200" height="180" as="geometry" />
        </mxCell>
        <mxCell id="OBkcXNZdzhIq3iiDm8Ts-55" value="&lt;span style=&quot;color: rgba(0, 0, 0, 0); font-size: 0px;&quot;&gt;%3CmxGraphModel%3E%3Croot%3E%3CmxCell%20id%3D%220%22%2F%3E%3CmxCell%20id%3D%221%22%20parent%3D%220%22%2F%3E%3CmxCell%20id%3D%222%22%20value%3D%22%22%20style%3D%22shape%3Dimage%3BverticalLabelPosition%3Dbottom%3BlabelBackgroundColor%3D%23ffffff%3BverticalAlign%3Dtop%3Baspect%3Dfixed%3BimageAspect%3D0%3Bimage%3Ddata%3Aimage%2Fpng%2CiVBORw0KGgoAAAANSUhEUgAAAtIAAACrCAYAAABL2HuKAAAACXBIWXMAAC4jAAAuIwF4pT92AAAAGXRFWHRTb2Z0d2FyZQB3d3cuaW5rc2NhcGUub3Jnm%2B48GgAAIABJREFUeJzsnXl4m9WV%2F7%2FnSt6y2ZJtQsK%2Blq1sCZAUCJIDoaFQ2tIAHZYWSklZYscpHWba30zVmU5bBhpbSghNNzqlpZC0dKEFCsRWwpqwQ9mXpiyBEEtynM229N7z%2B0N24iReZOt9z5Wc%2B3mePE9iy%2Fd75Eh6z3vvOd9DsFgsFsPsO31hxdZyXzuAUilNBm5NtTZcL6UnSTAUvQqEn8qo8aeTrfP%2FJqOVpSrUdLwi9ZykZi%2FE6shEfN5rJrSLgkhEBVcGHgQw04D648nWhlOlRQN10X8jxg%2Bk9IjwXKKl4UQpPcvgKNMBWCwWy5Yx%2FqkQTKIBgIDLg7NjEyQ1xSBME1JiJ126RkhrO6R806U1e9GkP2tKuxgIrgxEYCaJBoieMKLLYu%2B3Xj0zz9PSLzaRtlgs5tHCF6Is47mL%2F8WArgAk8%2FskvLbx0WtTIlp9kU5c%2BkDAeaa0C52aUFMIwLeMBaDxpAlZAk4RFjTyPC39YxNpi8ViHII2khgR06gr7cjusvORImKGdsYIbCyRBjB9fOiWGoP6BcnEWbftpUndCcBnMAzxBLPyzKaDAewtqakyNpEuJGwibbFYCgCS3dHZDh8dCEVPM6PtEV2YBqnPdmLxC%2Fr4mYurARwmrdsHX6kqmW1Qv%2FCIRFS6u%2FvXACYZjGJdMl7%2FvrSocpT0TV1iw6r6t4Q1LYNgE2mLxWKUqrrFBwDYx5S%2BIlxjStsTBMseWMvXpPq1ngaApHX7wky2vKMP1auC3wLhLLNR0GNGZJlE6%2FWJ8ARALKlpGRybSFssFqOQdow1jgEAA1%2Fca2bzRJMxuAqLlclsStVOelVIazsk9%2FwGgWdjdqzMdBSFQGBm7HRm%2Fo7pOAD50xEAIBJ%2BPRqqA7cMjE2kLRaLUUiZaxzrodTR%2BKrhGFyCCUQnC4mtxvILHSGtHZDsDuAAjAt26xmmgzDNhLMXBknzrwH4TccCpcVPR%2FadvrACoGNFRZWyjh0Fhk2kLRaLWQw6MOwIgeZizjKTTVKuUBOOHg6gWkhO%2FoIeiSgAJ4nr9gPrPb28g8nX7b8dwP6mIwHQPcGpEvcVN2DbqbmMnxbUs%2BSATaQtFos5ZsfKCDjedBgA9g8kPjrHdBD5wqzEdmvZgENCoKX6aAAF4f1NwPmmYzBJILzoBgIXiqf2c2vjV3SKq8rbdv49eX99h7CmZQhsIm2xWIwR7OIpDBRErSlpXfRNhyxXr8kZTssPYvHpQijr6GX%2FwIxFnzQdhAmq62InE%2Fh7puPYDrMZG0Zm4dejmedpGRybSFssFnNo6QvRIBB9unZG1KStmgsIDWIB3tgUv6FNSKsvxsuA%2BqLUnjflsCrUVMXMd0F4EukQmGnAI9lBLMTKNhoWIDaRtlgs5lBiiV8ukOPjr5kOYqRMnHXzWABHC8mZuqAXzo0XAKY9bcohk4L6BYCDTEfSF%2FbL2zD22HZOltQkkm%2BotAyNTaQtFos5CqDRcGfoygNDt5ebjmIkZDLlp0DIPYENjCiuCjVVAThcWncITqoN3So61c4kwVCsHoTPm45jFz5MPdzwrrSoAdvO9rbWhjeENS05YBNpi8VihJqzFk0GsK%2FpOHahehNtvNB0ECOCHblBLCy%2FA6ig5CY25o5yyCn6JtVcqAlHpxDhJtNx7I6h%2Bmhp205mO4ilQCm0DyWLxbKHoB3nVNMx9AeDirPpkMXKZLa0c%2FJlIa0dUAHV0%2FdhTyjvqA3dOk4DvymUxuCdIPmbOgAAC5cZmXqeliGxibTFYjGDXOI3XKbVhKNTTAcxXJggNIiFVyMeycho9aUwXy%2FEPGvyeUvHmI7DSzRllgL4hOk4%2BoNNTPrL2nYeJ6qpzExutAyNTaQtFosZuCAm1PWLJnzddAzDobIudggAkTHnDBPOAUwokEEs%2FTBm2%2BbOkOkgvCJQF%2F06A%2F9iOo4BSFeML39WWtSAbadmqhC3m7Tkhk2kLRaLPHMipSA%2BwXQYA8K4ZMLZC4Omw8gVpQX9lQ00GgbDTUcBCEjr5ori0VneEQhFjyHGQtNxDAjj%2BXX3zt0qritv2%2FlK6uG5G4U1LTliE2mLxSJOdVvVCQAK2R2jwp%2F2X246iJwhsbIHTqcNHKWzKsiyjl6Y8NmeXfNRw8RZN48lhWUAKkzHMhAm3GMAyNt2mnqelpywibTFYhGHSW6U9UhhxnXFkhyR0KASBr29%2BZH6DRJaO0GFWwbUw%2BSauubCPWEZAd3psiVgHGk6jkEx12go7NhhGw0LGZtIWywWeQrOP3p3CHxodThWZzqOodh3%2BsIKAMfKqJkaUVyYjYZ90VCjZsphsC56BYEL%2FkRGZ0i%2BzGjGj%2FaDtG2nsjvShYxNpC0WiwEK08psVxgoeCu8zRXqJAAlMmryzgHB2bEJABf2zigAZhoVddI1MxcfDkbUdBxDwx9vXDXvH%2BKyfp%2F0TV178vTka8KalmFgE2mLxSJKzelNkwDsbzqOHDk%2FGIoV2tCYnSBBG0F2lPyOdBcKcRDLbhD4hEJ%2FrQzFgaHby7V2lgEYbzqWoWBSjxsSFk6kaTUiES2raRkOBf%2FhZLFYRhfs9xXFbnQPfii%2BynQQg0FyZTJb21XyJSGtHRRBGVAPxMBnTAeRDx3UsRjS%2FsgjxYR%2FNCBv20nWP7rQsYm0xWIRhbk4yjq2w7gaU5YKlU6MAMIpMjJ4yswgluJ5vRBx0ZZ3BMPRCwF81XQcucJKy5%2BOzI6Vidt2sqm%2BBEuu2ETaYrHIQkWzw9jLpOD4rvNNB9EfVXWLDwAwWUSMYeCCzgRITWzMHwLOrA3dOs50HMOlNrTwUAA%2FNR3HMMiU%2BdPPSIsGt0HatpOddKkdxFLg2ETaYrHIkd3ZPdF0GMOGdEE2HZJ2RvUglurQ4k8AKJrBOAyUacrMNB3HsJgdK8uQ%2F24AE0yHkisMenH9g9%2FcIi6shDcBCK9tfPTalKimZdjYRNpisYhRXbXteABjTMcxfKguGF54tOkodoUEL%2ByK%2FaultHphJTix0SUYxTXlsLqTFxK4yG5uDZU7iPtHmzgFsgwXm0hbLBY5xDve3URdbTqC3ZC7sL%2BzIX7dR0JaOyieRsM%2B8HmIRIri2hoMN1%2FAwLWm4xg2bKoBT7he3zYaFgVF8Wa3WCyjg6JrNNwJ%2BvLEWTePNR3FdmbHygg4XkKKYMghgVCErxfaq3pl1UmmoxiKwJnR%2FQH6iek4RoJW8jaMNWctmgxh207WdqJhMWATaYvFIkgx70ijMp0uvcR0EL0Eu3gKA2UiYgbqo2tOvWk8GEdJ67qBpgIfzjJlaQll6C4UUf15H9o2tsx7R1pUZwT7EbJsStVOelVY0zICbCJtsVhEmDjrtr0AHGQ6jjwpnGNwwbIH0vI7gFxafjIAn7SuGxBQ0OPCgxM6bwIV5%2BkQMZ7IWnYLI1%2BWthrLL3SENS0jwG86AIul2Jk46%2BaxnVvHlpK%2Fq5L9u9%2Bcso%2FbaUs5b3z0mnYjF4ACIdPd%2BSlQ0d%2B7Hxec2TQ9uaKxAI5caRog8nLa1labeFFCaCeIpoOL9O3C%2BGTljEUHGRlhPQSBcPQcAPNNxzFiyFADnrxtZwF8xhQe26%2B3pXoCq%2FT2G%2B1yVb65W6uu1MNzN0rHZBNpi2UIakO37s2%2BzJGa%2BVBiOpQZh4EwCcDeAPZKpzHGV5IGoID%2B9g8cACVpBMMxANF2ACkASSJ8CI33mbCOCGsBet3Rzhvt8cZ2sScniaJpMnmft7BW16AwLnIyF3bG01ge6RbR6ivLXMxlQPD7nc8AWGw6jr5kR5jz%2FwEg07GMFFIG6vWnLC0BOkWdTdhUX4JBKk9bEvD7M1OY%2BGAm7A%2FG%2FgQcgGxt%2BkQAFek04CtJZ%2FcQnB0bM2mnGwSgOhztYmADwB8B6h8Av8ZErxLhheSKea96sZllE2mLpQ%2BVpy0JqJLMp4j4JNI4kQlTHGQmQwMAZfPA%2FC5BVT1%2FDmLesVZ2442hSCEYjq4H0zsgvZZBa8H0TyK9lhx%2Bl5zu99seu3FTXhGYoqgdO3aggAsnzrrthvUPXvOxqRhqzlo0WWf0fiJiRpwDmICYyMRGr2Cm81BIiXQo4gfpuwCqMR1KHjjk%2BJ%2BSFq2u2nY8a5K07eQMp0f3IJY5kdKqRNU0BToZTFMZmEJIH9qb5Y403e3pG9kXoH0BnppdiwEGqsOxDZpijynoFUrrBzbEF7zlxlOxibRlj6Yq1FRFyjebWJ8BqNOA9JEAFLhnppoZJoJ4IkDTCej5RCGwj8C%2BcgTD0S0A1jNIE1jkGIscfVliVePIG19CET8DU1wMyRgMlHV3p68AcJOpGHSaPyW1p0hQ4ol07YzYoQ5QzAkfAIQDZy6tNHHU3B%2FVCPw3A6eajiNPXtoQv26zuKr8JsAbm%2BI3tAlres74mYurSzhTx0znURvOQ3ZTCQCLfJwxUEvMn2PQ5xzyIRiOvgPgYRA%2F7NMl94%2F0tWUTacseR3DGj%2FYjX8nnGfxZADPAXJLdGi6auoOxAA4muXg7E2N9eXXJ16jKYzWj6EYnDwQRX4M5y24x1gykIFcmQxnxQSzax9OLuPqglxLKdJ0F4HemAwmGop9mwr%2BajiNfiM2UO2RtO0Vfj6OmrKMq1FRFRP9CrC6Fdk4BSBXQO%2FtgAFeD6WqHMluC4egyMP0kGa8f1u%2FfJtKWPYPZsbJgl%2F4sgS5nxqcZbF%2F7ufM07q%2FvymcBh2ma4IdnGkCJxxoHBNo%2BPDsF3OexTv8wS5U9vJtoWfCBkFYfRkcZEBPOg%2BFEeq%2BZzRMzGrdjNLh0kaGJhsKvR%2BZi949mqqqLnk5MVxHwRQAVRdBnPxbAFSC%2BIhiOvkiMn2h%2F%2Ba9zOVEq%2FjeWxTIIVXWLDwiGmpuCnfwhmJYx41zYG8hhkv%2FFSxFJWW1tA7BIQkgRrpHQ2Y0pS0sgVSZDeFxEZxcYxTiIZXcIfC5CEXOfN5GIymj6DbKN0UUPKb%2F4Tq0J20424NvuClOWllSHYl8JhmOvKqaVBFwGoMJ0WCPgWCYsJqfzH4Fw9F%2F3nb5w0OdgE2nLqCQwY9EnA%2BHorxQ7b4JoPoCA6ZiKFQI9lu8aWq7G8Cn2IQog47UQM86pnLFI3Be7umrb8ZC6OGn5C3rP9MhjpHU9IhhAwNjuenBl1XcAzDSl7zKJthXXvSktmunu%2FJSw5JZ2Tr4srJkfcyKlwbrmrwUndL7OxLcD%2BITpkFwiQMBNW8t9bwTDsSsxZ1m%2FvvY2kbaMKirPbDo4GI7%2Bjnz6hZ67Ya%2BP%2BEc9PpWfa8P40C01BD7ErXgGg4AnUw83vAvGvQJyyq%2F01QI6O6OV2G4tGXDs6EqXTcUoOjVS2fIOcarrFtUB9G2PZRIer9%2BX1UZ8%2BJV0mRGvRjzi%2BUaAK0QiKhiOXRlsC7wJpp%2Bg%2BAduDcS%2BAP880PbRwz2j4nfCJtKWUcHEWTePDdZFIz5HvQzgAoyCTqWCgPDmxyvmr89nCb8qnQ6p%2F4%2BeI1HlkynvYMJVB4ZuL5fQ2q4JLXJhJ6ArUa6el9Dqiw8svQPoKWxgyuHEWbftxazvgLeTIdME%2FMjD9XeCyEzdMLNYWVpWz4BLzkioCUenBFcGHgf458j6PI96CBzijH4%2BULdodt%2Bv20TaUvQEQ9FPp9Olb4DxHQCiSc1ox5WmF8lR1j61GgDaVjS0ApCYxlezEZsuENDpg8wOGQPP5NtkOhI0INVImUb%2FI5Tc5oja0MJDBXSyRCIqne6%2BA8BuO2duQqAbNEhu59RAmVFPfbusbSfrgm40rDxtSSAYbo5qYDXk3qsFQ9ZCT%2F%2B1uq75h4hEFDCKjs%2FwLNcijfkAzgJQbTocywAwukH4b5xCd%2Ba71IGh28s3qY0RZnwT9qbQEwicd300mKcL7UevbXto3rodsrSEiH%2FstSiRvgbAb7zWAbI7jel0t8zxqaEdQJKa2Ag82%2FN5dLrXQg6p8wA0ea0DANXxwL8zYZbHMssSrfWxYCh6j9B7W3MFxAeU9Nh2jhWU5LSjxO0mcyUQjp5D6L4doL1Mx2IYYqYbq1cFjnZCTZeNjkR6De%2BHNB5BdpSkpZDJfugG812mOrToiA7qWA6m0dKUVJCwo%2FJLpuYs81Hbhye5FM7g7NLpXjG%2B7I7OzZ3fhwuvtyGET62pazqxraXxWW91ehqfSOie0cAOYGVd7BAwTxQRY34ChHcB8jyR7ply6HkiHQzFpjHxdzyWeQPl9DUAAAntSBJeTt5f3yGi1QfWSmoTIKsHenvzI%2FUb5BRzZE6kNNgW%2BCGA%2BQDZsskemHGuInV38e%2FiPcrjexqLbBJdHDyCf%2BK2fBYIhBedyqQfwejp7C9UOlJ1iby6x6vaPjoGEBrEskvit%2B7euVsB%2FFJEmkmo6VBJHqWKJ9JKy5UBAXhSM%2F8BApOYiDBj%2FMzFnp6UVp62JADiu%2BBtg%2FUWwPlC8v76jqq6xQfA4%2FKR7TDMlDso0dcj3LAadZvKGYsOCrYFVgJohO092pX1Clxf3In0MvahBL8BcJzpUCw50Y4MLsOFNOK6xOpQ7CsE3YLiHx9cDDyOSETnswARG3WYcIiWAMjrOeSofkngzKWV3suI%2BSuvS8br3xfS2oHg64X99ER7vHEtgBcE5Hx%2B1h6WWzCpkvTt8HhDicDXJlsXvAwApB25JjxTvsos7Wcu75IzGMFw89k%2Bn34BcuVWxUQbFNW1tc5%2FvbgT6QPQDJixFrKMAMY1OJX%2BOdIfD4RiN%2FZ4VJa6GJVlQPKvkSWhRsOBHCY2ttS%2FDeB%2BgRDGKd15uacKc5b5WKzxKX%2Fv8BGpyl2w16Uebni3R%2FUPEoLE2rNrVbAu9g0CzvdqfQBg4NZE6%2Fxf9f6bBHdrSedZYjYCxoduqeHsCGkx8i6lc5HqUPTLAN0LYLzpWAqQDsVqdnJF%2FStAMTdoreZGANebDsOSI4yfYhrdNdIfr66LziPiH7oZkmVwXGk0FJpQN7jDBMtY4QHXAOzZ0WfV%2Bo%2BOhVSZjIGdsZ7pYccKyW1PWNiRSaQBOqdnKqWrVM9sPgmM%2F3F73V1Ykyqnb%2Bz0FTk3nvZEKPGGkNZ2RG07s2xtV8mXBPUGJLtphdth5zD0x1ZNfF5bfN7TvV8ozkR6NX8GwM2mw7DkzFvYhgUj%2FeFgOHo1M6JuBuQy3QC2mg7CZRzq7syrS37C2QuDAA5zKZ6hGDDxS7Y2PAjgNc8jYBxZE2o%2Bw6vlyafljpmVvAXX5gp1EqQu3H1KBVKr5r0EQCJRq6yp6jzNzQWrQk1VrOlueHtKl3QcdfFON6qzY2UEHO%2BhZl%2BezLfEbEQI2nYCAAFPmR%2FEwhQMN%2F%2B4Z9PK1kPvAgFdIPp8e8v8VX2%2FXnyJ9BN8IoC74a3RvMU9uqBwIcK0eSQ%2FHAw3XwDgNph%2FU28CsAKMW5jpUnbUscqv9ikfVz422dpQlmxtGJusSZWVlJROVOAjAFwExi0ErASwzXDsI%2BGltsdu3JTPAr5u3zSIDWIZbAeVmAhLJMLQpK7xbnWxCWvdE5yq54S0tkNyY%2BTBvMsROuPPErpau1uKqIh%2BDm%2BnyWkmdenGVfP%2B0feLwS6ewkCZh7o7YFP10XL1%2Blk9Qw2VfQjWLboZoLmm4yhQHCa%2BLNlS%2F%2BCu3ygu%2B7vVXA3gL4Cor6MlHwiNOIlGdFEOzowdBc23w9wN3ysE%2FIUUHmhrL38Uz8xND%2Fro5ZHu9cDHyP55HcAyIOt3vZE66gi4EsDnIHETyHiIfXwDaUwC0WRo7A%2BifQDeB1k7uJKeP72lApXY%2Bffckm8IxDxdzCkp4wx6saWuzl9yafn3AEzwOJIvVNct3CfRsuADtxcmwjTv%2FSUAAM%2BtjV%2FRKaLUF6LpYJEnmB7bmX421fcrCn8A4wYB7fOBkZ%2FO9aW6LjqPGV9wY60BIfx3qmXe7j0Gkru1yoCfuaRtZy%2BmGip7CISj3wfzN4Z%2B5B4JA3R1sqVheX%2FfLK5E2odaOHgXMjt8FZCbkrdrEjMaeAOMb%2BEU%2Bv1Ifjg4OzYBnXwPzDQ6rIDim5Ir5j%2FkxmI9Scl9AO4LhKLHKMJiBjwrAQAAEM4iTQuSrQ1f8VRn0BjEdhjXJVd9473BHtD22I2bAuHoHQRc53Esfmb%2FVwH8l5uLjp%2B5uBrakZmOx2YsuIj5ZBEhxvPvP7Fgp2tIckbqyeDKwIcAJnmsfnD1jKYjE6saX81nkcDM5mNZ4ya3ghqAFcnqSf%2Fd%2F7domoBrIACw0%2B1%2FSkKoL1UbPvgkSAn1I2RR7Dc2iKU6FP02A%2F9uSr%2FAYSa6LtVS%2F4uBHlBcifRUeg3WhmXkLGMfJnm%2BIwdUQGMqbcxrjU7%2BBYBPuBNQzqwmxfMSK%2BZ79sGdijf8HZFIXTBe9V0Q%2FT%2BvdHr4crAuujLZ0nC7xzq7E4korITUIJbHc3mY30HU8eFaeF5uwnMxZekPhjzBGAZ%2BJzMdJDYIQXxnrCrUdCCkPImpnxuFSEQj3PxniWNt7VPnARhxIl0bunWcozPLkN3s8Qh6rzuDL2H5hQNZlQpdh%2BmVjY9emxr6cS6rKiV1%2BtPLOxvi130kqthDdSj2FSb%2BngntEbINQAZCm2wMujHVUj%2Fo7IviSqQt%2BZH1bxb%2FUBougXDsMwBfICjJYHw3WTvpe4NcONwjEtFJ4D%2BC4WgKwI881WI0V9ctfNCLUoPBCLRUHw2f9t5XGQB0bg4TG1Y1vBkMRR8G4SyPI5pcXdl5bgJwzQ2CIDRBDll%2FZSmtXkj5pMo6wDzg8%2FsDAM8Tacpatv7vSH9eU%2BbH8HaTIc2gL21%2BZF6%2FE%2FZqzlo0WWf0fh7q98GMr7KUbed2PQM3rwBQHW4%2BBeAfm9AeBAfASyA8zcAzStNbRPq98k797k4nSXOW%2BSZ0vF9JDlX5tO9QYj2VmaaCMA1unSwxfy8VbxjS2MIm0pbCYk6klBLcJLUbQEAXgy9JxuePqAQlH5KtDQuDddHpYHzRQ5kJmn03Aqj3UGM3yO9M89AJbieYfDlfhFjRImL2OpEGa1wDFxNpEEk1Pn24w19ZDmI9TaovlaH7fb0kOypaghM6UwACHocwfXzolppN8RvahvuDwXD0agYu8SKoXoh4QbJl3oDWlzrNnxJr%2FTbVaChk27kdA%2FXRNac3TdKgeyDVNDoI2esw%2FsLMf8wg80BO743lFzodQBLZP%2B8A6GkCZKquW3SSZv4cAV%2FASG86CdFk6%2Fz%2FyOWho60u11LkBNoC88EylmkEdGnQBclW%2BSS6F631N5G1z%2FMMAr42cdZte3mpsRsslvilx3amn831wakZyb8i%2B6HrLYQza8LN7uwaRiIKECqTMTWiWO71sr5nmuHuPDM3TTLDe3yl5D9nuD8UCEWPAdDkQTx9oLsTLfMXD%2FoQybHZ5MgPYsmOcpey7QRgYODM7FiZ9qt7IFVONTD%2FBFFjN6f3TbY2fDEVn%2F%2Frkdxg7gxxoqV%2BTaq14VvJ1oYjlEIdgN8jWw6SK79IttQ35vpgm0hbCoaaU28aT8C35RT56lRr%2FV%2Fl9HanPd64lr2%2FeJd3Z7q97e7fFRK72D63a%2BPYoEQiGoRB691cgrRL9baBluqj4b3bSBaSL%2Bs4MHR7OQjHiYjx4PX0zDLDWZhoWDZ4E2fdPJYUlgEY41FIAPAGynH1kI9iLfXe7kie0ZFXU%2BZI8GstZ9uZZVtbbeJFQT0Eu%2FgmGO03o%2FfA%2BFqyo%2FywZEt9c%2F7J88C0rWhoTbY2fFGzPoyA2wgYYHDXdpYlayZdDVDO5%2BI2kbYUDFxSfjmkEgZwrO%2B4W5ModrEEYADI2%2FKRnagKNVWBpRpFh19DqbX%2BGYAtHgSzK1dMnHVz3ladkoNYWMsfMW%2BkzVPg7UCR7fAQR%2Bg%2B%2BB6AhCsU49OYHcv5SD2dLr0VjCM9jGgL4HwheX99x6CPmrK0BKATPYyjL0YGsZDcjUIWxtNYHvH0VLIvNTOjYTDmSentQpqA%2Fy0p6ToyGW%2F4mZsN2UPRHm9cm2htuJaZDiXGvQM87K%2FJjvJLh9srZRNpS4HAxIRrRaQIb5aPqygYq5%2BMVquGflR%2BEHBazwhmz1FQ0yD02cKkhp34tccb2wG604t4dqEq3V1ysQvrSF3Y0xXjy3Muk3ELIsmJjYPvuG%2BIX7eZGA8LRDIu2JWbBWZ1KPYVAF%2F2MhgiXJNsXfDykLFUbTsenrqF9MVMo6GgbWePntzzDM6OTdAapmYzvK5Zn5xobbhx%2FYPflNjI6JdkvP79RLzhs0S4HMB2dzFmtI7pdOaMJLm3ibSlIKgOx%2BoAHCUixvzv6%2B6dWzAjvTeuun4thle%2FNWwYKOssIxnnB8EaSp2hEV6EMlFIGOESXZ%2F%2FGkK%2FT8bzRt4Xcg4J6YoxZc8M9SBW3p8QAQDnMOWwdkb0MCaOeRoH0%2BJES8MdOT1YK7nTkWE0EbuGaD9CFsLwNwNGTCc3AThATK8HAn7jY%2F%2FU9njj89LaA5FoabiDfTiWQXEAq33pzvOHVSbYB5tIWwoC7fGOSx%2F%2BnmxtuEdIK0eIkR1B7imalMyRLEt1vPPHu44uzpVk64KXCfD8JADA8dV1sREPGpEskxmq7MFDhBJpfiGXG4U0%2Bf4Mj29sAYCIP4tBrG0ODN1e7viwDN765a5JVeQ%2B0ZEhVvbATklafEBJTz%2BCjG1nL5QReZ7BcPPZyE7XFYb%2FK9Faf9mG%2BHWb5bUHJ%2FVww7upM5Izfew%2Fs%2B2xG0d8DbaJtMU8kYgi8NkSUgT66XCaCATxfuw9s4D3KxOEdnSYVE6DWAb8efAit2IZXEdfM9KfVUSnQOpz2kCjYeDM6P4A9pHQYs5t52%2FTiusTDHrU63gA7B%2BYGf3kQN%2FsoE0xAMd7qJ%2FUrC%2FC%2FfVDNV%2F1Qazs4fWOvy1ICmltR7IfoYd%2Finj8z1nmA%2BgWz3V2hplwTbJ1%2FncK9JqbJRLR%2BSb5NpG2GKdmZeAEgCTs2Zxu7paojR0WgTOXVkKg2YqIar3WCM5cdCS89%2BHNkmdjXLJm8h8B%2FNOlaAaG6aIeS63hI%2BcfnUeZzMghR9JKLXdrP%2BWmB%2FhgOk7%2F7h3BcPRCgL%2FmobQY%2FsJlAAAgAElEQVQG45IBrQD7ocdC8yDvQtoJMzaM0k4WJPM8g4l1VwI4RkKrl%2BxEwIZCG%2FbiCTaRthiHiWYLCa3x0mZnpJDuPFpChz32qwYAOIIOE%2FmWIiy%2F0CHwT1wKZzAqSti5YkQ%2FyVI7gCMvk8kTuXp6X%2F%2BDWPqDGfdAoIaeafc66drQwkMB%2FNRbYfxXMt7wwHB%2BJNPd%2BSmvwukHQ42Gwom0gEvOxFk3jwVTxGudnWBuTrXWDzkRcLRgE2mLeZjPFJFR3CKhM1wYOFZIx%2FtGMiV29JspYd%2BQjWND0c2ZnwDodCGeQSHG13samYYBE8Ajrq8enlJ%2BZTJ5IFdP%2F3BjzoN4kvH69wHO%2B%2FWVAyfVhm7de%2Fu%2FZsfKMuS%2FG97agK5I1k763rB%2FSu69DXaEB5RA2rYzCw3hIuMG6XTZNyA6eIUfS6L9m3J65rGJtMU4UokkQEPaO5mAmEISOgr0huciQhPqGPSiG80rPScUd7sQ0qAwcEhwZdWwRpNXz2g%2BAkVSJjMiZsfKCDhBQoox%2FISFZMo7lIP0Z3r%2FEdiGWwjsYVMwvZfm9MXD9ckFIHg6gk2piRNfEdLajqRtJ5CdrJsowwteatScetN4gBd4qbELCbC6GPGI5826hYR%2F0O%2Bu4TPAuAjAQeAhHmvZcyB0gXAHTqa8E5Ca05smaaFkQQFvS%2BgMi0hE0UquE%2BnEIPq7l8sHZ8cmoJO9HBqxHeWix6x2KKp87LlrDIOuAfC3nB%2Fv802XcOgDAFZafAcw2O2cyFA5DyXJCx7Bzp%2FDf4CP%2FseDaHaiZ8rhzwN1sfOI%2BToPpdIM%2BtKIytvmLPNx24dTPIipP9aMKNHPF4VpQm83AAADzwyv0XP46NKyqyDqQkL%2Fmj3N2bMYODlezT8E48bt%2F5YcmGkpfBjHwYWdPKfUdyhpmU%2BvDJAQERoG1SsDYQY8bwIEsK1iW9rbZKlbnwKQkMOEezuo7avqnwuGYk%2BA2NPddALOrQo1HTiMBi%2BxMpkyf1qijGFntGCpwAheL4lVja8Gw9HXABzhQUjbIWBWdWjREcz6l%2FDwSkuMxmR83mMj%2Bdmq9R8dCx%2FGuR1Tv3DuTaHu6kqVGfXgtUvOnGU%2BtH2Yv4997jyabJ13O1AvKFkY9H%2FRe5KvBvok0RbLrjDiLq1T5co6OVCqfcamKQ0EA5cJST0yUrP5nBEc1qAy7pYiMPFiN9cbAB8pdVXOjyYWSTQZ9KKZSWNKZkAQkCkr6Xp6JD9IjD%2B6HUw%2FVDA5KwEEPVMg3JWIN9w64h%2F3yzXhMSDuHy1p27kdj8upghs%2B%2BjyAg73U6ANrh%2BoL2ubOQ3ZPpJ%2Fi2SCM%2BA1n2WPIbRLWUGhPm2p2oltrodG2udHTZHSRkFzOJQUjhsWGNSQ2rKp%2Fy80FUx3lywF47ueqGFdjdmzIcoaaU28aDxaa9AlDO4CAiAtEXjcKikRs8Dy2%2F3wDZTQ3rxXY29OavkoZZMTr9UVtO3fg7fMkbvR0%2FZ3gP7Svqn9OTq%2Bw2DmRfoqPgcZvMVTttGXPhrAO72KFG0spsNhrzV%2Fi1Ehp5YJD6X8HUC6k5nEizQQiEYcJIjzh%2Bs7HM3PTIPzM1TX7gYHawDb%2B%2FJCPKy0%2FGYDP63iyYu7Vm%2BdKzVmLJgMSA4KAfG4UEi3zngLoPTejEWYL4HwheX99Rz6LkJwt3JtGLEoFbTuz0Hte1hJXhxYdAaEbVQDMCt8V0ipIdiTSj%2FJkaNwH6fGYluKD8WtcSK40gzCx2NhQ1mrAKWLSBGYs%2BiSyzWcSPJlsXeCpY0l1aPEnAIxs6Mhw8ehIVKX1Ugh4bRNh6P93yUEsSt5qTKdZzpM4rxsFYgb%2F2b1gZCHCNfm%2B98fPXFwNxqFuxTQYDPmhQABErf168PR5Mjlf8nL9XViRWjH%2FRUG9giObSD%2FNY1CCPwIQ2iGwFDUOfu3aWgp57ZQMDz5HTmtgakO3jiOfvgNAiYQeMwnU%2F8rU8wJwtdGwL22PNH4I8O%2B9WHsXZmRvpAaGWez32baxZV7O%2FsquoQQHseR5oyA15dBtmGlxoqUh7xI8v5OZDim7AY%2Fe20MiZNvZR9Dj50kXe7t%2BX3iPmF44GArMCg7uhHShvaU4ITyLT9FLrq2n9TrX1hqa8yvPbJJqvuifKUtLNDJ3AjhOSPGjVG1yudciTGL10ZrL6SnPVle8yLO1%2B8r49NcH%2Fi4TAJFGPGIPymRyQa6ePu8bhQSnVgIouImoQ7AmVYEbXFlJchCLduRtGGfHJgAytp3b8dBusroudjKAw71afxc%2BSnZUFO2JjVsorMHNAM43HYilSNBodnO5ZE3HmwCkzNv9yvE1CWntzuxYWWBC5%2FL%2BxgJ7yBIsj3g%2FGhxiOzp%2Fz7feczCSKxqfAMO7RL0HBi7PXsB3p3ZG7FAAMvX8BPlGwylLSwDycOjIDly5UYhHMgy6z6WQJEhq1he55VFMLHZ6sKUdGz31uu%2BXbn0KhAexTHCqPGvMY63FyjoY%2BD2emZuW0itU%2FADOQNb1f9ejmy0QqBfMkQ4A8gbt%2FZMyHUAPGoyNYmqE9QB%2Bh2nkrh3U8kg3wtG34LFXay8E%2Fmww3NyYbJ0vmlAHZ%2FxoP3Ty7wCINOT18KGP%2FZ4%2Fz5pTbxqvgaO91unB86NfAi1h8O0ey4zjTn0pgCW7fkP7eLrYSbqSP0qvruw6gRkyDjou3Sgodv7ApC53Yy2P0WBcMgyv8sGJRBRWypxWM2ONkYl4WokNPgIABp5bG7%2Bi0zMBRZ%2BRejo%2B1r%2BTUSps%2FDiFppoOwrKnww8CJJJIZ6FbquuimURLg8AxPlMwFPsqCDcDcp7ZAEDgf3NjjPZQiDpMCNRQJirw22An3%2BSxJRkIdB3At%2B2%2BY0pS%2FsoOOX7Pd993hTVPlxrw5daNQkUX%2F21rObYAGOvGep7B%2BK9kvOEBt5YLtFQfDZ%2BWsSg1Vh%2Btp4EEJ8556JITODO6Pxwc5tX6fSFgQ1vtPo9IaBU6YscZFsuAUP6jxoeJYkYsUBf7Q1Wo6UAvBPadvrAiGI5eHayLvQzCTyGcRAO4L9E6%2F1ciSnJHv6CM9v5ie399F4N%2B7rkOcFRg5qLTdvsqiU1Ye0niRms35BoNXbtReP%2BJBdvAeNCNtTxkRbJ20vfcXJB8crZwPs8b8PpDzrazD549T3LoTK%2FW3hUGtRgZ5V6A2ETaYpxkS%2F0TBLwtrUvMn1OkXg%2BGoz8LhmLTepq8Rkw2eW4%2BOxhqbtpW7vsngKVgyDaxZPlIZXTuE%2FTyRS4xak%2FUbXxdQkiRcysAz2v%2FSOudrPAmn7d0DDNEbBqJTe0Air1eXL1RIFXI7h30XprTF3uQ2IjdJCslP9FQ1LazB%2FZ7NxqcwDO9WntXmDgupVXo2MErlgKAGBT9LhgyO6g7UwrgqyD%2BajAc%2BwiIrSTC35n1q4B%2BzcdlCVW6ddP2yWhzIqUTOiaMK%2BtCUKuS%2FbXmw4j4cADHbQVOBVAOkqy42420Bl2cfKTxQxk5JnBMqhThSUQiWkIo0bLgg2A4%2BmcAF3irRBfsNbN54scr5q8HgK2bu05SUp%2FLJD%2FRcK%2BZzRMzGgdKaBHcbaR0tL5XkepG9jOjkEgz6EueDDIhTJP4MCPg7d73gCyCtp1Z1qUebnjXm6WZGLGwN2vvjo%2B5VUqr0LGJtKUgSFRPujPY9tGNAEs1rfXH3gBfxIyLss1ePjiUgZMuRTAcZQAZtGW9nx0CwFq0tC4HmMBXtbc2rJQSrJ0RO9QBakXEhHdQNWiRAnucSKPUcegqAP8DAEQ8XeoujJRffEfaYZIbxOJyqUB7vLE9GI6uAiB2fJ4LxGhMxuc95va6VaGmKjA%2B4fa6%2FWLCPQYAk9jo8148e56VZzYfBEdN8mr9XUi1tTa8AcwXkitsbGmHpTBYfqED4qshZ4U3XAhCA1RGCIPRKFYX3UPWYUIIkq2hbG%2BtXwnA84ldTDQXc5ZlmzXlyh4SbSuue1NIaweC9fTKcf8IncEFVt5BdyfiDbd6sbKCmgapHMGjaaU5ILsj7WFDpV8rqdkEYMbzRvznCxSbSFsKhmRLw%2BPEiJiOowjRIJ6bjDdE5aXFhjWwky5dI6TVF0%2BSlJ3h%2FWra1n0GAEhoEAuAJ01cCJnFGikTG1bVv%2BX2oj6%2F748wWrm1E6%2BjHFd7trrg9Eky4NhRc%2BpN4yFn2wkAYA9vGFjjWK%2FW3hUCvyClVQzYRNpSUCRCqR8wuexVPbpJM9GlyZb5PzWiTmIX21c3PnqtuId7%2BbjyXwNIeq2jQddUzlh0EIC9vdYCACKS3wGcsrQEhCkSUkTeTGxse2jeOgAmbuh2ZTMUfcHL4URgsZvkbW0d5Z6f%2FOyKqG1nlnTF%2BPJnPVudZJqUe5AfnFPA2ETaUlhEIjpVnbwIzPebDqUISEDxZ1It9b81IT5x1s1jpRwmIDCIpT%2FW3Tt3K4i8Hs4CAGf7lJYb%2BMHyjYY1EzqPBTBGRMzLnT8m4%2BUdRLg2uaL%2BFe8UmACWsoV7ysh0PMEyox6959fdO3erd8uTWGkHEa2V0ioGbCJtKTyWR7pVie8qAPIet8XD85r11OSK%2BQ%2BZCqArXTYVcg3L4tZYvTjKWQLAa7cQAuHfPNboRXM5yQ9ikWzsUsqzGwW%2F5nu8WjsXGFiUaGm4w0uN6hnNRwAIeKnRCxlwjwEAlvNrz%2BLh8zwwdHs5gQ%2F2av3dYPWBmFYRYBNpS8FRU9d0os7oRwGMMx1LgXJ7%2BbjyU10bAzxCfGAxBwZ2vEuMhmLjw43vEOOvAlLlAhoA4WVPSwIGQq5UQHMZP%2B3V4htWNbwJwMPd4EFZk6pJ3eC1CPt8ckmmNjSIRa4foUdRefY8U%2F72yRDM5xTU%2B1JaxYC1v7MUFNXh5ss101JIJRXFxQcMmptqrZdI6oZEg6aRTN%2FVptTEiaYSFwAAK1oM5vNMxuAabMhqDGI7gH%2F3%2FEaB%2BR4QHeWpxu4kNeuLsDzSLaAl566CUvFEuse2s0ZSU2e860tQGTUZclas2shE1ALG7khbCoZgOPafDPolbBK9Kwzg5%2BwrP7pQkmgAILDUjs5q06Noky3zHgLwmskYXMOAQ8LEWbftBUDo6Nn7UgGlxG3wNBiXiJ1CkdigkrUb4td9JKS1HVHbTgAAf7xx1bx%2FeLU6ESZ7tXY%2FeFbnXazYRNpinjnLfMFw9OcAfxcQvK8uDlYo4KRka8NVqYfnbjQdTC%2BVZzYdDGCiiBibOPrdFWIiFrDC8x7S8mUyTrpLzkqNvTtC76WtpfFZAJ4lRrtD303GGx6QUKo59abxYAjttpupjxa07QQAMKnHvVyfQCJuPz10CWoVBba0Yzis4b3BuBzAwaA9IOHTWA8%2FYphK7o%2Be7SUU8Qfb1v0KoC95plGEEOE5DfXtVMu8gnQvURnfdCkbYi9rC4cDdXX9H5eWfw9ApelY8qA9EUq8gbisKDNNl%2FrEJNIyyRnhz2A0CCitSNbs%2FT8COgAALqk4BWARWziCmfe2YJlRFo8Hzmjw3oIJiYzzThFhE%2BlceZLDYNwDoApA4VjyewkBcHAwgEs9WX%2FK0pIgdf0G4DmerF98OAD%2FSTEvamttjJsOZgjEBrFkuNuYY0df2h67cVMgHP0VAfNMx5IHTyIS8dqBZDc0idXTJ6VGF2umPyiwx4k0vZfm7otFS5sUpold35TQTU8fJs66eWw6jWMkNdnj50nMFSCxVLoCU5aWGLEsLFBsaUcuPM5BEO5GbxK9Z%2BFRXSNTYELnz20SDQBYC%2BbvafIdkmydf0FbvOCTaJCUlRnhrU3xG7w7ERkmfgeL4L0VnnewAT%2FuOct8BJ4qpCY2sbG9Zu9HCdjgoUQaxBdLv%2F6ZxeqjOxPBdvEJeU63%2FyTIbiJmyvzpZ7wUYCLJwTKoCXbXSuoVOjaRzgUfbgKwp75wPvZi0WA49iMCLnNxyW4CfgOg3cU1vaQNhJ9p4jOSrfUHJ%2BPz%2F6O95fp%2Fmg4qF%2FadvrACkBlHy0zGbO%2F6I2t9Rsa8u%2FNGyf8%2Bq9Z%2FdCzkrCzlbhSWX%2BgwcK9XyzN4frKlwdPa2n5UBW3h%2BBkhB5KdVUmJlnUw6MX1D35zi5caSnZCI6D1J0T1ChybSA%2FFU3wygCtNh2EQ1zuqg%2BHoAgCNLi6ZJtYXJVobLh3T6Uxm4BIi%2FAXANhc13OBFBn7AUKclaybtnWxp%2BFp7y%2FxVUjtobrFljH8qgBIRMQMOE0PBrBebjmGEsNPtFx%2FEQn45KzUSvvFi9si9g3BXqnX%2BEk%2FWHoTaGbFDIWULZ%2BgmWQs3Gko0VLJQTft2PUeqGbU4sDXSg9HKfmgsxZ58w0FY7%2BZywbrop8D4oZtrgvmmRLzxjwDw%2FhMLtgG4E8Cdk89bOmbblq6ZxPrMni7tEyCUABLQxcDzAB4n1qu6HN9jmx%2Bp9%2FIYWA4tZx3FmcJLpFPxhr8Gw7E3ABxuOpbhQa9sfPTalLis3Chmrf1lojcKlah8eBNtvMnNNTUrx699P3BzzZy1%2FYL10SAjvQ%2BCtp1ZCsJ1yF2YEAYwKlyM3MAm0oMxBo0AjjcdhmFcS6THz1xcDa3vAtjFZJbeKx9f3u9FZ929c7cie%2FR6L5AtSegsKznaIX04AUcwcCAx9gZhEgETefjlO90EvMfAWgBrCXgbrF9VWr28YeKkd0x7H3sFMaYJOTBsaVfJl0SUhgUxEF0K4EemIxkeZi7oRDxdJDkjvCxtEbk2fkUnIDba3XtYzs2CVEZ8R7qyLnYImGVsO3vQHo6r74WhEkLNvL2cjdmxMtxfb63wYBPpgVnD%2B4Hxn6bDKABcK%2B0oZaeZgf3cWg8AGPqHPQnzkPTsVj%2Fd82d3piwtqa7cspfWvoCPUMZMAQ1dTlDl1Ft7TXqTYp1wKvwfGxmzXAiQTA0lg55CPJKR0BoumvUvFKn%2FAjDWdCw5Y6DRMHvz7BwqIsbeTY7bYyCxHel3Ey0LPhBR6oPSYpsAvbRtbJn3DlDvqQgxfyz8vMYFtvHnU8BdoqoFik2kB0KjGSTWIFO4OHDlwy4Yik1j5kvcWKsPyYpxFb907az6mbnpBPAB4M5zHo1UhZoOBGSmaKkCPhJtjze2B8PNvwZorulYcoYc8R1Av5OZDhLy5SJTwz1GBz22cJ8UkjP13hatjybGExI9MKzoY2LZVhsi%2FBvAdxdbj48X7Lm1v0NBONF0CMZhrEEJnnVhIQJxFO5PLfxdrrvRFncgKLkLUQE2Gu6EUjEUj6N8R%2FKMjlfFVZVcYxdldGG%2FXgocUVs4MtNoKGbbuV0QIs9TgVztZcqR46rDUTedt4oWuyM9EFtxGMZgP6hhJn8OAnnpKlTlNTXRQSUorxukCWD4AKzHeNyPoylv0%2FVA3eJPg3FyvuvsCjN7Zj1l6R8SHNag2F8Qg1gGIrmi%2FpVAKBqnbONNoWNkEAvJNRq2J%2Bo2vo5VQmqjEEepaWJ7ix5P%2BuuPfacvrNgqZNvZCymZ5%2BnozDuK5PdFGdQcDMVakvH698XFCwibSA9EmDIA%2FmE6jNEAsfakQIyVvwAb0UY5cs1I%2F9gQv85160W3UUSLGVwEibSBMplIRGElThJSM3KjMKoQuukhoCtRgecktPqyZYx%2FKmk3G92HxCFHxm6yPd64NhiOJgBUS%2Bj1IQDF91WetuQMI45AOVB52pKAb3zG8bKnyZZ2WDyldkb0MACzPFhat89oe8%2BDdS0DMTtWRsBxElIEmSPRfEnU7P0nZF1bChsDnr2BR6qOATBBRMzExMZRBgkNYmGmZ424PQjadvbw0ob4dZvF1NiNMswR6X7S50%2F%2Freb0pklG9AegNrTw0EA4uthXkn4P2%2FTXvNSyibTFU7SfLoI3rzMVeHTSeA%2FWtQxAoJOmMlAmIlbo9dG9LL%2FQYcJS02EMAWfKnDXiqo7gBDkDExtHE5UzFh0EYG8RMUNNoYJlRlk94c0AAjwdQz6E%2BEnar56uCsfOMBYDAIQi%2FkCo%2BdxAOPpHh3yvE3AdgLEg8nSonk2kLZ7CrD%2Ft1drK2XaEV2tbdofYEWw0LFzHjl3J6PTPUHhTNPvyesffFiSlRUlpqdeLkYmNownl03I3Pabe20K2nTuQfZ5k3rVmsgK3BsLRXwVn%2FMhVm9uhqArHjguGowuDFHifiO4l4HzsnN8eFayLfsorfVsjbfGMytOWBIC0dx9eTF8BUNANaaMKRVKNhp2JYPsLIkousCl%2BQ1swHL0LwBWmYxkAMxdYlnLsMDSxcXQhd5OcccQTaUnbzl5I%2BUWfZ3mnfmhruW8zYNS2lwi4DD7%2FxcG66O%2BV1kvbavd5xP3hZEw14diJGjgHwBcBHrqJlHElgMfdjSOLTaQtnqFKnWlg715jTLgyOLPpV8kVjabvxPcM5I5Gn8bySLeQlito1jFFqlATaROJSxWkRqib34kregSnla5LrvqGeG%2BLqG1nlkTbiuveBK4XE3z%2FiQXbguHYXwG%2BSEx0YErAuFiTujjY9mGCwtEHwHiCffpZ1dn997bHbtyU60KTz1s6Jr2xcx%2F28ZEadBzAxwOxT%2BnhlyJdVBu6db4Xdes2kbZ4B%2FMxHiuUQqvfB0LRC1Pxhkc91tqj6Tmq21dErAgbx9rjjc8Hw9HHAXh2fDhS2PF%2BRPGukPJPB2uZ0kFdPGVAhciBodvLO6hDpIkY5M2O4JCyxNPdH2MwKE8aGVTC%2BB0IhZBI96WagUtAuARaQZeWIxiObgTofQY2EDgDcAegHDD32v9OQHZnfZ%2FOzZ2V8AE7%2Fv9G%2FP84zkH6IgA%2Fz%2FsZ7YJNpC2eQWCJ0cCTiLAqGGp%2BgAh3dXPmvk3xG9oEdPcsfP7RX0OZJ8xYRFRwifSm1MSJr0iLZuvphRIXn%2FyNwmhiI22eQkCpiJixmx65wUAAQGRmXH35%2BLL7Ojd3poA851l4TyXAlTs%2BIQgAC3xkqK%2FCJtKWIqNKSIdANJuB2SVU4gTDzc8B9DITXlPA6yB%2BP8MqiW5%2F0tZSjhi5CXVUnBPqUpvKfx%2Bc0PkBgH1Mx9KHNe7XJ%2BYA03ShPHpj8vTka1ghojUqIdLTxeZzGnBXOTB0e3kHOo4XFWUz5Ubr7p27NRhuXgTQf5rQL3iIpwdnxo5Krqh3dXPBJtIWzyBGBYuepgEAfABNBTCVuGd%2BMxN8YKAkjWA4ygDakXVZ6ARhCxjdBGxmIL39iAloB5iJOKWZNJg2kmIHjA4Q0gBvVowuZrVVgzt9Sm9NK7Szj9s7ujo6EI9kxJ%2B5lzBNkzmppPcSLQs%2BEBByn2fmphGO%2FQTg75oOZTtGLuhMoJjUIJbVdhBLnsj1PqTHbHOek7aPEd1xz6K5nIy5yGRKddTf7VsAs02HhUu26fAGN5e0ibTFOwg5NxQIQsgee2WPvnpyQ97p2zv%2Bxdwzr317Vt77bYLu%2BToB0KzgcwA4QJACQDi6lYAPGfwRgPUM%2BoCAtQS8rR31zth0%2Bq33n1hQyJZpO5gdK0MnnyAjVtyNYyUlJT%2FOpLu%2FJea3PQRMSnx3PxhuOgrwyZxGUXEM7ilwpBLp50x85hE700CCOzqEl72cojcUHX9bkAyGoz8BsMBUDAUN85cxO%2FZtN4cC2UTa4hkMrDcdg0HGMHAIQIcAO0q%2FGAD5NLb6fDoYjr4F0AvE%2FAIDz2joJ9vjje3mQu6f4DacAEK5jFpx1kf3sv7Baz6uDkd%2FB%2BAS07EA4Ax3y9tDsk%2BqrAPQxdeYWkj0NBHLlCKZuukhkp1oyOZv7roz9MNSP18OoMZ0LAVITbBTn5sEfu%2FWgjaRtngGMz9LkjsBxYUCcDjAhzNhTvYLSgfD0dcIWAmmexJIxguiRIS0XMe7Ku5EGgCYaTGICyGRftNI4y2J7XCamdg4mhBsImZzNz2y1ncFMJV18yP1GwLhaAMBvzEdS0HC%2BCpcTKTtZEOLZ5B2VgKw9Yu5owAcxcA1TPxQkAIfBcPNP66e0XSk2bBkOt4J6JrgVD0noeUlyXj9k2AYn7THMOMcAEAmOSO8ZmJi4yhDLMlk5RPfqRXdce%2BBdGG4yKRaG%2B5koj%2BajqMgITo7cGZ0f7eWs4m0xTOSq77xHtj20%2BdBNUBz2adeDoajf60JR6cYikPkYsvAc2vjV3RKaHkNES82HYOJnbHAmUsrARwhIlYAR%2BhFj9j0SXzY3nL9P4W0diBp25mlPRFKvCGsOSAKmesBWDvY3VHk4MuuLebWQhZLfzCp7wJi5kqjFQJwjgbWBMLRX40P3SJW91Zz1qLJAFy7cx8ULv6yjl4S5epuGO4RYO3ID2LRXadA6rpSpH7jBcOcSClIqInY3JAl6YmGTxaSi0yiZcEHzPg8gKKaFCvElYhEXPmssom0xVNSrfMeA%2FAr03GMEhQBl5VQyXOBUPQ0CUGdcSR3dEZPYnR%2FfRcTfmYwgi3t2Ph3cVXNgjW38p7Eo4nqtqoTAJkmYiZj%2F1fCO9KF95pMxRseZeAK2DLLXTmwOh6sc2Mhm0hbPKekpPs6AC%2BYjmMUsS8RWoN1sfmeK8kd%2FUIr%2F%2BhJpAH4fGoJgLQJbWasMdKoKtdo2JGqnfSqkNaohEnJJZnKwE3y7FgZAUK2nT0UQKNhf6RaG%2B4E4SoA8sOZChQiPAef3ujGWjaRtnjO%2Bge%2FuQVM5wIomNqxUYAfzE3BULTBUxUS22E0U0PpIW0PzVsHwp%2BMiBu5oDMBOFlGCquNTGwcTQgOYqkYU%2FaMkNZ2gttwgrCfOzvdfuNNxgORbGm4nYALAGw1HYth3mGif0nMSE1NrJjvyv%2BXTaQtIiTj9e%2F7HJwLYFQ0kxUMhKZgOHqhJ2tPWVoC0ImerL0bxT2IZSA0eJEJXZ8BP%2B7qGc1HAAiKiBXozl9xwUKJNL%2Bw7t658skbaemyjlc2PnptSlZzeCRaG%2F5Ejp4Kwp54mtPGTP%2BWLKejUi31v3Wzlt0m0hYRguHmsx0fHoZQTd4eBAFYstfM5oluL1xdte14ABVur9sfDPkJfBK0t8xfBQNlTUpBfBAL%2B5WclRoVhsVYsVJzetMkAAdIaDGbem%2FLlaVlKY7m18SqxldRRrd9QQkAAAq%2BSURBVNMYWIQ9o9TjHRA1%2Bth%2FUCpef5ObEw17sYm0xVMmn7d0TDAc%2FQVAD0DK%2FWHPozqt1f%2B6vqoe5TWUUjBErfAIePvjFfPlHUNYbIIcZ4jsIJY8YL9P7r1Npk6bpCcaFs%2BpWvL%2B%2Bo5Ua0O9In0yIH%2FTLQAzKE6ELyTPSB2WbKlv3hC%2FbrNXYjaRtnhGbWjhoZ2bO59AtmPY4iEE%2FlJ13UJXBw8w9KiuoZRiTJfzGwAJMUFjo5ilSgXwxqYV18v9Pkchgu9taJ8Wv0nO2nbyfqKiJP8886WtpfHZ5BmpTxHjKwC9bDoeF%2FiAQd%2F3OfhEqrU%2BnGhp%2BIOEHaFNpC2eEAw3n%2B2Qbw2AY03HsodQwqyudndJqR0dQzWUQrz%2FxIJtAP9CTNDAKOaaU28aD8ZRImLGdjhHEWJuPPzxxocb35HR2oGwbScAdCTP6CjOuuNIRCfiDf%2BXbJ33SRCdDeABFNXsB%2F4YwC%2BY1DnJmkkHpFrrv71hVcObkhH4JcUsewaBUPRiZL2jS0zHskdB9HkA33FjqcrTlgSAtAbg%2BUWQif7mtYZpHMd3m8%2BnLxDRgn5MQqcvXFp2FAAR1xUCtUjojFoiEYWVCEDgvQ1Q3HuN3WGogwkslsBTgQ1iGRnEyRY8CODBmnDzJxi4gEHnA5iKwtt0fZFBfyHGvclQao3p3z2ZFLeMPgJ10a8T41YU3htvT4BVRu%2FT9kjjh6YDsVgsFkvxU3N60yRdQueC1VkATwVwkHAI7QCtBvRqBq3OKN%2FqQivtsom0xTV6kujbXF62nYEfEDALwAzYXe4h4C8mW%2Bf%2F3nQUFovFYhl9TDh7YdCfUVOYaYpifJIZ%2B4GwDwH75Onb3QnCP8B4hxgvMfh5RXi%2BrbXhDYAKutTEJtIWVwjWNc8B028B%2BFxcNk3A7ERrwwoA2Hf6wootY%2FxTFevjGOpAgA8AY39kbZxct38rRgjUkGitj5mOw2KxWCx7FhNn3bZXt9O1t3LUXuzTBEYVNBSIKvs%2BjhhdTLxZMScc7U%2F4ONNWzCepNpG25E113aI6sL7P9SlSxFcnW%2Bb%2FNNeHV562JKDK0%2BORwQTy6fHQNAGECQCqoDEBisYTuBxMxEBVH6FK9JaisB4Hot5d7zHY8ZzKev4NAGORHTxRcLvjDPwg1drwLdNxWCwWi8WyJ2CbDS15UXN60yTNzm8BcjWJJuA3iWEk0QDQM1VKbLJUbejWcY7P2R%2Bsj4bGsSB8GqApMHiDSswiA1QsFovFYrHYRNqSD5GI0ivp1wDt5eayDHpLdW%2B7xs01vaDH4P2Vnj%2FLAfxHMBTbFwrzwfx1ZHeuZSHaJK5psVgsFsseinVWsIyY6pWBGwGqc3tdBb6h7bEbizIhTMbr30%2B21N8ApiNgYmIUoUNc02KxWCyWPRSbSFtGRHDGj%2FZj4D9cX5jxVKK1%2Fs%2BurytMMl7%2FPvvKz4aQt24vxPyxpJ7FYrFYLHsyNpG2jAjy%2B78PwPV6XCZECt3qJldSD8%2FdyEw%2FkNSk0THm1WKxWCyWosAm0pZhUxNaNJUZl7i9LgEbUjWTRtmUO5acMueUjisvzjG1FovFYrEUITaRtgwbTfqb8MCZgoE%2FY%2FmFjtvrmqRifLnYmFoAb6%2B7d%2B5WQT2LxWKxWPZobCJtGRZ7zWyeCOBzXqzNwD1erGuS7vatlUM%2Fyi24VU7LYrFYLBaLTaQtwyLNdAWAUi%2FWznB6jRfrmoRLfPsJyj0kqGWxWCwWyx6PTaQtw4KAf%2FFo6Y82xW9o82htY2jGGUJSjmZeIaRlsVgsFosFNpG2DIPa0K17g3GMR8u3e7SuQZgIfKmQ2N%2Fa442j8HdosVgsFkvhYhNpS85klBOGV%2BOvCaPC8q4vgbpF5wI4VkKLiX4soWOxWCwWi2UHNpG25Awxwp4tzjgQkcioeT3Whm4dR8wxIbl%2Fpqr3vk9Iy2KxWCwWSw%2BjJnGxCOBdWQcAVAQeCZ7q4fpyRCIqo5w7ABwoIUeghaPNNtBisVgslmLAJtKW3CE%2B3NP1NX%2FD0%2FUlCEX8gZWBXxKzJxaB%2FfBGoqPsNiEti8VisVgsfbCJtCUnxs9cXA2g2ksNAs4PhJqlmvNcZ6%2BZzRODFHiAgMukNJnoBjwzNy2lZ7FYLBaLZQc2kbbkRCnrQyR0FNHPgnWxWRJa7sEUCDVfmtH0AoCZUqpE%2BEuqpf5eKT2LxWKxWCw7YxNpS06QdsZI6DBQBua%2FVNdF5wHsjUOIazAFQ9FPB8OxJ4joDgATBcXXdaXpSkE9i8VisVgsu1DgiYqlUKiZGQ1rjRZh2TUEfCvRWt8CUMHY41XWxQ5RGl8k4isBeFs33j%2BOUjirbUWDHQlusVgsFotBbCJtyYmqUNPxitRzhuRfIcadGvhTKpR6BZGIlpNmqqxbdLDSmAZgGhGfCeAIOf3dIfC3E63zv28yBovFYrFYLDaRtuRI5WlLAr6SdNJ0HAA2gfE8FJ4F8AI0PmQfr%2FN184a2vff5eLg2cONnLq4ugZ5ITHtrzZOI9F4gtQ8x783gTwB0JICx3jyVEUD4WbKl4Wumw7BYLBaLxWITacswCIZj7wK8n%2Bk4BkED2Njz93YADKAbQGnP1yqR7QsoAyBS8%2B0yDyQ5dR7ikYzpQCwWi8VisQB%2B0wFYigl%2BCEAhN7gpAIGevwcGe2DxwS0%2BLpljk2iLxWKxWAoH69phGQa8zHQEeya0PFmuztkQv26z6UgsFovFYrHswCbSlpxJtjY8CNDLpuPYk2Cmxckzkhfj%2Fvou07FYLBaLxWLZGVsjbRkWwXDz2QA9YDqOPYDNxDQvEa%2F%2FpelALBaLxWKx9I%2FPdACW4mLb2gfeHnPg7L1BmGo6ltEKg571Kd%2BsROu8FaZjsVgsFovFMjC2tMMybMZjQiMRTHlKj2a6GfT9VE1yetuK698wHYzFYrFYLJbBsaUdlhFReWbTwT5HPQJgsulYRgn3%2BRzM37Cq4U3TgVgsFovFYskNm0hbRkztjOhhjg8tAPY1HUsR8zoTfTPVUn%2Bv6UAsFovFYrEMD5tIW%2FKisi52iI%2F5PgCHm46lqCC8xBrfT9VOWj7caYwWi8VisVgKA5tIW%2FKm5tSbxnNZ%2BRJmXGo6liJgNbH%2BYSI%2B%2F08AselgLBaLxWKxjBybSFtcIxBqvpSI%2FhfAJNOxFBgJEH7NxL9IrZj%2FoulgLBaLxWKxuINNpC2uMnHWzWPT6bJvAPxNAONMx2OQrQw89P%2Fbu39X2uM4juPP99cJOUh%2BDiSDumy6g0lRZFE2g9FiU%2FIX2Fn8BTbDvZNYb938yGJwduUknZJ8D0rC93zeBjeDyeD4uLwe03f69Ppuz%2BFTH4ONtN429aCKiIjI16OQlqpoGlttz1ntHDBveH%2FsPR%2BkBGy7%2B1b%2BPvw5O1i6iz1IREREqkchLVXm1jq%2BNkGwWWAaaIu96B2VwHbNfL8Swu7V38WC7j2LiIh8Hwpp%2BTgzv2raLs9H3cMUMAL8BHKRV73VNVAAPzKzwyxL9q53Fk5ijxIREZF4FNISTdfkSr5SqR0OwYfABnAGMf8B1hlpkgMl8KJhRTeODQpZlhwpmkVEROQ1hbR8On1j6%2FW3lHseLdddY96L0xOgO3F6AzSa0YzRgFMHtAB1QJ7nEL76d8zLt2PB8BSsDCE1rOzuKUZqnpSBs4SseNFxc8rv5YcY%2FywiIiL%2FnyfZjN%2FlfTww6gAAAABJRU5ErkJggg%3D%3D%3BperimeterSpacing%3D1%3BstrokeWidth%3D1%3BimageBackground%3D%23ffffff%3B%22%20vertex%3D%221%22%20parent%3D%221%22%3E%3CmxGeometry%20x%3D%22501.72%22%20y%3D%2271.88%22%20width%3D%2268.56%22%20height%3D%2216.24%22%20as%3D%22geometry%22%2F%3E%3C%2FmxCell%3E%3C%2Froot%3E%3C%2FmxGraphModel%3E&lt;/span&gt;" style="rounded=1;whiteSpace=wrap;html=1;align=left;verticalAlign=bottom;fontFamily=Manrope;fontSource=https%3A%2F%2Ffonts.googleapis.com%2Fcss%3Ffamily%3DManrope;" parent="1" vertex="1">
          <mxGeometry x="152" y="-380" width="200" height="180" as="geometry" />
        </mxCell>
        <mxCell id="OBkcXNZdzhIq3iiDm8Ts-27" value="router" style="rounded=1;whiteSpace=wrap;html=1;fillColor=#f5f5f5;fontColor=#333333;strokeColor=#666666;fontFamily=Manrope;fontSource=https%3A%2F%2Ffonts.googleapis.com%2Fcss%3Ffamily%3DManrope;" parent="1" vertex="1">
          <mxGeometry x="500.13" y="-130" width="70" height="40" as="geometry" />
        </mxCell>
        <mxCell id="OBkcXNZdzhIq3iiDm8Ts-35" value="router" style="rounded=1;whiteSpace=wrap;html=1;fillColor=#f5f5f5;fontColor=#333333;strokeColor=#666666;fontFamily=Manrope;fontSource=https%3A%2F%2Ffonts.googleapis.com%2Fcss%3Ffamily%3DManrope;" parent="1" vertex="1">
          <mxGeometry x="630.13" y="-130" width="70" height="40" as="geometry" />
        </mxCell>
        <mxCell id="OBkcXNZdzhIq3iiDm8Ts-56" value="cache" style="shape=cylinder3;whiteSpace=wrap;html=1;boundedLbl=1;backgroundOutline=1;size=15;fontSize=20;fillColor=#f8cecc;strokeColor=#b85450;verticalAlign=middle;fontFamily=Manrope;fontSource=https%3A%2F%2Ffonts.googleapis.com%2Fcss%3Ffamily%3DManrope;fontStyle=1" parent="1" vertex="1">
          <mxGeometry x="371.87" y="-500" width="95.25" height="90" as="geometry" />
        </mxCell>
        <mxCell id="OBkcXNZdzhIq3iiDm8Ts-73" style="edgeStyle=orthogonalEdgeStyle;rounded=0;orthogonalLoop=1;jettySize=auto;html=1;exitX=0.5;exitY=0;exitDx=0;exitDy=0;entryX=0.5;entryY=1;entryDx=0;entryDy=0;fontSize=23;strokeWidth=1;fontFamily=Manrope;fontSource=https%3A%2F%2Ffonts.googleapis.com%2Fcss%3Ffamily%3DManrope;" parent="1" source="OBkcXNZdzhIq3iiDm8Ts-57" target="OBkcXNZdzhIq3iiDm8Ts-58" edge="1">
          <mxGeometry relative="1" as="geometry" />
        </mxCell>
        <mxCell id="OBkcXNZdzhIq3iiDm8Ts-85" style="edgeStyle=orthogonalEdgeStyle;rounded=0;orthogonalLoop=1;jettySize=auto;html=1;exitX=0.5;exitY=1;exitDx=0;exitDy=0;entryX=0.5;entryY=0;entryDx=0;entryDy=0;fontSize=23;startArrow=classic;startFill=1;endArrow=classic;endFill=1;strokeWidth=1;fontFamily=Manrope;fontSource=https%3A%2F%2Ffonts.googleapis.com%2Fcss%3Ffamily%3DManrope;" parent="1" source="OBkcXNZdzhIq3iiDm8Ts-57" target="OBkcXNZdzhIq3iiDm8Ts-83" edge="1">
          <mxGeometry relative="1" as="geometry" />
        </mxCell>
        <mxCell id="OBkcXNZdzhIq3iiDm8Ts-57" value="collector" style="rounded=1;whiteSpace=wrap;html=1;fillColor=#ffe6cc;strokeColor=#d79b00;fontFamily=Manrope;fontSource=https%3A%2F%2Ffonts.googleapis.com%2Fcss%3Ffamily%3DManrope;fontSize=17;" parent="1" vertex="1">
          <mxGeometry x="192" y="-270" width="120" height="30" as="geometry" />
        </mxCell>
        <mxCell id="OBkcXNZdzhIq3iiDm8Ts-59" style="edgeStyle=orthogonalEdgeStyle;rounded=0;orthogonalLoop=1;jettySize=auto;html=1;exitX=0.75;exitY=0;exitDx=0;exitDy=0;entryX=0;entryY=0;entryDx=0;entryDy=60;entryPerimeter=0;fontSize=17;fontFamily=Manrope;fontSource=https%3A%2F%2Ffonts.googleapis.com%2Fcss%3Ffamily%3DManrope;" parent="1" source="OBkcXNZdzhIq3iiDm8Ts-58" target="OBkcXNZdzhIq3iiDm8Ts-56" edge="1">
          <mxGeometry relative="1" as="geometry" />
        </mxCell>
        <mxCell id="OBkcXNZdzhIq3iiDm8Ts-74" style="edgeStyle=orthogonalEdgeStyle;rounded=0;orthogonalLoop=1;jettySize=auto;html=1;exitX=0.25;exitY=0;exitDx=0;exitDy=0;fontSize=23;strokeWidth=1;fontFamily=Manrope;fontSource=https%3A%2F%2Ffonts.googleapis.com%2Fcss%3Ffamily%3DManrope;" parent="1" source="OBkcXNZdzhIq3iiDm8Ts-58" edge="1">
          <mxGeometry relative="1" as="geometry">
            <mxPoint x="222.1428571428571" y="-560" as="targetPoint" />
          </mxGeometry>
        </mxCell>
        <mxCell id="OBkcXNZdzhIq3iiDm8Ts-58" value="output" style="rounded=1;whiteSpace=wrap;html=1;align=center;verticalAlign=top;fillColor=#dae8fc;strokeColor=#6c8ebf;fontFamily=Manrope;fontSource=https%3A%2F%2Ffonts.googleapis.com%2Fcss%3Ffamily%3DManrope;fontSize=17;" parent="1" vertex="1">
          <mxGeometry x="192" y="-330" width="121" height="30" as="geometry" />
        </mxCell>
        <mxCell id="OBkcXNZdzhIq3iiDm8Ts-89" style="edgeStyle=orthogonalEdgeStyle;rounded=0;orthogonalLoop=1;jettySize=auto;html=1;exitX=0.5;exitY=0;exitDx=0;exitDy=0;entryX=0.5;entryY=1;entryDx=0;entryDy=0;fontSize=23;startArrow=none;startFill=0;endArrow=classic;endFill=1;strokeWidth=1;fontFamily=Manrope;fontSource=https%3A%2F%2Ffonts.googleapis.com%2Fcss%3Ffamily%3DManrope;" parent="1" source="OBkcXNZdzhIq3iiDm8Ts-64" target="OBkcXNZdzhIq3iiDm8Ts-65" edge="1">
          <mxGeometry relative="1" as="geometry" />
        </mxCell>
        <mxCell id="OBkcXNZdzhIq3iiDm8Ts-64" value="collector" style="rounded=1;whiteSpace=wrap;html=1;fillColor=#ffe6cc;strokeColor=#d79b00;fontFamily=Manrope;fontSource=https%3A%2F%2Ffonts.googleapis.com%2Fcss%3Ffamily%3DManrope;fontSize=17;" parent="1" vertex="1">
          <mxGeometry x="545.13" y="-270" width="120" height="30" as="geometry" />
        </mxCell>
        <mxCell id="OBkcXNZdzhIq3iiDm8Ts-75" style="edgeStyle=orthogonalEdgeStyle;rounded=0;orthogonalLoop=1;jettySize=auto;html=1;exitX=0.25;exitY=0;exitDx=0;exitDy=0;entryX=1;entryY=0;entryDx=0;entryDy=60;entryPerimeter=0;fontSize=23;strokeWidth=1;fontFamily=Manrope;fontSource=https%3A%2F%2Ffonts.googleapis.com%2Fcss%3Ffamily%3DManrope;" parent="1" source="OBkcXNZdzhIq3iiDm8Ts-65" target="OBkcXNZdzhIq3iiDm8Ts-56" edge="1">
          <mxGeometry relative="1" as="geometry" />
        </mxCell>
        <mxCell id="OBkcXNZdzhIq3iiDm8Ts-77" style="edgeStyle=orthogonalEdgeStyle;rounded=0;orthogonalLoop=1;jettySize=auto;html=1;exitX=0.75;exitY=0;exitDx=0;exitDy=0;fontSize=23;strokeWidth=1;startArrow=classic;startFill=1;endArrow=none;endFill=0;fontFamily=Manrope;fontSource=https%3A%2F%2Ffonts.googleapis.com%2Fcss%3Ffamily%3DManrope;" parent="1" source="OBkcXNZdzhIq3iiDm8Ts-65" edge="1">
          <mxGeometry relative="1" as="geometry">
            <mxPoint x="635.6206896551726" y="-560" as="targetPoint" />
          </mxGeometry>
        </mxCell>
        <mxCell id="OBkcXNZdzhIq3iiDm8Ts-65" value="output" style="rounded=1;whiteSpace=wrap;html=1;align=center;verticalAlign=top;fillColor=#dae8fc;strokeColor=#6c8ebf;fontFamily=Manrope;fontSource=https%3A%2F%2Ffonts.googleapis.com%2Fcss%3Ffamily%3DManrope;fontSize=17;" parent="1" vertex="1">
          <mxGeometry x="545.13" y="-330" width="121" height="30" as="geometry" />
        </mxCell>
        <mxCell id="OBkcXNZdzhIq3iiDm8Ts-66" value="write to cache" style="text;html=1;strokeColor=none;fillColor=none;align=center;verticalAlign=middle;whiteSpace=wrap;rounded=0;fontSize=17;fontFamily=Manrope;fontSource=https%3A%2F%2Ffonts.googleapis.com%2Fcss%3Ffamily%3DManrope;" parent="1" vertex="1">
          <mxGeometry x="282" y="-420" width="130" height="40" as="geometry" />
        </mxCell>
        <mxCell id="OBkcXNZdzhIq3iiDm8Ts-67" value="sync remote" style="text;html=1;strokeColor=none;fillColor=none;align=center;verticalAlign=middle;whiteSpace=wrap;rounded=0;fontSize=17;fontFamily=Manrope;fontSource=https%3A%2F%2Ffonts.googleapis.com%2Fcss%3Ffamily%3DManrope;" parent="1" vertex="1">
          <mxGeometry x="248" y="-520" width="130" height="40" as="geometry" />
        </mxCell>
        <mxCell id="OBkcXNZdzhIq3iiDm8Ts-68" value="write datapoints to InfluxDB" style="text;html=1;strokeColor=none;fillColor=none;align=center;verticalAlign=middle;whiteSpace=wrap;rounded=0;fontSize=17;fontFamily=Manrope;fontSource=https%3A%2F%2Ffonts.googleapis.com%2Fcss%3Ffamily%3DManrope;" parent="1" vertex="1">
          <mxGeometry x="90" y="-530" width="130" height="40" as="geometry" />
        </mxCell>
        <mxCell id="OBkcXNZdzhIq3iiDm8Ts-69" value="" style="shape=image;verticalLabelPosition=bottom;labelBackgroundColor=#ffffff;verticalAlign=top;aspect=fixed;imageAspect=0;image=data:image/png,iVBORw0KGgoAAAANSUhEUgAAAtIAAACrCAYAAABL2HuKAAAACXBIWXMAAC4jAAAuIwF4pT92AAAAGXRFWHRTb2Z0d2FyZQB3d3cuaW5rc2NhcGUub3Jnm+48GgAAIABJREFUeJzsnXl4m9WV/7/nSt6y2ZJtQsK+lq1sCZAUCJIDoaFQ2tIAHZYWSklZYscpHWba30zVmU5bBhpbSghNNzqlpZC0dKEFCsRWwpqwQ9mXpiyBEEtynM229N7z+0N24iReZOt9z5Wc+3mePE9iy/d75Eh6z3vvOd9DsFgsFsPsO31hxdZyXzuAUilNBm5NtTZcL6UnSTAUvQqEn8qo8aeTrfP/JqOVpSrUdLwi9ZykZi/E6shEfN5rJrSLgkhEBVcGHgQw04D648nWhlOlRQN10X8jxg+k9IjwXKKl4UQpPcvgKNMBWCwWy5Yx/qkQTKIBgIDLg7NjEyQ1xSBME1JiJ126RkhrO6R806U1e9GkP2tKuxgIrgxEYCaJBoieMKLLYu+3Xj0zz9PSLzaRtlgs5tHCF6Is47mL/8WArgAk8/skvLbx0WtTIlp9kU5c+kDAeaa0C52aUFMIwLeMBaDxpAlZAk4RFjTyPC39YxNpi8ViHII2khgR06gr7cjusvORImKGdsYIbCyRBjB9fOiWGoP6BcnEWbftpUndCcBnMAzxBLPyzKaDAewtqakyNpEuJGwibbFYCgCS3dHZDh8dCEVPM6PtEV2YBqnPdmLxC/r4mYurARwmrdsHX6kqmW1Qv/CIRFS6u/vXACYZjGJdMl7/vrSocpT0TV1iw6r6t4Q1LYNgE2mLxWKUqrrFBwDYx5S+IlxjStsTBMseWMvXpPq1ngaApHX7wky2vKMP1auC3wLhLLNR0GNGZJlE6/WJ8ARALKlpGRybSFssFqOQdow1jgEAA1/ca2bzRJMxuAqLlclsStVOelVIazsk9/wGgWdjdqzMdBSFQGBm7HRm/o7pOAD50xEAIBJ+PRqqA7cMjE2kLRaLUUiZaxzrodTR+KrhGFyCCUQnC4mtxvILHSGtHZDsDuAAjAt26xmmgzDNhLMXBknzrwH4TccCpcVPR/advrACoGNFRZWyjh0Fhk2kLRaLWQw6MOwIgeZizjKTTVKuUBOOHg6gWkhO/oIeiSgAJ4nr9gPrPb28g8nX7b8dwP6mIwHQPcGpEvcVN2DbqbmMnxbUs+SATaQtFos5ZsfKCDjedBgA9g8kPjrHdBD5wqzEdmvZgENCoKX6aAAF4f1NwPmmYzBJILzoBgIXiqf2c2vjV3SKq8rbdv49eX99h7CmZQhsIm2xWIwR7OIpDBRErSlpXfRNhyxXr8kZTssPYvHpQijr6GX/wIxFnzQdhAmq62InE/h7puPYDrMZG0Zm4dejmedpGRybSFssFnNo6QvRIBB9unZG1KStmgsIDWIB3tgUv6FNSKsvxsuA+qLUnjflsCrUVMXMd0F4EukQmGnAI9lBLMTKNhoWIDaRtlgs5lBiiV8ukOPjr5kOYqRMnHXzWABHC8mZuqAXzo0XAKY9bcohk4L6BYCDTEfSF/bL2zD22HZOltQkkm+otAyNTaQtFos5CqDRcGfoygNDt5ebjmIkZDLlp0DIPYENjCiuCjVVAThcWncITqoN3So61c4kwVCsHoTPm45jFz5MPdzwrrSoAdvO9rbWhjeENS05YBNpi8VihJqzFk0GsK/pOHahehNtvNB0ECOCHblBLCy/A6ig5CY25o5yyCn6JtVcqAlHpxDhJtNx7I6h+mhp205mO4ilQCm0DyWLxbKHoB3nVNMx9AeDirPpkMXKZLa0c/JlIa0dUAHV0/dhTyjvqA3dOk4DvymUxuCdIPmbOgAAC5cZmXqeliGxibTFYjGDXOI3XKbVhKNTTAcxXJggNIiFVyMeycho9aUwXy/EPGvyeUvHmI7DSzRllgL4hOk4+oNNTPrL2nYeJ6qpzExutAyNTaQtFosZuCAm1PWLJnzddAzDobIudggAkTHnDBPOAUwokEEs/TBm2+bOkOkgvCJQF/06A/9iOo4BSFeML39WWtSAbadmqhC3m7Tkhk2kLRaLPHMipSA+wXQYA8K4ZMLZC4Omw8gVpQX9lQ00GgbDTUcBCEjr5ori0VneEQhFjyHGQtNxDAjj+XX3zt0qritv2/lK6uG5G4U1LTliE2mLxSJOdVvVCQAK2R2jwp/2X246iJwhsbIHTqcNHKWzKsiyjl6Y8NmeXfNRw8RZN48lhWUAKkzHMhAm3GMAyNt2mnqelpywibTFYhGHSW6U9UhhxnXFkhyR0KASBr29+ZH6DRJaO0GFWwbUw+SauubCPWEZAd3psiVgHGk6jkEx12go7NhhGw0LGZtIWywWeQrOP3p3CHxodThWZzqOodh3+sIKAMfKqJkaUVyYjYZ90VCjZsphsC56BYEL/kRGZ0i+zGjGj/aDtG2nsjvShYxNpC0WiwEK08psVxgoeCu8zRXqJAAlMmryzgHB2bEJABf2zigAZhoVddI1MxcfDkbUdBxDwx9vXDXvH+Kyfp/0TV178vTka8KalmFgE2mLxSJKzelNkwDsbzqOHDk/GIoV2tCYnSBBG0F2lPyOdBcKcRDLbhD4hEJ/rQzFgaHby7V2lgEYbzqWoWBSjxsSFk6kaTUiES2raRkOBf/hZLFYRhfs9xXFbnQPfii+ynQQg0FyZTJb21XyJSGtHRRBGVAPxMBnTAeRDx3UsRjS/sgjxYR/NCBv20nWP7rQsYm0xWIRhbk4yjq2w7gaU5YKlU6MAMIpMjJ4yswgluJ5vRBx0ZZ3BMPRCwF81XQcucJKy5+OzI6Vidt2sqm+BEuu2ETaYrHIQkWzw9jLpOD4rvNNB9EfVXWLDwAwWUSMYeCCzgRITWzMHwLOrA3dOs50HMOlNrTwUAA/NR3HMMiU+dPPSIsGt0HatpOddKkdxFLg2ETaYrHIkd3ZPdF0GMOGdEE2HZJ2RvUglurQ4k8AKJrBOAyUacrMNB3HsJgdK8uQ/24AE0yHkisMenH9g9/cIi6shDcBCK9tfPTalKimZdjYRNpisYhRXbXteABjTMcxfKguGF54tOkodoUEL+yK/aultHphJTix0SUYxTXlsLqTFxK4yG5uDZU7iPtHmzgFsgwXm0hbLBY5xDve3URdbTqC3ZC7sL+zIX7dR0JaOyieRsM+8HmIRIri2hoMN1/AwLWm4xg2bKoBT7he3zYaFgVF8Wa3WCyjg6JrNNwJ+vLEWTePNR3FdmbHygg4XkKKYMghgVCErxfaq3pl1UmmoxiKwJnR/QH6iek4RoJW8jaMNWctmgxh207WdqJhMWATaYvFIkgx70ijMp0uvcR0EL0Eu3gKA2UiYgbqo2tOvWk8GEdJ67qBpgIfzjJlaQll6C4UUf15H9o2tsx7R1pUZwT7EbJsStVOelVY0zICbCJtsVhEmDjrtr0AHGQ6jjwpnGNwwbIH0vI7gFxafjIAn7SuGxBQ0OPCgxM6bwIV5+kQMZ7IWnYLI1+WthrLL3SENS0jwG86AIul2Jk46+axnVvHlpK/q5L9u9+cso/baUs5b3z0mnYjF4ACIdPd+SlQ0d+7Hxec2TQ9uaKxAI5caRog8nLa1labeFFCaCeIpoOL9O3C+GTljEUHGRlhPQSBcPQcAPNNxzFiyFADnrxtZwF8xhQe26+3pXoCq/T2G+1yVb65W6uu1MNzN0rHZBNpi2UIakO37s2+zJGa+VBiOpQZh4EwCcDeAPZKpzHGV5IGoID+9g8cACVpBMMxANF2ACkASSJ8CI33mbCOCGsBet3Rzhvt8cZ2sScniaJpMnmft7BW16AwLnIyF3bG01ge6RbR6ivLXMxlQPD7nc8AWGw6jr5kR5jz/wEg07GMFFIG6vWnLC0BOkWdTdhUX4JBKk9bEvD7M1OY+GAm7A/G/gQcgGxt+kQAFek04CtJZ/cQnB0bM2mnGwSgOhztYmADwB8B6h8Av8ZErxLhheSKea96sZllE2mLpQ+Vpy0JqJLMp4j4JNI4kQlTHGQmQwMAZfPA/C5BVT1/DmLesVZ2442hSCEYjq4H0zsgvZZBa8H0TyK9lhx+l5zu99seu3FTXhGYoqgdO3aggAsnzrrthvUPXvOxqRhqzlo0WWf0fiJiRpwDmICYyMRGr2Cm81BIiXQo4gfpuwCqMR1KHjjk+J+SFq2u2nY8a5K07eQMp0f3IJY5kdKqRNU0BToZTFMZmEJIH9qb5Y403e3pG9kXoH0BnppdiwEGqsOxDZpijynoFUrrBzbEF7zlxlOxibRlj6Yq1FRFyjebWJ8BqNOA9JEAFLhnppoZJoJ4IkDTCej5RCGwj8C+cgTD0S0A1jNIE1jkGIscfVliVePIG19CET8DU1wMyRgMlHV3p68AcJOpGHSaPyW1p0hQ4ol07YzYoQ5QzAkfAIQDZy6tNHHU3B/VCPw3A6eajiNPXtoQv26zuKr8JsAbm+I3tAlres74mYurSzhTx0znURvOQ3ZTCQCLfJwxUEvMn2PQ5xzyIRiOvgPgYRA/7NMl94/0tWUTacseR3DGj/YjX8nnGfxZADPAXJLdGi6auoOxAA4muXg7E2N9eXXJ16jKYzWj6EYnDwQRX4M5y24x1gykIFcmQxnxQSzax9OLuPqglxLKdJ0F4HemAwmGop9mwr+ajiNfiM2UO2RtO0Vfj6OmrKMq1FRFRP9CrC6Fdk4BSBXQO/tgAFeD6WqHMluC4egyMP0kGa8f1u/fJtKWPYPZsbJgl/4sgS5nxqcZbF/7ufM07q/vymcBh2ma4IdnGkCJxxoHBNo+PDsF3OexTv8wS5U9vJtoWfCBkFYfRkcZEBPOg+FEeq+ZzRMzGrdjNLh0kaGJhsKvR+Zi949mqqqLnk5MVxHwRQAVRdBnPxbAFSC+IhiOvkiMn2h/+a9zOVEq/jeWxTIIVXWLDwiGmpuCnfwhmJYx41zYG8hhkv/FSxFJWW1tA7BIQkgRrpHQ2Y0pS0sgVSZDeFxEZxcYxTiIZXcIfC5CEXOfN5GIymj6DbKN0UUPKb/4Tq0J20424NvuClOWllSHYl8JhmOvKqaVBFwGoMJ0WCPgWCYsJqfzH4Fw9F/3nb5w0OdgE2nLqCQwY9EnA+HorxQ7b4JoPoCA6ZiKFQI9lu8aWq7G8Cn2IQog47UQM86pnLFI3Be7umrb8ZC6OGn5C3rP9MhjpHU9IhhAwNjuenBl1XcAzDSl7zKJthXXvSktmunu/JSw5JZ2Tr4srJkfcyKlwbrmrwUndL7OxLcD+ITpkFwiQMBNW8t9bwTDsSsxZ1m/vvY2kbaMKirPbDo4GI7+jnz6hZ67Ya+P+Ec9PpWfa8P40C01BD7ErXgGg4AnUw83vAvGvQJyyq/01QI6O6OV2G4tGXDs6EqXTcUoOjVS2fIOcarrFtUB9G2PZRIer9+X1UZ8+JV0mRGvRjzi+UaAK0QiKhiOXRlsC7wJpp+g+AduDcS+AP880PbRwz2j4nfCJtKWUcHEWTePDdZFIz5HvQzgAoyCTqWCgPDmxyvmr89nCb8qnQ6p/4+eI1HlkynvYMJVB4ZuL5fQ2q4JLXJhJ6ArUa6el9Dqiw8svQPoKWxgyuHEWbftxazvgLeTIdME/MjD9XeCyEzdMLNYWVpWz4BLzkioCUenBFcGHgf458j6PI96CBzijH4+ULdodt+v20TaUvQEQ9FPp9Olb4DxHQCiSc1ox5WmF8lR1j61GgDaVjS0ApCYxlezEZsuENDpg8wOGQPP5NtkOhI0INVImUb/I5Tc5oja0MJDBXSyRCIqne6+A8BuO2duQqAbNEhu59RAmVFPfbusbSfrgm40rDxtSSAYbo5qYDXk3qsFQ9ZCT/+1uq75h4hEFDCKjs/wLNcijfkAzgJQbTocywAwukH4b5xCd+a71IGh28s3qY0RZnwT9qbQEwicd300mKcL7UevbXto3rodsrSEiH/stSiRvgbAb7zWAbI7jel0t8zxqaEdQJKa2Ag82/N5dLrXQg6p8wA0ea0DANXxwL8zYZbHMssSrfWxYCh6j9B7W3MFxAeU9Nh2jhWU5LSjxO0mcyUQjp5D6L4doL1Mx2IYYqYbq1cFjnZCTZeNjkR6De+HNB5BdpSkpZDJfugG812mOrToiA7qWA6m0dKUVJCwo/JLpuYs81Hbhye5FM7g7NLpXjG+7I7OzZ3fhwuvtyGET62pazqxraXxWW91ehqfSOie0cAOYGVd7BAwTxQRY34ChHcB8jyR7ply6HkiHQzFpjHxdzyWeQPl9DUAAAntSBJeTt5f3yGi1QfWSmoTIKsHenvzI/Ub5BRzZE6kNNgW+CGA+QDZsskemHGuInV38e/iPcrjexqLbBJdHDyCf+K2fBYIhBedyqQfwejp7C9UOlJ1iby6x6vaPjoGEBrEskvit+7euVsB/FJEmkmo6VBJHqWKJ9JKy5UBAXhSM/8BApOYiDBj/MzFnp6UVp62JADiu+Btg/UWwPlC8v76jqq6xQfA4/KR7TDMlDso0dcj3LAadZvKGYsOCrYFVgJohO092pX1Clxf3In0MvahBL8BcJzpUCw50Y4MLsOFNOK6xOpQ7CsE3YLiHx9cDDyOSETnswARG3WYcIiWAMjrOeSofkngzKWV3suI+SuvS8br3xfS2oHg64X99ER7vHEtgBcE5Hx+1h6WWzCpkvTt8HhDicDXJlsXvAwApB25JjxTvsos7Wcu75IzGMFw89k+n34BcuVWxUQbFNW1tc5/vbgT6QPQDJixFrKMAMY1OJX+OdIfD4RiN/Z4VJa6GJVlQPKvkSWhRsOBHCY2ttS/DeB+gRDGKd15uacKc5b5WKzxKX/v8BGpyl2w16Uebni3R/UPEoLE2rNrVbAu9g0CzvdqfQBg4NZE6/xf9f6bBHdrSedZYjYCxoduqeHsCGkx8i6lc5HqUPTLAN0LYLzpWAqQDsVqdnJF/StAMTdoreZGANebDsOSI4yfYhrdNdIfr66LziPiH7oZkmVwXGk0FJpQN7jDBMtY4QHXAOzZ0WfV+o+OhVSZjIGdsZ7pYccKyW1PWNiRSaQBOqdnKqWrVM9sPgmM/3F73V1Ykyqnb+z0FTk3nvZEKPGGkNZ2RG07s2xtV8mXBPUGJLtphdth5zD0x1ZNfF5bfN7TvV8ozkR6NX8GwM2mw7DkzFvYhgUj/eFgOHo1M6JuBuQy3QC2mg7CZRzq7syrS37C2QuDAA5zKZ6hGDDxS7Y2PAjgNc8jYBxZE2o+w6vlyafljpmVvAXX5gp1EqQu3H1KBVKr5r0EQCJRq6yp6jzNzQWrQk1VrOlueHtKl3QcdfFON6qzY2UEHO+hZl+ezLfEbEQI2nYCAAFPmR/EwhQMN/+4Z9PK1kPvAgFdIPp8e8v8VX2/XnyJ9BN8IoC74a3RvMU9uqBwIcK0eSQ/HAw3XwDgNph/U28CsAKMW5jpUnbUscqv9ikfVz422dpQlmxtGJusSZWVlJROVOAjAFwExi0ErASwzXDsI+Gltsdu3JTPAr5u3zSIDWIZbAeVmAhLJMLQpK7xbnWxCWvdE5yq54S0tkNyY+TBvMsROuPPErpau1uKqIh+Dm+nyWkmdenGVfP+0feLwS6ewkCZh7o7YFP10XL1+lk9Qw2VfQjWLboZoLmm4yhQHCa+LNlS/+Cu3ygu+7vVXA3gL4Cor6MlHwiNOIlGdFEOzowdBc23w9wN3ysE/IUUHmhrL38Uz8xND/ro5ZHu9cDHyP55HcAyIOt3vZE66gi4EsDnIHETyHiIfXwDaUwC0WRo7A+ifQDeB1k7uJKeP72lApXY+ffckm8IxDxdzCkp4wx6saWuzl9yafn3AEzwOJIvVNct3CfRsuADtxcmwjTv/SUAAM+tjV/RKaLUF6LpYJEnmB7bmX421fcrCn8A4wYB7fOBkZ/O9aW6LjqPGV9wY60BIfx3qmXe7j0Gkru1yoCfuaRtZy+mGip7CISj3wfzN4Z+5B4JA3R1sqVheX/fLK5E2odaOHgXMjt8FZCbkrdrEjMaeAOMb+EU+v1Ifjg4OzYBnXwPzDQ6rIDim5Ir5j/kxmI9Scl9AO4LhKLHKMJiBjwrAQAAEM4iTQuSrQ1f8VRn0BjEdhjXJVd9473BHtD22I2bAuHoHQRc53Esfmb/VwH8l5uLjp+5uBrakZmOx2YsuIj5ZBEhxvPvP7Fgp2tIckbqyeDKwIcAJnmsfnD1jKYjE6saX81nkcDM5mNZ4ya3ghqAFcnqSf/d/7domoBrIACw0+1/SkKoL1UbPvgkSAn1I2RR7Dc2iKU6FP02A/9uSr/AYSa6LtVS/4uBHlBcifRUeg3WhmXkLGMfJnm+IwdUQGMqbcxrjU7+BYBPuBNQzqwmxfMSK+Z79sGdijf8HZFIXTBe9V0Q/T+vdHr4crAuujLZ0nC7xzq7E4korITUIJbHc3mY30HU8eFaeF5uwnMxZekPhjzBGAZ+JzMdJDYIQXxnrCrUdCCkPImpnxuFSEQj3PxniWNt7VPnARhxIl0bunWcozPLkN3s8Qh6rzuDL2H5hQNZlQpdh+mVjY9emxr6cS6rKiV1+tPLOxvi130kqthDdSj2FSb+ngntEbINQAZCm2wMujHVUj/o7IviSqQt+ZH1bxb/UBougXDsMwBfICjJYHw3WTvpe4NcONwjEtFJ4D+C4WgKwI881WI0V9ctfNCLUoPBCLRUHw2f9t5XGQB0bg4TG1Y1vBkMRR8G4SyPI5pcXdl5bgJwzQ2CIDRBDll/ZSmtXkj5pMo6wDzg8/sDAM8Tacpatv7vSH9eU+bH8HaTIc2gL21+ZF6/E/Zqzlo0WWf0fh7q98GMr7KUbed2PQM3rwBQHW4+BeAfm9AeBAfASyA8zcAzStNbRPq98k797k4nSXOW+SZ0vF9JDlX5tO9QYj2VmaaCMA1unSwxfy8VbxjS2MIm0pbCYk6klBLcJLUbQEAXgy9JxuePqAQlH5KtDQuDddHpYHzRQ5kJmn03Aqj3UGM3yO9M89AJbieYfDlfhFjRImL2OpEGa1wDFxNpEEk1Pn24w19ZDmI9TaovlaH7fb0kOypaghM6UwACHocwfXzolppN8RvahvuDwXD0agYu8SKoXoh4QbJl3oDWlzrNnxJr/TbVaChk27kdA/XRNac3TdKgeyDVNDoI2esw/sLMf8wg80BO743lFzodQBLZP+8A6GkCZKquW3SSZv4cAV/ASG86CdFk6/z/yOWho60u11LkBNoC88EylmkEdGnQBclW+SS6F631N5G1z/MMAr42cdZte3mpsRsslvilx3amn831wakZyb8i+6HrLYQza8LN7uwaRiIKECqTMTWiWO71sr5nmuHuPDM3TTLDe3yl5D9nuD8UCEWPAdDkQTx9oLsTLfMXD/oQybHZ5MgPYsmOcpey7QRgYODM7FiZ9qt7IFVONTD/BFFjN6f3TbY2fDEVn//rkdxg7gxxoqV+Taq14VvJ1oYjlEIdgN8jWw6SK79IttQ35vpgm0hbCoaaU28aT8C35RT56lRr/V/l9HanPd64lr2/eJd3Z7q97e7fFRK72D63a+PYoEQiGoRB691cgrRL9baBluqj4b3bSBaSL+s4MHR7OQjHiYjx4PX0zDLDWZhoWDZ4E2fdPJYUlgEY41FIAPAGynH1kI9iLfXe7kie0ZFXU+ZI8GstZ9uZZVtbbeJFQT0Eu/gmGO03o/fA+Fqyo/ywZEt9c/7J88C0rWhoTbY2fFGzPoyA2wgYYHDXdpYlayZdDVDO5+I2kbYUDFxSfjmkEgZwrO+4W5ModrEEYADI2/KRnagKNVWBpRpFh19DqbX+GYAtHgSzK1dMnHVz3ladkoNYWMsfMW+kzVPg7UCR7fAQR+g++B6AhCsU49OYHcv5SD2dLr0VjCM9jGgL4HwheX99x6CPmrK0BKATPYyjL0YGsZDcjUIWxtNYHvH0VLIvNTOjYTDmSentQpqA/y0p6ToyGW/4mZsN2UPRHm9cm2htuJaZDiXGvQM87K/JjvJLh9srZRNpS4HAxIRrRaQIb5aPqygYq5+MVquGflR+EHBazwhmz1FQ0yD02cKkhp34tccb2wG604t4dqEq3V1ysQvrSF3Y0xXjy3Muk3ELIsmJjYPvuG+IX7eZGA8LRDIu2JWbBWZ1KPYVAF/2MhgiXJNsXfDykLFUbTsenrqF9MVMo6GgbWePntzzDM6OTdAapmYzvK5Zn5xobbhx/YPflNjI6JdkvP79RLzhs0S4HMB2dzFmtI7pdOaMJLm3ibSlIKgOx+oAHCUixvzv6+6dWzAjvTeuun4thle/NWwYKOssIxnnB8EaSp2hEV6EMlFIGOESXZ//GkK/T8bzRt4Xcg4J6YoxZc8M9SBW3p8QAQDnMOWwdkb0MCaOeRoH0+JES8MdOT1YK7nTkWE0EbuGaD9CFsLwNwNGTCc3AThATK8HAn7jY//U9njj89LaA5FoabiDfTiWQXEAq33pzvOHVSbYB5tIWwoC7fGOSx/+nmxtuEdIK0eIkR1B7imalMyRLEt1vPPHu44uzpVk64KXCfD8JADA8dV1sREPGpEskxmq7MFDhBJpfiGXG4U0+f4Mj29sAYCIP4tBrG0ODN1e7viwDN765a5JVeQ+0ZEhVvbATklafEBJTz+CjG1nL5QReZ7BcPPZyE7XFYb/K9Faf9mG+HWb5bUHJ/Vww7upM5Izfew/s+2xG0d8DbaJtMU8kYgi8NkSUgT66XCaCATxfuw9s4D3KxOEdnSYVE6DWAb8efAit2IZXEdfM9KfVUSnQOpz2kCjYeDM6P4A9pHQYs5t52/TiusTDHrU63gA7B+YGf3kQN/soE0xAMd7qJ/UrC/C/fVDNV/1Qazs4fWOvy1ICmltR7IfoYd/inj8z1nmA+gWz3V2hplwTbJ1/ncK9JqbJRLR+Sb5NpG2GKdmZeAEgCTs2Zxu7paojR0WgTOXVkKg2YqIar3WCM5cdCS89+HNkmdjXLJm8h8B/NOlaAaG6aIeS63hI+cfnUeZzMghR9JKLXdrP+WmB/hgOk7/7h3BcPRCgL/mobQY/sJlAAAgAElEQVQG45IBrQD7ocdC8yDvQtoJMzaM0k4WJPM8g4l1VwI4RkKrl+xEwIZCG/biCTaRthiHiWYLCa3x0mZnpJDuPFpChz32qwYAOIIOE/mWIiy/0CHwT1wKZzAqSti5YkQ/yVI7gCMvk8kTuXp6X/+DWPqDGfdAoIaeafc66drQwkMB/NRbYfxXMt7wwHB+JNPd+SmvwukHQ42Gwom0gEvOxFk3jwVTxGudnWBuTrXWDzkRcLRgE2mLeZjPFJFR3CKhM1wYOFZIx/tGMiV29JspYd+QjWND0c2ZnwDodCGeQSHG13samYYBE8Ajrq8enlJ+ZTJ5IFdP/3BjzoN4kvH69wHO+/WVAyfVhm7de/u/ZsfKMuS/G97agK5I1k763rB/Su69DXaEB5RA2rYzCw3hIuMG6XTZNyA6eIUfS6L9m3J65rGJtMU4UokkQEPaO5mAmEISOgr0huciQhPqGPSiG80rPScUd7sQ0qAwcEhwZdWwRpNXz2g+AkVSJjMiZsfKCDhBQoox/ISFZMo7lIP0Z3r/EdiGWwjsYVMwvZfm9MXD9ckFIHg6gk2piRNfEdLajqRtJ5CdrJsowwteatScetN4gBd4qbELCbC6GPGI5826hYR/0O+u4TPAuAjAQeAhHmvZcyB0gXAHTqa8E5Ca05smaaFkQQFvS+gMi0hE0UquE+nEIPq7l8sHZ8cmoJO9HBqxHeWix6x2KKp87LlrDIOuAfC3nB/v802XcOgDAFZafAcw2O2cyFA5DyXJCx7Bzp/Df4CP/seDaHaiZ8rhzwN1sfOI+ToPpdIM+tKIytvmLPNx24dTPIipP9aMKNHPF4VpQm83AAADzwyv0XP46NKyqyDqQkL/mj3N2bMYODlezT8E48bt/5YcmGkpfBjHwYWdPKfUdyhpmU+vDJAQERoG1SsDYQY8bwIEsK1iW9rbZKlbnwKQkMOEezuo7avqnwuGYk+A2NPddALOrQo1HTiMBi+xMpkyf1qijGFntGCpwAheL4lVja8Gw9HXABzhQUjbIWBWdWjREcz6l/DwSkuMxmR83mMj+dmq9R8dCx/GuR1Tv3DuTaHu6kqVGfXgtUvOnGU+tH2Yv4997jyabJ13O1AvKFkY9H/Re5KvBvok0RbLrjDiLq1T5co6OVCqfcamKQ0EA5cJST0yUrP5nBEc1qAy7pYiMPFiN9cbAB8pdVXOjyYWSTQZ9KKZSWNKZkAQkCkr6Xp6JD9IjD+6HUw/VDA5KwEEPVMg3JWIN9w64h/3yzXhMSDuHy1p27kdj8upghs++jyAg73U6ANrh+oL2ubOQ3ZPpJ/i2SCM+A1n2WPIbRLWUGhPm2p2oltrodG2udHTZHSRkFzOJQUjhsWGNSQ2rKp/y80FUx3lywF47ueqGFdjdmzIcoaaU28aDxaa9AlDO4CAiAtEXjcKikRs8Dy2/3wDZTQ3rxXY29OavkoZZMTr9UVtO3fg7fMkbvR0/Z3gP7Svqn9OTq+w2DmRfoqPgcZvMVTttGXPhrAO72KFG0spsNhrzV/i1Ehp5YJD6X8HUC6k5nEizQQiEYcJIjzh+s7HM3PTIPzM1TX7gYHawDb+/JCPKy0/GYDP63iyYu7Vm+dKzVmLJgMSA4KAfG4UEi3zngLoPTejEWYL4HwheX99Rz6LkJwt3JtGLEoFbTuz0Hte1hJXhxYdAaEbVQDMCt8V0ipIdiTSj/JkaNwH6fGYluKD8WtcSK40gzCx2NhQ1mrAKWLSBGYs+iSyzWcSPJlsXeCpY0l1aPEnAIxs6Mhw8ehIVKX1Ugh4bRNh6P93yUEsSt5qTKdZzpM4rxsFYgb/2b1gZCHCNfm+98fPXFwNxqFuxTQYDPmhQABErf168PR5Mjlf8nL9XViRWjH/RUG9giObSD/NY1CCPwIQ2iGwFDUOfu3aWgp57ZQMDz5HTmtgakO3jiOfvgNAiYQeMwnU/8rU8wJwtdGwL22PNH4I8O+9WHsXZmRvpAaGWez32baxZV7O/squoQQHseR5oyA15dBtmGlxoqUh7xI8v5OZDim7AY/e20MiZNvZR9Dj50kXe7t+X3iPmF44GArMCg7uhHShvaU4ITyLT9FLrq2n9TrX1hqa8yvPbJJqvuifKUtLNDJ3AjhOSPGjVG1yudciTGL10ZrL6SnPVle8yLO1+8r49NcH/i4TAJFGPGIPymRyQa6ePu8bhQSnVgIouImoQ7AmVYEbXFlJchCLduRtGGfHJgAytp3b8dBusroudjKAw71afxc+SnZUFO2JjVsorMHNAM43HYilSNBodnO5ZE3HmwCkzNv9yvE1CWntzuxYWWBC5/L+xgJ7yBIsj3g/GhxiOzp/z7feczCSKxqfAMO7RL0HBi7PXsB3p3ZG7FAAMvX8BPlGwylLSwDycOjIDly5UYhHMgy6z6WQJEhq1he55VFMLHZ6sKUdGz31uu+Xbn0KhAexTHCqPGvMY63FyjoY+D2emZuW0itU/ADOQNb1f9ejmy0QqBfMkQ4A8gbt/ZMyHUAPGoyNYmqE9QB+h2nkrh3U8kg3wtG34LFXay8E/mww3NyYbJ0vmlAHZ/xoP3Ty7wCINOT18KGP/Z4/z5pTbxqvgaO91unB86NfAi1h8O0ey4zjTn0pgCW7fkP7eLrYSbqSP0qvruw6gRkyDjou3Sgodv7ApC53Yy2P0WBcMgyv8sGJRBRWypxWM2ONkYl4WokNPgIABp5bG7+i0zMBRZ+Rejo+1r+TUSps/DiFppoOwrKnww8CJJJIZ6FbquuimURLg8AxPlMwFPsqCDcDcp7ZAEDgf3NjjPZQiDpMCNRQJirw22An3+SxJRkIdB3At+2+Y0pS/soOOX7Pd993hTVPlxrw5daNQkUX/21rObYAGOvGep7B+K9kvOEBt5YLtFQfDZ+WsSg1Vh+tp4EEJ8556JITODO6Pxwc5tX6fSFgQ1vtPo9IaBU6YscZFsuAUP6jxoeJYkYsUBf7Q1Wo6UAvBPadvrAiGI5eHayLvQzCTyGcRAO4L9E6/1ciSnJHv6CM9v5ie399F4N+7rkOcFRg5qLTdvsqiU1Ye0niRms35BoNXbtReP+JBdvAeNCNtTxkRbJ20vfcXJB8crZwPs8b8PpDzrazD549T3LoTK/W3hUGtRgZ5V6A2ETaYpxkS/0TBLwtrUvMn1OkXg+Goz8LhmLTepq8Rkw2eW4+OxhqbtpW7vsngKVgyDaxZPlIZXTuE/TyRS4xak/UbXxdQkiRcysAz2v/SOudrPAmn7d0DDNEbBqJTe0Air1eXL1RIFXI7h30XprTF3uQ2IjdJCslP9FQ1LazB/Z7NxqcwDO9WntXmDgupVXo2MErlgKAGBT9LhgyO6g7UwrgqyD+ajAc+wiIrSTC35n1q4B+zcdlCVW6ddP2yWhzIqUTOiaMK+tCUKuS/bXmw4j4cADHbQVOBVAOkqy42420Bl2cfKTxQxk5JnBMqhThSUQiWkIo0bLgg2A4+mcAF3irRBfsNbN54scr5q8HgK2bu05SUp/LJD/RcK+ZzRMzGgdKaBHcbaR0tL5XkepG9jOjkEgz6EueDDIhTJP4MCPg7d73gCyCtp1Z1qUebnjXm6WZGLGwN2vvjo+5VUqr0LGJtKUgSFRPujPY9tGNAEs1rfXH3gBfxIyLss1ePjiUgZMuRTAcZQAZtGW9nx0CwFq0tC4HmMBXtbc2rJQSrJ0RO9QBakXEhHdQNWiRAnucSKPUcegqAP8DAEQ8XeoujJRffEfaYZIbxOJyqUB7vLE9GI6uAiB2fJ4LxGhMxuc95va6VaGmKjA+4fa6/WLCPQYAk9jo8148e56VZzYfBEdN8mr9XUi1tTa8AcwXkitsbGmHpTBYfqED4qshZ4U3XAhCA1RGCIPRKFYX3UPWYUIIkq2hbG+tXwnA84ldTDQXc5ZlmzXlyh4SbSuue1NIaweC9fTKcf8IncEFVt5BdyfiDbd6sbKCmgapHMGjaaU5ILsj7WFDpV8rqdkEYMbzRvznCxSbSFsKhmRLw+PEiJiOowjRIJ6bjDdE5aXFhjWwky5dI6TVF0+SlJ3h/Wra1n0GAEhoEAuAJ01cCJnFGikTG1bVv+X2oj6/748wWrm1E6+jHFd7trrg9Eky4NhRc+pN4yFn2wkAYA9vGFjjWK/W3hUCvyClVQzYRNpSUCRCqR8wuexVPbpJM9GlyZb5PzWiTmIX21c3PnqtuId7+bjyXwNIeq2jQddUzlh0EIC9vdYCACKS3wGcsrQEhCkSUkTeTGxse2jeOgAmbuh2ZTMUfcHL4URgsZvkbW0d5Z6f/OyKqG1nlnTF+PJnPVudZJqUe5AfnFPA2ETaUlhEIjpVnbwIzPebDqUISEDxZ1It9b81IT5x1s1jpRwmIDCIpT/W3Tt3K4i8Hs4CAGf7lJYb+MHyjYY1EzqPBTBGRMzLnT8m4+UdRLg2uaL+Fe8UmACWsoV7ysh0PMEyox6959fdO3erd8uTWGkHEa2V0ioGbCJtKTyWR7pVie8qAPIet8XD85r11OSK+Q+ZCqArXTYVcg3L4tZYvTjKWQLAa7cQAuHfPNboRXM5yQ9ikWzsUsqzGwW/5nu8WjsXGFiUaGm4w0uN6hnNRwAIeKnRCxlwjwEAlvNrz+Lh8zwwdHs5gQ/2av3dYPWBmFYRYBNpS8FRU9d0os7oRwGMMx1LgXJ7+bjyU10bAzxCfGAxBwZ2vEuMhmLjw43vEOOvAlLlAhoA4WVPSwIGQq5UQHMZP+3V4htWNbwJwMPd4EFZk6pJ3eC1CPt8ckmmNjSIRa4foUdRefY8U/72yRDM5xTU+1JaxYC1v7MUFNXh5ss101JIJRXFxQcMmptqrZdI6oZEg6aRTN/VptTEiaYSFwAAK1oM5vNMxuAabMhqDGI7gH/3/EaB+R4QHeWpxu4kNeuLsDzSLaAl566CUvFEuse2s0ZSU2e860tQGTUZclas2shE1ALG7khbCoZgOPafDPolbBK9Kwzg5+wrP7pQkmgAILDUjs5q06Noky3zHgLwmskYXMOAQ8LEWbftBUDo6Nn7UgGlxG3wNBiXiJ1CkdigkrUb4td9JKS1HVHbTgAAf7xx1bx/eLU6ESZ7tXY/eFbnXazYRNpinjnLfMFw9OcAfxcQvK8uDlYo4KRka8NVqYfnbjQdTC+VZzYdDGCiiBibOPrdFWIiFrDC8x7S8mUyTrpLzkqNvTtC76WtpfFZAJ4lRrtD303GGx6QUKo59abxYAjttpupjxa07QQAMKnHvVyfQCJuPz10CWoVBba0Yzis4b3BuBzAwaA9IOHTWA8/YphK7o+e7SUU8Qfb1v0KoC95plGEEOE5DfXtVMu8gnQvURnfdCkbYi9rC4cDdXX9H5eWfw9ApelY8qA9EUq8gbisKDNNl/rEJNIyyRnhz2A0CCitSNbs/T8COgAALqk4BWARWziCmfe2YJlRFo8Hzmjw3oIJiYzzThFhE+lceZLDYNwDoApA4VjyewkBcHAwgEs9WX/K0pIgdf0G4DmerF98OAD/STEvamttjJsOZgjEBrFkuNuYY0df2h67cVMgHP0VAfNMx5IHTyIS8dqBZDc0idXTJ6VGF2umPyiwx4k0vZfm7otFS5sUpold35TQTU8fJs66eWw6jWMkNdnj50nMFSCxVLoCU5aWGLEsLFBsaUcuPM5BEO5GbxK9Z+FRXSNTYELnz20SDQBYC+bvafIdkmydf0FbvOCTaJCUlRnhrU3xG7w7ERkmfgeL4L0VnnewAT/uOct8BJ4qpCY2sbG9Zu9HCdjgoUQaxBdLv/6ZxeqjOxPBdvEJeU63/yTIbiJmyvzpZ7wUYCLJwTKoCXbXSuoVOjaRzgUfbgKwp75wPvZi0WA49iMCLnNxyW4CfgOg3cU1vaQNhJ9p4jOSrfUHJ+Pz/6O95fp/mg4qF/advrACkBlHy0zGbO/6I2t9Rsa8u/NGyf8+q9Z/dCzkrCzlbhSWX+gwcK9XyzN4frKlwdPa2n5UBW3h+BkhB5KdVUmJlnUw6MX1D35zi5caSnZCI6D1J0T1ChybSA/FU3wygCtNh2EQ1zuqg+HoAgCNLi6ZJtYXJVobLh3T6Uxm4BIi/AXANhc13OBFBn7AUKclaybtnWxp+Fp7y/xVUjtobrFljH8qgBIRMQMOE0PBrBebjmGEsNPtFx/EQn45KzUSvvFi9si9g3BXqnX+Ek/WHoTaGbFDIWULZ+gmWQs3Gko0VLJQTft2PUeqGbU4sDXSg9HKfmgsxZ58w0FY7+Zywbrop8D4oZtrgvmmRLzxjwDw/hMLtgG4E8Cdk89bOmbblq6ZxPrMni7tEyCUABLQxcDzAB4n1qu6HN9jmx+p9/IYWA4tZx3FmcJLpFPxhr8Gw7E3ABxuOpbhQa9sfPTalLis3Chmrf1lojcKlah8eBNtvMnNNTUrx699P3BzzZy1/YL10SAjvQ+Ctp1ZCsJ1yF2YEAYwKlyM3MAm0oMxBo0AjjcdhmFcS6THz1xcDa3vAtjFZJbeKx9f3u9FZ929c7cie/R6L5AtSegsKznaIX04AUcwcCAx9gZhEgETefjlO90EvMfAWgBrCXgbrF9VWr28YeKkd0x7H3sFMaYJOTBsaVfJl0SUhgUxEF0K4EemIxkeZi7oRDxdJDkjvCxtEbk2fkUnIDba3XtYzs2CVEZ8R7qyLnYImGVsO3vQHo6r74WhEkLNvL2cjdmxMtxfb63wYBPpgVnD+4Hxn6bDKABcK+0oZaeZgf3cWg8AGPqHPQnzkPTsVj/d82d3piwtqa7cspfWvoCPUMZMAQ1dTlDl1Ft7TXqTYp1wKvwfGxmzXAiQTA0lg55CPJKR0BoumvUvFKn/AjDWdCw5Y6DRMHvz7BwqIsbeTY7bYyCxHel3Ey0LPhBR6oPSYpsAvbRtbJn3DlDvqQgxfyz8vMYFtvHnU8BdoqoFik2kB0KjGSTWIFO4OHDlwy4Yik1j5kvcWKsPyYpxFb907az6mbnpBPAB4M5zHo1UhZoOBGSmaKkCPhJtjze2B8PNvwZorulYcoYc8R1Av5OZDhLy5SJTwz1GBz22cJ8UkjP13hatjybGExI9MKzoY2LZVhsi/BvAdxdbj48X7Lm1v0NBONF0CMZhrEEJnnVhIQJxFO5PLfxdrrvRFncgKLkLUQE2Gu6EUjEUj6N8R/KMjlfFVZVcYxdldGG/XgocUVs4MtNoKGbbuV0QIs9TgVztZcqR46rDUTedt4oWuyM9EFtxGMZgP6hhJn8OAnnpKlTlNTXRQSUorxukCWD4AKzHeNyPoylv0/VA3eJPg3FyvuvsCjN7Zj1l6R8SHNag2F8Qg1gGIrmi/pVAKBqnbONNoWNkEAvJNRq2J+o2vo5VQmqjEEepaWJ7ix5P+uuPfacvrNgqZNvZCymZ5+nozDuK5PdFGdQcDMVakvH698XFCwibSA9EmDIA/mE6jNEAsfakQIyVvwAb0UY5cs1I/9gQv85160W3UUSLGVwEibSBMplIRGElThJSM3KjMKoQuukhoCtRgecktPqyZYx/Kmk3G92HxCFHxm6yPd64NhiOJgBUS+j1IQDF91WetuQMI45AOVB52pKAb3zG8bKnyZZ2WDyldkb0MACzPFhat89oe8+DdS0DMTtWRsBxElIEmSPRfEnU7P0nZF1bChsDnr2BR6qOATBBRMzExMZRBgkNYmGmZ424PQjadvbw0ob4dZvF1NiNMswR6X7S50//reb0pklG9AegNrTw0EA4uthXkn4P2/TXvNSyibTFU7SfLoI3rzMVeHTSeA/WtQxAoJOmMlAmIlbo9dG9LL/QYcJS02EMAWfKnDXiqo7gBDkDExtHE5UzFh0EYG8RMUNNoYJlRlk94c0AAjwdQz6E+Enar56uCsfOMBYDAIQi/kCo+dxAOPpHh3yvE3AdgLEg8nSonk2kLZ7CrD/t1drK2XaEV2tbdofYEWw0LFzHjl3J6PTPUHhTNPvyesffFiSlRUlpqdeLkYmNownl03I3Pabe20K2nTuQfZ5k3rVmsgK3BsLRXwVn/MhVm9uhqArHjguGowuDFHifiO4l4HzsnN8eFayLfsorfVsjbfGMytOWBIC0dx9eTF8BUNANaaMKRVKNhp2JYPsLIkousCl+Q1swHL0LwBWmYxkAMxdYlnLsMDSxcXQhd5OcccQTaUnbzl5I+UWfZ3mnfmhruW8zYNS2lwi4DD7/xcG66O+V1kvbavd5xP3hZEw14diJGjgHwBcBHrqJlHElgMfdjSOLTaQtnqFKnWlg715jTLgyOLPpV8kVjabvxPcM5I5Gn8bySLeQlito1jFFqlATaROJSxWkRqib34kregSnla5LrvqGeG+LqG1nlkTbiuveBK4XE3z/iQXbguHYXwG+SEx0YErAuFiTujjY9mGCwtEHwHiCffpZ1dn997bHbtyU60KTz1s6Jr2xcx/28ZEadBzAxwOxT+nhlyJdVBu6db4Xdes2kbZ4B/MxHiuUQqvfB0LRC1Pxhkc91tqj6Tmq21dErAgbx9rjjc8Hw9HHAXh2fDhS2PF+RPGukPJPB2uZ0kFdPGVAhciBodvLO6hDpIkY5M2O4JCyxNPdH2MwKE8aGVTC+B0IhZBI96WagUtAuARaQZeWIxiObgTofQY2EDgDcAegHDD32v9OQHZnfZ/OzZ2V8AE7/v9G/P84zkH6IgA/z/sZ7YJNpC2eQWCJ0cCTiLAqGGp+gAh3dXPmvk3xG9oEdPcsfP7RX0OZJ8xYRFRwifSm1MSJr0iLZuvphRIXn/yNwmhiI22eQkCpiJixmx65wUAAQGRmXH35+LL7Ojd3poA851l4TyXAlTs+IQgAC3xkqK/CJtKWIqNKSIdANJuB2SVU4gTDzc8B9DITXlPA6yB+P8MqiW5/0tZSjhi5CXVUnBPqUpvKfx+c0PkBgH1Mx9KHNe7XJ+YA03ShPHpj8vTka1ghojUqIdLTxeZzGnBXOTB0e3kHOo4XFWUz5Ubr7p27NRhuXgTQf5rQL3iIpwdnxo5Krqh3dXPBJtIWzyBGBYuepgEAfABNBTCVuGd+MxN8YKAkjWA4ygDakXVZ6ARhCxjdBGxmIL39iAloB5iJOKWZNJg2kmIHjA4Q0gBvVowuZrVVgzt9Sm9NK7Szj9s7ujo6EI9kxJ+5lzBNkzmppPcSLQs+EBByn2fmphGO/QTg75oOZTtGLuhMoJjUIJbVdhBLnsj1PqTHbHOek7aPEd1xz6K5nIy5yGRKddTf7VsAs02HhUu26fAGN5e0ibTFOwg5NxQIQsgee2WPvnpyQ97p2zv+xdwzr317Vt77bYLu+ToB0KzgcwA4QJACQDi6lYAPGfwRgPUM+oCAtQS8rR31zth0+q33n1hQyJZpO5gdK0MnnyAjVtyNYyUlJT/OpLu/Jea3PQRMSnx3PxhuOgrwyZxGUXEM7ilwpBLp50x85hE700CCOzqEl72cojcUHX9bkAyGoz8BsMBUDAUN85cxO/ZtN4cC2UTa4hkMrDcdg0HGMHAIQIcAO0q/GAD5NLb6fDoYjr4F0AvE/AIDz2joJ9vjje3mQu6f4DacAEK5jFpx1kf3sv7Baz6uDkd/B+AS07EA4Ax3y9tDsk+qrAPQxdeYWkj0NBHLlCKZuukhkp1oyOZv7roz9MNSP18OoMZ0LAVITbBTn5sEfu/WgjaRtngGMz9LkjsBxYUCcDjAhzNhTvYLSgfD0dcIWAmmexJIxguiRIS0XMe7Ku5EGgCYaTGICyGRftNI4y2J7XCamdg4mhBsImZzNz2y1ncFMJV18yP1GwLhaAMBvzEdS0HC+CpcTKTtZEOLZ5B2VgKw9Yu5owAcxcA1TPxQkAIfBcPNP66e0XSk2bBkOt4J6JrgVD0noeUlyXj9k2AYn7THMOMcAEAmOSO8ZmJi4yhDLMlk5RPfqRXdce+BdGG4yKRaG+5koj+ajqMgITo7cGZ0f7eWs4m0xTOSq77xHtj20+dBNUBz2adeDoajf60JR6cYikPkYsvAc2vjV3RKaHkNES82HYOJnbHAmUsrARwhIlYAR+hFj9j0SXzY3nL9P4W0diBp25mlPRFKvCGsOSAKmesBWDvY3VHk4MuuLebWQhZLfzCp7wJi5kqjFQJwjgbWBMLRX40P3SJW91Zz1qLJAFy7cx8ULv6yjl4S5epuGO4RYO3ID2LRXadA6rpSpH7jBcOcSClIqInY3JAl6YmGTxaSi0yiZcEHzPg8gKKaFCvElYhEXPmssom0xVNSrfMeA/Ar03GMEhQBl5VQyXOBUPQ0CUGdcSR3dEZPYnR/fRcTfmYwgi3t2Ph3cVXNgjW38p7Eo4nqtqoTAJkmYiZj/1fCO9KF95pMxRseZeAK2DLLXTmwOh6sc2Mhm0hbPKekpPs6AC+YjmMUsS8RWoN1sfmeK8kd/UIr/+hJpAH4fGoJgLQJbWasMdKoKtdo2JGqnfSqkNaohEnJJZnKwE3y7FgZAUK2nT0UQKNhf6RaG+4E4SoA8sOZChQiPAef3ujGWjaRtnjO+ge/uQVM5wIomNqxUYAfzE3BULTBUxUS22E0U0PpIW0PzVsHwp+MiBu5oDMBOFlGCquNTGwcTQgOYqkYU/aMkNZ2gttwgrCfOzvdfuNNxgORbGm4nYALAGw1HYth3mGif0nMSE1NrJjvyv+XTaQtIiTj9e/7HJwLYFQ0kxUMhKZgOHqhJ2tPWVoC0ImerL0bxT2IZSA0eJEJXZ8BP+7qGc1HAAiKiBXozl9xwUKJNL+w7t658skbaemyjlc2PnptSlZzeCRaG/5Ejp4Kwp54mtPGTP+WLKejUi31v3Wzlt0m0hYRguHmsx0fHoZQTd4eBAFYstfM5oluL1xdte14ABVur9sfDPkJfBK0t8xfBQNlTUpBfBAL+5WclRoVhsVYsVJzetMkAAdIaDGbem/LlaVlKY7m18SqxldRRrd9QQkAAAq+SURBVNMYWIQ9o9TjHRA1+th/UCpef5ObEw17sYm0xVMmn7d0TDAc/QVAD0DK/WHPozqt1f+6vqoe5TWUUjBErfAIePvjFfPlHUNYbIIcZ4jsIJY8YL9P7r1Npk6bpCcaFs+pWvL++o5Ua0O9In0yIH/TLQAzKE6ELyTPSB2WbKlv3hC/brNXYjaRtnhGbWjhoZ2bO59AtmPY4iEE/lJ13UJXBw8w9KiuoZRiTJfzGwAJMUFjo5ilSgXwxqYV18v9Pkchgu9taJ8Wv0nO2nbyfqKiJP8886WtpfHZ5BmpTxHjKwC9bDoeF/iAQd/3OfhEqrU+nGhp+IOEHaFNpC2eEAw3n+2Qbw2AY03HsodQwqyudndJqR0dQzWUQrz/xIJtAP9CTNDAKOaaU28aD8ZRImLGdjhHEWJuPPzxxocb35HR2oGwbScAdCTP6CjOuuNIRCfiDf+XbJ33SRCdDeABFNXsB/4YwC+Y1DnJmkkHpFrrv71hVcObkhH4JcUsewaBUPRiZL2jS0zHskdB9HkA33FjqcrTlgSAtAbg+UWQif7mtYZpHMd3m8+nLxDRgn5MQqcvXFp2FAAR1xUCtUjojFoiEYWVCEDgvQ1Q3HuN3WGogwkslsBTgQ1iGRnEyRY8CODBmnDzJxi4gEHnA5iKwtt0fZFBfyHGvclQao3p3z2ZFLeMPgJ10a8T41YU3htvT4BVRu/T9kjjh6YDsVgsFkvxU3N60yRdQueC1VkATwVwkHAI7QCtBvRqBq3OKN/qQivtsom0xTV6kujbXF62nYEfEDALwAzYXe4h4C8mW+f/3nQUFovFYhl9TDh7YdCfUVOYaYpifJIZ+4GwDwH75Onb3QnCP8B4hxgvMfh5RXi+rbXhDYAKutTEJtIWVwjWNc8B028B+FxcNk3A7ERrwwoA2Hf6wootY/xTFevjGOpAgA8AY39kbZxct38rRgjUkGitj5mOw2KxWCx7FhNn3bZXt9O1t3LUXuzTBEYVNBSIKvs+jhhdTLxZMScc7U/4ONNWzCepNpG25E113aI6sL7P9SlSxFcnW+b/NNeHV562JKDK0+ORwQTy6fHQNAGECQCqoDEBisYTuBxMxEBVH6FK9JaisB4Hot5d7zHY8ZzKev4NAGORHTxRcLvjDPwg1drwLdNxWCwWi8WyJ2CbDS15UXN60yTNzm8BcjWJJuA3iWEk0QDQM1VKbLJUbejWcY7P2R+sj4bGsSB8GqApMHiDSswiA1QsFovFYrHYRNqSD5GI0ivp1wDt5eayDHpLdW+7xs01vaDH4P2Vnj/LAfxHMBTbFwrzwfx1ZHeuZSHaJK5psVgsFsseinVWsIyY6pWBGwGqc3tdBb6h7bEbizIhTMbr30+21N8ApiNgYmIUoUNc02KxWCyWPRSbSFtGRHDGj/Zj4D9cX5jxVKK1/s+urytMMl7/PvvKz4aQt24vxPyxpJ7FYrFYLHsyNpG2jAjy+78PwPV6XCZECt3qJldSD8/dyEw/kNSk0THm1WKxWCyWosAm0pZhUxNaNJUZl7i9LgEbUjWTRtmUO5acMueUjisvzjG1FovFYrEUITaRtgwbTfqb8MCZgoE/Y/mFjtvrmqRifLnYmFoAb6+7d+5WQT2LxWKxWPZobCJtGRZ7zWyeCOBzXqzNwD1erGuS7vatlUM/yi24VU7LYrFYLBaLTaQtwyLNdAWAUi/WznB6jRfrmoRLfPsJyj0kqGWxWCwWyx6PTaQtw4KAf/Fo6Y82xW9o82htY2jGGUJSjmZeIaRlsVgsFosFNpG2DIPa0K17g3GMR8u3e7SuQZgIfKmQ2N/a442j8HdosVgsFkvhYhNpS85klBOGV+OvCaPC8q4vgbpF5wI4VkKLiX4soWOxWCwWi2UHNpG25Awxwp4tzjgQkcioeT3Whm4dR8wxIbl/pqr3vk9Iy2KxWCwWSw+jJnGxCOBdWQcAVAQeCZ7q4fpyRCIqo5w7ABwoIUeghaPNNtBisVgslmLAJtKW3CE+3NP1NX/D0/UlCEX8gZWBXxKzJxaB/fBGoqPsNiEti8VisVgsfbCJtCUnxs9cXA2g2ksNAs4PhJqlmvNcZ6+ZzRODFHiAgMukNJnoBjwzNy2lZ7FYLBaLZQc2kbbkRCnrQyR0FNHPgnWxWRJa7sEUCDVfmtH0AoCZUqpE+Euqpf5eKT2LxWKxWCw7YxNpS06QdsZI6DBQBua/VNdF5wHsjUOIazAFQ9FPB8OxJ4joDgATBcXXdaXpSkE9i8VisVgsu1DgiYqlUKiZGQ1rjRZh2TUEfCvRWt8CUMHY41XWxQ5RGl8k4isBeFs33j+OUjirbUWDHQlusVgsFotBbCJtyYmqUNPxitRzhuRfIcadGvhTKpR6BZGIlpNmqqxbdLDSmAZgGhGfCeAIOf3dIfC3E63zv28yBovFYrFYLDaRtuRI5WlLAr6SdNJ0HAA2gfE8FJ4F8AI0PmQfr/N184a2vff5eLg2cONnLq4ugZ5ITHtrzZOI9F4gtQ8x783gTwB0JICx3jyVEUD4WbKl4Wumw7BYLBaLxWITacswCIZj7wK8n+k4BkED2Njz93YADKAbQGnP1yqR7QsoAyBS8+0yDyQ5dR7ikYzpQCwWi8VisQB+0wFYigl+CEAhN7gpAIGevwcGe2DxwS0+Lpljk2iLxWKxWAoH69phGQa8zHQEeya0PFmuztkQv26z6UgsFovFYrHswCbSlpxJtjY8CNDLpuPYk2Cmxckzkhfj/vou07FYLBaLxWLZGVsjbRkWwXDz2QA9YDqOPYDNxDQvEa//pelALBaLxWKx9I/PdACW4mLb2gfeHnPg7L1BmGo6ltEKg571Kd+sROu8FaZjsVgsFovFMjC2tMMybMZjQiMRTHlKj2a6GfT9VE1yetuK698wHYzFYrFYLJbBsaUdlhFReWbTwT5HPQJgsulYRgn3+RzM37Cq4U3TgVgsFovFYskNm0hbRkztjOhhjg8tAPY1HUsR8zoTfTPVUn+v6UAsFovFYrEMD5tIW/Kisi52iI/5PgCHm46lqCC8xBrfT9VOWj7caYwWi8VisVgKA5tIW/Km5tSbxnNZ+RJmXGo6liJgNbH+YSI+/08AselgLBaLxWKxjBybSFtcIxBqvpSI/hfAJNOxFBgJEH7NxL9IrZj/oulgLBaLxWKxuINNpC2uMnHWzWPT6bJvAPxNAONMx2OQrQw89P/bu39X2uM4juPP99cJOUh+DiSDumy6g0lRZFE2g9FiU/IX2Fn8BTbDvZNYb938yGJwduUknZJ8D0rC93zeBjeDyeD4uLwe03f69Ppuz+FTH4ONtN429aCKiIjI16OQlqpoGlttz1ntHDBveH/sPR+kBGy7+1b+Pvw5O1i6iz1IREREqkchLVXm1jq+NkGwWWAaaIu96B2VwHbNfL8Swu7V38WC7j2LiIh8Hwpp+Tgzv2raLs9H3cMUMAL8BHKRV73VNVAAPzKzwyxL9q53Fk5ijxIREZF4FNISTdfkSr5SqR0OwYfABnAGMf8B1hlpkgMl8KJhRTeODQpZlhwpmkVEROQ1hbR8On1j6/W3lHseLdddY96L0xOgO3F6AzSa0YzRgFMHtAB1QJ7nEL76d8zLt2PB8BSsDCE1rOzuKUZqnpSBs4SseNFxc8rv5YcY/ywiIiL/nyfZjN/lfTww6gAAAABJRU5ErkJggg==;perimeterSpacing=1;strokeWidth=1;imageBackground=#ffffff;fontFamily=Manrope;fontSource=https%3A%2F%2Ffonts.googleapis.com%2Fcss%3Ffamily%3DManrope;" parent="1" vertex="1">
          <mxGeometry x="167" y="-220" width="68.56" height="16.24" as="geometry" />
        </mxCell>
        <mxCell id="OBkcXNZdzhIq3iiDm8Ts-71" value="" style="shape=image;verticalLabelPosition=bottom;labelBackgroundColor=#ffffff;verticalAlign=top;aspect=fixed;imageAspect=0;image=data:image/png,iVBORw0KGgoAAAANSUhEUgAAAtIAAACrCAYAAABL2HuKAAAACXBIWXMAAC4jAAAuIwF4pT92AAAAGXRFWHRTb2Z0d2FyZQB3d3cuaW5rc2NhcGUub3Jnm+48GgAAIABJREFUeJzsnXl4m9WV/7/nSt6y2ZJtQsK+lq1sCZAUCJIDoaFQ2tIAHZYWSklZYscpHWba30zVmU5bBhpbSghNNzqlpZC0dKEFCsRWwpqwQ9mXpiyBEEtynM229N7z+0N24iReZOt9z5Wc+3mePE9iy/d75Eh6z3vvOd9DsFgsFsPsO31hxdZyXzuAUilNBm5NtTZcL6UnSTAUvQqEn8qo8aeTrfP/JqOVpSrUdLwi9ZykZi/E6shEfN5rJrSLgkhEBVcGHgQw04D648nWhlOlRQN10X8jxg+k9IjwXKKl4UQpPcvgKNMBWCwWy5Yx/qkQTKIBgIDLg7NjEyQ1xSBME1JiJ126RkhrO6R806U1e9GkP2tKuxgIrgxEYCaJBoieMKLLYu+3Xj0zz9PSLzaRtlgs5tHCF6Is47mL/8WArgAk8/skvLbx0WtTIlp9kU5c+kDAeaa0C52aUFMIwLeMBaDxpAlZAk4RFjTyPC39YxNpi8ViHII2khgR06gr7cjusvORImKGdsYIbCyRBjB9fOiWGoP6BcnEWbftpUndCcBnMAzxBLPyzKaDAewtqakyNpEuJGwibbFYCgCS3dHZDh8dCEVPM6PtEV2YBqnPdmLxC/r4mYurARwmrdsHX6kqmW1Qv/CIRFS6u/vXACYZjGJdMl7/vrSocpT0TV1iw6r6t4Q1LYNgE2mLxWKUqrrFBwDYx5S+IlxjStsTBMseWMvXpPq1ngaApHX7wky2vKMP1auC3wLhLLNR0GNGZJlE6/WJ8ARALKlpGRybSFssFqOQdow1jgEAA1/ca2bzRJMxuAqLlclsStVOelVIazsk9/wGgWdjdqzMdBSFQGBm7HRm/o7pOAD50xEAIBJ+PRqqA7cMjE2kLRaLUUiZaxzrodTR+KrhGFyCCUQnC4mtxvILHSGtHZDsDuAAjAt26xmmgzDNhLMXBknzrwH4TccCpcVPR/advrACoGNFRZWyjh0Fhk2kLRaLWQw6MOwIgeZizjKTTVKuUBOOHg6gWkhO/oIeiSgAJ4nr9gPrPb28g8nX7b8dwP6mIwHQPcGpEvcVN2DbqbmMnxbUs+SATaQtFos5ZsfKCDjedBgA9g8kPjrHdBD5wqzEdmvZgENCoKX6aAAF4f1NwPmmYzBJILzoBgIXiqf2c2vjV3SKq8rbdv49eX99h7CmZQhsIm2xWIwR7OIpDBRErSlpXfRNhyxXr8kZTssPYvHpQijr6GX/wIxFnzQdhAmq62InE/h7puPYDrMZG0Zm4dejmedpGRybSFssFnNo6QvRIBB9unZG1KStmgsIDWIB3tgUv6FNSKsvxsuA+qLUnjflsCrUVMXMd0F4EukQmGnAI9lBLMTKNhoWIDaRtlgs5lBiiV8ukOPjr5kOYqRMnHXzWABHC8mZuqAXzo0XAKY9bcohk4L6BYCDTEfSF/bL2zD22HZOltQkkm+otAyNTaQtFos5CqDRcGfoygNDt5ebjmIkZDLlp0DIPYENjCiuCjVVAThcWncITqoN3So61c4kwVCsHoTPm45jFz5MPdzwrrSoAdvO9rbWhjeENS05YBNpi8VihJqzFk0GsK/pOHahehNtvNB0ECOCHblBLCy/A6ig5CY25o5yyCn6JtVcqAlHpxDhJtNx7I6h+mhp205mO4ilQCm0DyWLxbKHoB3nVNMx9AeDirPpkMXKZLa0c/JlIa0dUAHV0/dhTyjvqA3dOk4DvymUxuCdIPmbOgAAC5cZmXqeliGxibTFYjGDXOI3XKbVhKNTTAcxXJggNIiFVyMeycho9aUwXy/EPGvyeUvHmI7DSzRllgL4hOk4+oNNTPrL2nYeJ6qpzExutAyNTaQtFosZuCAm1PWLJnzddAzDobIudggAkTHnDBPOAUwokEEs/TBm2+bOkOkgvCJQF/06A/9iOo4BSFeML39WWtSAbadmqhC3m7Tkhk2kLRaLPHMipSA+wXQYA8K4ZMLZC4Omw8gVpQX9lQ00GgbDTUcBCEjr5ori0VneEQhFjyHGQtNxDAjj+XX3zt0qritv2/lK6uG5G4U1LTliE2mLxSJOdVvVCQAK2R2jwp/2X246iJwhsbIHTqcNHKWzKsiyjl6Y8NmeXfNRw8RZN48lhWUAKkzHMhAm3GMAyNt2mnqelpywibTFYhGHSW6U9UhhxnXFkhyR0KASBr29+ZH6DRJaO0GFWwbUw+SauubCPWEZAd3psiVgHGk6jkEx12go7NhhGw0LGZtIWywWeQrOP3p3CHxodThWZzqOodh3+sIKAMfKqJkaUVyYjYZ90VCjZsphsC56BYEL/kRGZ0i+zGjGj/aDtG2nsjvShYxNpC0WiwEK08psVxgoeCu8zRXqJAAlMmryzgHB2bEJABf2zigAZhoVddI1MxcfDkbUdBxDwx9vXDXvH+Kyfp/0TV178vTka8KalmFgE2mLxSJKzelNkwDsbzqOHDk/GIoV2tCYnSBBG0F2lPyOdBcKcRDLbhD4hEJ/rQzFgaHby7V2lgEYbzqWoWBSjxsSFk6kaTUiES2raRkOBf/hZLFYRhfs9xXFbnQPfii+ynQQg0FyZTJb21XyJSGtHRRBGVAPxMBnTAeRDx3UsRjS/sgjxYR/NCBv20nWP7rQsYm0xWIRhbk4yjq2w7gaU5YKlU6MAMIpMjJ4yswgluJ5vRBx0ZZ3BMPRCwF81XQcucJKy5+OzI6Vidt2sqm+BEuu2ETaYrHIQkWzw9jLpOD4rvNNB9EfVXWLDwAwWUSMYeCCzgRITWzMHwLOrA3dOs50HMOlNrTwUAA/NR3HMMiU+dPPSIsGt0HatpOddKkdxFLg2ETaYrHIkd3ZPdF0GMOGdEE2HZJ2RvUglurQ4k8AKJrBOAyUacrMNB3HsJgdK8uQ/24AE0yHkisMenH9g9/cIi6shDcBCK9tfPTalKimZdjYRNpisYhRXbXteABjTMcxfKguGF54tOkodoUEL+yK/aultHphJTix0SUYxTXlsLqTFxK4yG5uDZU7iPtHmzgFsgwXm0hbLBY5xDve3URdbTqC3ZC7sL+zIX7dR0JaOyieRsM+8HmIRIri2hoMN1/AwLWm4xg2bKoBT7he3zYaFgVF8Wa3WCyjg6JrNNwJ+vLEWTePNR3FdmbHygg4XkKKYMghgVCErxfaq3pl1UmmoxiKwJnR/QH6iek4RoJW8jaMNWctmgxh207WdqJhMWATaYvFIkgx70ijMp0uvcR0EL0Eu3gKA2UiYgbqo2tOvWk8GEdJ67qBpgIfzjJlaQll6C4UUf15H9o2tsx7R1pUZwT7EbJsStVOelVY0zICbCJtsVhEmDjrtr0AHGQ6jjwpnGNwwbIH0vI7gFxafjIAn7SuGxBQ0OPCgxM6bwIV5+kQMZ7IWnYLI1+WthrLL3SENS0jwG86AIul2Jk46+axnVvHlpK/q5L9u9+cso/baUs5b3z0mnYjF4ACIdPd+SlQ0d+7Hxec2TQ9uaKxAI5caRog8nLa1labeFFCaCeIpoOL9O3C+GTljEUHGRlhPQSBcPQcAPNNxzFiyFADnrxtZwF8xhQe26+3pXoCq/T2G+1yVb65W6uu1MNzN0rHZBNpi2UIakO37s2+zJGa+VBiOpQZh4EwCcDeAPZKpzHGV5IGoID+9g8cACVpBMMxANF2ACkASSJ8CI33mbCOCGsBet3Rzhvt8cZ2sScniaJpMnmft7BW16AwLnIyF3bG01ge6RbR6ivLXMxlQPD7nc8AWGw6jr5kR5jz/wEg07GMFFIG6vWnLC0BOkWdTdhUX4JBKk9bEvD7M1OY+GAm7A/G/gQcgGxt+kQAFek04CtJZ/cQnB0bM2mnGwSgOhztYmADwB8B6h8Av8ZErxLhheSKea96sZllE2mLpQ+Vpy0JqJLMp4j4JNI4kQlTHGQmQwMAZfPA/C5BVT1/DmLesVZ2442hSCEYjq4H0zsgvZZBa8H0TyK9lhx+l5zu99seu3FTXhGYoqgdO3aggAsnzrrthvUPXvOxqRhqzlo0WWf0fiJiRpwDmICYyMRGr2Cm81BIiXQo4gfpuwCqMR1KHjjk+J+SFq2u2nY8a5K07eQMp0f3IJY5kdKqRNU0BToZTFMZmEJIH9qb5Y403e3pG9kXoH0BnppdiwEGqsOxDZpijynoFUrrBzbEF7zlxlOxibRlj6Yq1FRFyjebWJ8BqNOA9JEAFLhnppoZJoJ4IkDTCej5RCGwj8C+cgTD0S0A1jNIE1jkGIscfVliVePIG19CET8DU1wMyRgMlHV3p68AcJOpGHSaPyW1p0hQ4ol07YzYoQ5QzAkfAIQDZy6tNHHU3B/VCPw3A6eajiNPXtoQv26zuKr8JsAbm+I3tAlres74mYurSzhTx0znURvOQ3ZTCQCLfJwxUEvMn2PQ5xzyIRiOvgPgYRA/7NMl94/0tWUTacseR3DGj/YjX8nnGfxZADPAXJLdGi6auoOxAA4muXg7E2N9eXXJ16jKYzWj6EYnDwQRX4M5y24x1gykIFcmQxnxQSzax9OLuPqglxLKdJ0F4HemAwmGop9mwr+ajiNfiM2UO2RtO0Vfj6OmrKMq1FRFRP9CrC6Fdk4BSBXQO/tgAFeD6WqHMluC4egyMP0kGa8f1u/fJtKWPYPZsbJgl/4sgS5nxqcZbF/7ufM07q/vymcBh2ma4IdnGkCJxxoHBNo+PDsF3OexTv8wS5U9vJtoWfCBkFYfRkcZEBPOg+FEeq+ZzRMzGrdjNLh0kaGJhsKvR+Zi949mqqqLnk5MVxHwRQAVRdBnPxbAFSC+IhiOvkiMn2h/+a9zOVEq/jeWxTIIVXWLDwiGmpuCnfwhmJYx41zYG8hhkv/FSxFJWW1tA7BIQkgRrpHQ2Y0pS0sgVSZDeFxEZxcYxTiIZXcIfC5CEXOfN5GIymj6DbKN0UUPKb/4Tq0J20424NvuClOWllSHYl8JhmOvKqaVBFwGoMJ0WCPgWCYsJqfzH4Fw9F/3nb5w0OdgE2nLqCQwY9EnA+HorxQ7b4JoPoCA6ZiKFQI9lu8aWq7G8Cn2IQog47UQM86pnLFI3Be7umrb8ZC6OGn5C3rP9MhjpHU9IhhAwNjuenBl1XcAzDSl7zKJthXXvSktmunu/JSw5JZ2Tr4srJkfcyKlwbrmrwUndL7OxLcD+ITpkFwiQMBNW8t9bwTDsSsxZ1m/vvY2kbaMKirPbDo4GI7+jnz6hZ67Ya+P+Ec9PpWfa8P40C01BD7ErXgGg4AnUw83vAvGvQJyyq/01QI6O6OV2G4tGXDs6EqXTcUoOjVS2fIOcarrFtUB9G2PZRIer9+X1UZ8+JV0mRGvRjzi+UaAK0QiKhiOXRlsC7wJpp+g+AduDcS+AP880PbRwz2j4nfCJtKWUcHEWTePDdZFIz5HvQzgAoyCTqWCgPDmxyvmr89nCb8qnQ6p/4+eI1HlkynvYMJVB4ZuL5fQ2q4JLXJhJ6ArUa6el9Dqiw8svQPoKWxgyuHEWbftxazvgLeTIdME/MjD9XeCyEzdMLNYWVpWz4BLzkioCUenBFcGHgf458j6PI96CBzijH4+ULdodt+v20TaUvQEQ9FPp9Olb4DxHQCiSc1ox5WmF8lR1j61GgDaVjS0ApCYxlezEZsuENDpg8wOGQPP5NtkOhI0INVImUb/I5Tc5oja0MJDBXSyRCIqne6+A8BuO2duQqAbNEhu59RAmVFPfbusbSfrgm40rDxtSSAYbo5qYDXk3qsFQ9ZCT/+1uq75h4hEFDCKjs/wLNcijfkAzgJQbTocywAwukH4b5xCd+a71IGh28s3qY0RZnwT9qbQEwicd300mKcL7UevbXto3rodsrSEiH/stSiRvgbAb7zWAbI7jel0t8zxqaEdQJKa2Ag82/N5dLrXQg6p8wA0ea0DANXxwL8zYZbHMssSrfWxYCh6j9B7W3MFxAeU9Nh2jhWU5LSjxO0mcyUQjp5D6L4doL1Mx2IYYqYbq1cFjnZCTZeNjkR6De+HNB5BdpSkpZDJfugG812mOrToiA7qWA6m0dKUVJCwo/JLpuYs81Hbhye5FM7g7NLpXjG+7I7OzZ3fhwuvtyGET62pazqxraXxWW91ehqfSOie0cAOYGVd7BAwTxQRY34ChHcB8jyR7ply6HkiHQzFpjHxdzyWeQPl9DUAAAntSBJeTt5f3yGi1QfWSmoTIKsHenvzI/Ub5BRzZE6kNNgW+CGA+QDZsskemHGuInV38e/iPcrjexqLbBJdHDyCf+K2fBYIhBedyqQfwejp7C9UOlJ1iby6x6vaPjoGEBrEskvit+7euVsB/FJEmkmo6VBJHqWKJ9JKy5UBAXhSM/8BApOYiDBj/MzFnp6UVp62JADiu+Btg/UWwPlC8v76jqq6xQfA4/KR7TDMlDso0dcj3LAadZvKGYsOCrYFVgJohO092pX1Clxf3In0MvahBL8BcJzpUCw50Y4MLsOFNOK6xOpQ7CsE3YLiHx9cDDyOSETnswARG3WYcIiWAMjrOeSofkngzKWV3suI+SuvS8br3xfS2oHg64X99ER7vHEtgBcE5Hx+1h6WWzCpkvTt8HhDicDXJlsXvAwApB25JjxTvsos7Wcu75IzGMFw89k+n34BcuVWxUQbFNW1tc5/vbgT6QPQDJixFrKMAMY1OJX+OdIfD4RiN/Z4VJa6GJVlQPKvkSWhRsOBHCY2ttS/DeB+gRDGKd15uacKc5b5WKzxKX/v8BGpyl2w16Uebni3R/UPEoLE2rNrVbAu9g0CzvdqfQBg4NZE6/xf9f6bBHdrSedZYjYCxoduqeHsCGkx8i6lc5HqUPTLAN0LYLzpWAqQDsVqdnJF/StAMTdoreZGANebDsOSI4yfYhrdNdIfr66LziPiH7oZkmVwXGk0FJpQN7jDBMtY4QHXAOzZ0WfV+o+OhVSZjIGdsZ7pYccKyW1PWNiRSaQBOqdnKqWrVM9sPgmM/3F73V1Ykyqnb+z0FTk3nvZEKPGGkNZ2RG07s2xtV8mXBPUGJLtphdth5zD0x1ZNfF5bfN7TvV8ozkR6NX8GwM2mw7DkzFvYhgUj/eFgOHo1M6JuBuQy3QC2mg7CZRzq7syrS37C2QuDAA5zKZ6hGDDxS7Y2PAjgNc8jYBxZE2o+w6vlyafljpmVvAXX5gp1EqQu3H1KBVKr5r0EQCJRq6yp6jzNzQWrQk1VrOlueHtKl3QcdfFON6qzY2UEHO+hZl+ezLfEbEQI2nYCAAFPmR/EwhQMN/+4Z9PK1kPvAgFdIPp8e8v8VX2/XnyJ9BN8IoC74a3RvMU9uqBwIcK0eSQ/HAw3XwDgNph/U28CsAKMW5jpUnbUscqv9ikfVz422dpQlmxtGJusSZWVlJROVOAjAFwExi0ErASwzXDsI+Gltsdu3JTPAr5u3zSIDWIZbAeVmAhLJMLQpK7xbnWxCWvdE5yq54S0tkNyY+TBvMsROuPPErpau1uKqIh+Dm+nyWkmdenGVfP+0feLwS6ewkCZh7o7YFP10XL1+lk9Qw2VfQjWLboZoLmm4yhQHCa+LNlS/+Cu3ygu+7vVXA3gL4Cor6MlHwiNOIlGdFEOzowdBc23w9wN3ysE/IUUHmhrL38Uz8xND/ro5ZHu9cDHyP55HcAyIOt3vZE66gi4EsDnIHETyHiIfXwDaUwC0WRo7A+ifQDeB1k7uJKeP72lApXY+ffckm8IxDxdzCkp4wx6saWuzl9yafn3AEzwOJIvVNct3CfRsuADtxcmwjTv/SUAAM+tjV/RKaLUF6LpYJEnmB7bmX421fcrCn8A4wYB7fOBkZ/O9aW6LjqPGV9wY60BIfx3qmXe7j0Gkru1yoCfuaRtZy+mGip7CISj3wfzN4Z+5B4JA3R1sqVheX/fLK5E2odaOHgXMjt8FZCbkrdrEjMaeAOMb+EU+v1Ifjg4OzYBnXwPzDQ6rIDim5Ir5j/kxmI9Scl9AO4LhKLHKMJiBjwrAQAAEM4iTQuSrQ1f8VRn0BjEdhjXJVd9473BHtD22I2bAuHoHQRc53Esfmb/VwH8l5uLjp+5uBrakZmOx2YsuIj5ZBEhxvPvP7Fgp2tIckbqyeDKwIcAJnmsfnD1jKYjE6saX81nkcDM5mNZ4ya3ghqAFcnqSf/d/7domoBrIACw0+1/SkKoL1UbPvgkSAn1I2RR7Dc2iKU6FP02A/9uSr/AYSa6LtVS/4uBHlBcifRUeg3WhmXkLGMfJnm+IwdUQGMqbcxrjU7+BYBPuBNQzqwmxfMSK+Z79sGdijf8HZFIXTBe9V0Q/T+vdHr4crAuujLZ0nC7xzq7E4korITUIJbHc3mY30HU8eFaeF5uwnMxZekPhjzBGAZ+JzMdJDYIQXxnrCrUdCCkPImpnxuFSEQj3PxniWNt7VPnARhxIl0bunWcozPLkN3s8Qh6rzuDL2H5hQNZlQpdh+mVjY9emxr6cS6rKiV1+tPLOxvi130kqthDdSj2FSb+ngntEbINQAZCm2wMujHVUj/o7IviSqQt+ZH1bxb/UBougXDsMwBfICjJYHw3WTvpe4NcONwjEtFJ4D+C4WgKwI881WI0V9ctfNCLUoPBCLRUHw2f9t5XGQB0bg4TG1Y1vBkMRR8G4SyPI5pcXdl5bgJwzQ2CIDRBDll/ZSmtXkj5pMo6wDzg8/sDAM8Tacpatv7vSH9eU+bH8HaTIc2gL21+ZF6/E/Zqzlo0WWf0fh7q98GMr7KUbed2PQM3rwBQHW4+BeAfm9AeBAfASyA8zcAzStNbRPq98k797k4nSXOW+SZ0vF9JDlX5tO9QYj2VmaaCMA1unSwxfy8VbxjS2MIm0pbCYk6klBLcJLUbQEAXgy9JxuePqAQlH5KtDQuDddHpYHzRQ5kJmn03Aqj3UGM3yO9M89AJbieYfDlfhFjRImL2OpEGa1wDFxNpEEk1Pn24w19ZDmI9TaovlaH7fb0kOypaghM6UwACHocwfXzolppN8RvahvuDwXD0agYu8SKoXoh4QbJl3oDWlzrNnxJr/TbVaChk27kdA/XRNac3TdKgeyDVNDoI2esw/sLMf8wg80BO743lFzodQBLZP+8A6GkCZKquW3SSZv4cAV/ASG86CdFk6/z/yOWho60u11LkBNoC88EylmkEdGnQBclW+SS6F631N5G1z/MMAr42cdZte3mpsRsslvilx3amn831wakZyb8i+6HrLYQza8LN7uwaRiIKECqTMTWiWO71sr5nmuHuPDM3TTLDe3yl5D9nuD8UCEWPAdDkQTx9oLsTLfMXD/oQybHZ5MgPYsmOcpey7QRgYODM7FiZ9qt7IFVONTD/BFFjN6f3TbY2fDEVn//rkdxg7gxxoqV+Taq14VvJ1oYjlEIdgN8jWw6SK79IttQ35vpgm0hbCoaaU28aT8C35RT56lRr/V/l9HanPd64lr2/eJd3Z7q97e7fFRK72D63a+PYoEQiGoRB691cgrRL9baBluqj4b3bSBaSL+s4MHR7OQjHiYjx4PX0zDLDWZhoWDZ4E2fdPJYUlgEY41FIAPAGynH1kI9iLfXe7kie0ZFXU+ZI8GstZ9uZZVtbbeJFQT0Eu/gmGO03o/fA+Fqyo/ywZEt9c/7J88C0rWhoTbY2fFGzPoyA2wgYYHDXdpYlayZdDVDO5+I2kbYUDFxSfjmkEgZwrO+4W5ModrEEYADI2/KRnagKNVWBpRpFh19DqbX+GYAtHgSzK1dMnHVz3ladkoNYWMsfMW+kzVPg7UCR7fAQR+g++B6AhCsU49OYHcv5SD2dLr0VjCM9jGgL4HwheX99x6CPmrK0BKATPYyjL0YGsZDcjUIWxtNYHvH0VLIvNTOjYTDmSentQpqA/y0p6ToyGW/4mZsN2UPRHm9cm2htuJaZDiXGvQM87K/JjvJLh9srZRNpS4HAxIRrRaQIb5aPqygYq5+MVquGflR+EHBazwhmz1FQ0yD02cKkhp34tccb2wG604t4dqEq3V1ysQvrSF3Y0xXjy3Muk3ELIsmJjYPvuG+IX7eZGA8LRDIu2JWbBWZ1KPYVAF/2MhgiXJNsXfDykLFUbTsenrqF9MVMo6GgbWePntzzDM6OTdAapmYzvK5Zn5xobbhx/YPflNjI6JdkvP79RLzhs0S4HMB2dzFmtI7pdOaMJLm3ibSlIKgOx+oAHCUixvzv6+6dWzAjvTeuun4thle/NWwYKOssIxnnB8EaSp2hEV6EMlFIGOESXZ//GkK/T8bzRt4Xcg4J6YoxZc8M9SBW3p8QAQDnMOWwdkb0MCaOeRoH0+JES8MdOT1YK7nTkWE0EbuGaD9CFsLwNwNGTCc3AThATK8HAn7jY//U9njj89LaA5FoabiDfTiWQXEAq33pzvOHVSbYB5tIWwoC7fGOSx/+nmxtuEdIK0eIkR1B7imalMyRLEt1vPPHu44uzpVk64KXCfD8JADA8dV1sREPGpEskxmq7MFDhBJpfiGXG4U0+f4Mj29sAYCIP4tBrG0ODN1e7viwDN765a5JVeQ+0ZEhVvbATklafEBJTz+CjG1nL5QReZ7BcPPZyE7XFYb/K9Faf9mG+HWb5bUHJ/Vww7upM5Izfew/s+2xG0d8DbaJtMU8kYgi8NkSUgT66XCaCATxfuw9s4D3KxOEdnSYVE6DWAb8efAit2IZXEdfM9KfVUSnQOpz2kCjYeDM6P4A9pHQYs5t52/TiusTDHrU63gA7B+YGf3kQN/soE0xAMd7qJ/UrC/C/fVDNV/1Qazs4fWOvy1ICmltR7IfoYd/inj8z1nmA+gWz3V2hplwTbJ1/ncK9JqbJRLR+Sb5NpG2GKdmZeAEgCTs2Zxu7paojR0WgTOXVkKg2YqIar3WCM5cdCS89+HNkmdjXLJm8h8B/NOlaAaG6aIeS63hI+cfnUeZzMghR9JKLXdrP+WmB/hgOk7/7h3BcPRCgL/mobQY/sJlAAAgAElEQVQG45IBrQD7ocdC8yDvQtoJMzaM0k4WJPM8g4l1VwI4RkKrl+xEwIZCG/biCTaRthiHiWYLCa3x0mZnpJDuPFpChz32qwYAOIIOE/mWIiy/0CHwT1wKZzAqSti5YkQ/yVI7gCMvk8kTuXp6X/+DWPqDGfdAoIaeafc66drQwkMB/NRbYfxXMt7wwHB+JNPd+SmvwukHQ42Gwom0gEvOxFk3jwVTxGudnWBuTrXWDzkRcLRgE2mLeZjPFJFR3CKhM1wYOFZIx/tGMiV29JspYd+QjWND0c2ZnwDodCGeQSHG13samYYBE8Ajrq8enlJ+ZTJ5IFdP/3BjzoN4kvH69wHO+/WVAyfVhm7de/u/ZsfKMuS/G97agK5I1k763rB/Su69DXaEB5RA2rYzCw3hIuMG6XTZNyA6eIUfS6L9m3J65rGJtMU4UokkQEPaO5mAmEISOgr0huciQhPqGPSiG80rPScUd7sQ0qAwcEhwZdWwRpNXz2g+AkVSJjMiZsfKCDhBQoox/ISFZMo7lIP0Z3r/EdiGWwjsYVMwvZfm9MXD9ckFIHg6gk2piRNfEdLajqRtJ5CdrJsowwteatScetN4gBd4qbELCbC6GPGI5826hYR/0O+u4TPAuAjAQeAhHmvZcyB0gXAHTqa8E5Ca05smaaFkQQFvS+gMi0hE0UquE+nEIPq7l8sHZ8cmoJO9HBqxHeWix6x2KKp87LlrDIOuAfC3nB/v802XcOgDAFZafAcw2O2cyFA5DyXJCx7Bzp/Df4CP/seDaHaiZ8rhzwN1sfOI+ToPpdIM+tKIytvmLPNx24dTPIipP9aMKNHPF4VpQm83AAADzwyv0XP46NKyqyDqQkL/mj3N2bMYODlezT8E48bt/5YcmGkpfBjHwYWdPKfUdyhpmU+vDJAQERoG1SsDYQY8bwIEsK1iW9rbZKlbnwKQkMOEezuo7avqnwuGYk+A2NPddALOrQo1HTiMBi+xMpkyf1qijGFntGCpwAheL4lVja8Gw9HXABzhQUjbIWBWdWjREcz6l/DwSkuMxmR83mMj+dmq9R8dCx/GuR1Tv3DuTaHu6kqVGfXgtUvOnGU+tH2Yv4997jyabJ13O1AvKFkY9H/Re5KvBvok0RbLrjDiLq1T5co6OVCqfcamKQ0EA5cJST0yUrP5nBEc1qAy7pYiMPFiN9cbAB8pdVXOjyYWSTQZ9KKZSWNKZkAQkCkr6Xp6JD9IjD+6HUw/VDA5KwEEPVMg3JWIN9w64h/3yzXhMSDuHy1p27kdj8upghs++jyAg73U6ANrh+oL2ubOQ3ZPpJ/i2SCM+A1n2WPIbRLWUGhPm2p2oltrodG2udHTZHSRkFzOJQUjhsWGNSQ2rKp/y80FUx3lywF47ueqGFdjdmzIcoaaU28aDxaa9AlDO4CAiAtEXjcKikRs8Dy2/3wDZTQ3rxXY29OavkoZZMTr9UVtO3fg7fMkbvR0/Z3gP7Svqn9OTq+w2DmRfoqPgcZvMVTttGXPhrAO72KFG0spsNhrzV/i1Ehp5YJD6X8HUC6k5nEizQQiEYcJIjzh+s7HM3PTIPzM1TX7gYHawDb+/JCPKy0/GYDP63iyYu7Vm+dKzVmLJgMSA4KAfG4UEi3zngLoPTejEWYL4HwheX99Rz6LkJwt3JtGLEoFbTuz0Hte1hJXhxYdAaEbVQDMCt8V0ipIdiTSj/JkaNwH6fGYluKD8WtcSK40gzCx2NhQ1mrAKWLSBGYs+iSyzWcSPJlsXeCpY0l1aPEnAIxs6Mhw8ehIVKX1Ugh4bRNh6P93yUEsSt5qTKdZzpM4rxsFYgb/2b1gZCHCNfm+98fPXFwNxqFuxTQYDPmhQABErf168PR5Mjlf8nL9XViRWjH/RUG9giObSD/NY1CCPwIQ2iGwFDUOfu3aWgp57ZQMDz5HTmtgakO3jiOfvgNAiYQeMwnU/8rU8wJwtdGwL22PNH4I8O+9WHsXZmRvpAaGWez32baxZV7O/squoQQHseR5oyA15dBtmGlxoqUh7xI8v5OZDim7AY/e20MiZNvZR9Dj50kXe7t+X3iPmF44GArMCg7uhHShvaU4ITyLT9FLrq2n9TrX1hqa8yvPbJJqvuifKUtLNDJ3AjhOSPGjVG1yudciTGL10ZrL6SnPVle8yLO1+8r49NcH/i4TAJFGPGIPymRyQa6ePu8bhQSnVgIouImoQ7AmVYEbXFlJchCLduRtGGfHJgAytp3b8dBusroudjKAw71afxc+SnZUFO2JjVsorMHNAM43HYilSNBodnO5ZE3HmwCkzNv9yvE1CWntzuxYWWBC5/L+xgJ7yBIsj3g/GhxiOzp/z7feczCSKxqfAMO7RL0HBi7PXsB3p3ZG7FAAMvX8BPlGwylLSwDycOjIDly5UYhHMgy6z6WQJEhq1he55VFMLHZ6sKUdGz31uu+Xbn0KhAexTHCqPGvMY63FyjoY+D2emZuW0itU/ADOQNb1f9ejmy0QqBfMkQ4A8gbt/ZMyHUAPGoyNYmqE9QB+h2nkrh3U8kg3wtG34LFXay8E/mww3NyYbJ0vmlAHZ/xoP3Ty7wCINOT18KGP/Z4/z5pTbxqvgaO91unB86NfAi1h8O0ey4zjTn0pgCW7fkP7eLrYSbqSP0qvruw6gRkyDjou3Sgodv7ApC53Yy2P0WBcMgyv8sGJRBRWypxWM2ONkYl4WokNPgIABp5bG7+i0zMBRZ+Rejo+1r+TUSps/DiFppoOwrKnww8CJJJIZ6FbquuimURLg8AxPlMwFPsqCDcDcp7ZAEDgf3NjjPZQiDpMCNRQJirw22An3+SxJRkIdB3At+2+Y0pS/soOOX7Pd993hTVPlxrw5daNQkUX/21rObYAGOvGep7B+K9kvOEBt5YLtFQfDZ+WsSg1Vh+tp4EEJ8556JITODO6Pxwc5tX6fSFgQ1vtPo9IaBU6YscZFsuAUP6jxoeJYkYsUBf7Q1Wo6UAvBPadvrAiGI5eHayLvQzCTyGcRAO4L9E6/1ciSnJHv6CM9v5ie399F4N+7rkOcFRg5qLTdvsqiU1Ye0niRms35BoNXbtReP+JBdvAeNCNtTxkRbJ20vfcXJB8crZwPs8b8PpDzrazD549T3LoTK/W3hUGtRgZ5V6A2ETaYpxkS/0TBLwtrUvMn1OkXg+Goz8LhmLTepq8Rkw2eW4+OxhqbtpW7vsngKVgyDaxZPlIZXTuE/TyRS4xak/UbXxdQkiRcysAz2v/SOudrPAmn7d0DDNEbBqJTe0Air1eXL1RIFXI7h30XprTF3uQ2IjdJCslP9FQ1LazB/Z7NxqcwDO9WntXmDgupVXo2MErlgKAGBT9LhgyO6g7UwrgqyD+ajAc+wiIrSTC35n1q4B+zcdlCVW6ddP2yWhzIqUTOiaMK+tCUKuS/bXmw4j4cADHbQVOBVAOkqy42420Bl2cfKTxQxk5JnBMqhThSUQiWkIo0bLgg2A4+mcAF3irRBfsNbN54scr5q8HgK2bu05SUp/LJD/RcK+ZzRMzGgdKaBHcbaR0tL5XkepG9jOjkEgz6EueDDIhTJP4MCPg7d73gCyCtp1Z1qUebnjXm6WZGLGwN2vvjo+5VUqr0LGJtKUgSFRPujPY9tGNAEs1rfXH3gBfxIyLss1ePjiUgZMuRTAcZQAZtGW9nx0CwFq0tC4HmMBXtbc2rJQSrJ0RO9QBakXEhHdQNWiRAnucSKPUcegqAP8DAEQ8XeoujJRffEfaYZIbxOJyqUB7vLE9GI6uAiB2fJ4LxGhMxuc95va6VaGmKjA+4fa6/WLCPQYAk9jo8148e56VZzYfBEdN8mr9XUi1tTa8AcwXkitsbGmHpTBYfqED4qshZ4U3XAhCA1RGCIPRKFYX3UPWYUIIkq2hbG+tXwnA84ldTDQXc5ZlmzXlyh4SbSuue1NIaweC9fTKcf8IncEFVt5BdyfiDbd6sbKCmgapHMGjaaU5ILsj7WFDpV8rqdkEYMbzRvznCxSbSFsKhmRLw+PEiJiOowjRIJ6bjDdE5aXFhjWwky5dI6TVF0+SlJ3h/Wra1n0GAEhoEAuAJ01cCJnFGikTG1bVv+X2oj6/748wWrm1E6+jHFd7trrg9Eky4NhRc+pN4yFn2wkAYA9vGFjjWK/W3hUCvyClVQzYRNpSUCRCqR8wuexVPbpJM9GlyZb5PzWiTmIX21c3PnqtuId7+bjyXwNIeq2jQddUzlh0EIC9vdYCACKS3wGcsrQEhCkSUkTeTGxse2jeOgAmbuh2ZTMUfcHL4URgsZvkbW0d5Z6f/OyKqG1nlnTF+PJnPVudZJqUe5AfnFPA2ETaUlhEIjpVnbwIzPebDqUISEDxZ1It9b81IT5x1s1jpRwmIDCIpT/W3Tt3K4i8Hs4CAGf7lJYb+MHyjYY1EzqPBTBGRMzLnT8m4+UdRLg2uaL+Fe8UmACWsoV7ysh0PMEyox6959fdO3erd8uTWGkHEa2V0ioGbCJtKTyWR7pVie8qAPIet8XD85r11OSK+Q+ZCqArXTYVcg3L4tZYvTjKWQLAa7cQAuHfPNboRXM5yQ9ikWzsUsqzGwW/5nu8WjsXGFiUaGm4w0uN6hnNRwAIeKnRCxlwjwEAlvNrz+Lh8zwwdHs5gQ/2av3dYPWBmFYRYBNpS8FRU9d0os7oRwGMMx1LgXJ7+bjyU10bAzxCfGAxBwZ2vEuMhmLjw43vEOOvAlLlAhoA4WVPSwIGQq5UQHMZP+3V4htWNbwJwMPd4EFZk6pJ3eC1CPt8ckmmNjSIRa4foUdRefY8U/72yRDM5xTU+1JaxYC1v7MUFNXh5ss101JIJRXFxQcMmptqrZdI6oZEg6aRTN/VptTEiaYSFwAAK1oM5vNMxuAabMhqDGI7gH/3/EaB+R4QHeWpxu4kNeuLsDzSLaAl566CUvFEuse2s0ZSU2e860tQGTUZclas2shE1ALG7khbCoZgOPafDPolbBK9Kwzg5+wrP7pQkmgAILDUjs5q06Noky3zHgLwmskYXMOAQ8LEWbftBUDo6Nn7UgGlxG3wNBiXiJ1CkdigkrUb4td9JKS1HVHbTgAAf7xx1bx/eLU6ESZ7tXY/eFbnXazYRNpinjnLfMFw9OcAfxcQvK8uDlYo4KRka8NVqYfnbjQdTC+VZzYdDGCiiBibOPrdFWIiFrDC8x7S8mUyTrpLzkqNvTtC76WtpfFZAJ4lRrtD303GGx6QUKo59abxYAjttpupjxa07QQAMKnHvVyfQCJuPz10CWoVBba0Yzis4b3BuBzAwaA9IOHTWA8/YphK7o+e7SUU8Qfb1v0KoC95plGEEOE5DfXtVMu8gnQvURnfdCkbYi9rC4cDdXX9H5eWfw9ApelY8qA9EUq8gbisKDNNl/rEJNIyyRnhz2A0CCitSNbs/T8COgAALqk4BWARWziCmfe2YJlRFo8Hzmjw3oIJiYzzThFhE+lceZLDYNwDoApA4VjyewkBcHAwgEs9WX/K0pIgdf0G4DmerF98OAD/STEvamttjJsOZgjEBrFkuNuYY0df2h67cVMgHP0VAfNMx5IHTyIS8dqBZDc0idXTJ6VGF2umPyiwx4k0vZfm7otFS5sUpold35TQTU8fJs66eWw6jWMkNdnj50nMFSCxVLoCU5aWGLEsLFBsaUcuPM5BEO5GbxK9Z+FRXSNTYELnz20SDQBYC+bvafIdkmydf0FbvOCTaJCUlRnhrU3xG7w7ERkmfgeL4L0VnnewAT/uOct8BJ4qpCY2sbG9Zu9HCdjgoUQaxBdLv/6ZxeqjOxPBdvEJeU63/yTIbiJmyvzpZ7wUYCLJwTKoCXbXSuoVOjaRzgUfbgKwp75wPvZi0WA49iMCLnNxyW4CfgOg3cU1vaQNhJ9p4jOSrfUHJ+Pz/6O95fp/mg4qF/advrACkBlHy0zGbO/6I2t9Rsa8u/NGyf8+q9Z/dCzkrCzlbhSWX+gwcK9XyzN4frKlwdPa2n5UBW3h+BkhB5KdVUmJlnUw6MX1D35zi5caSnZCI6D1J0T1ChybSA/FU3wygCtNh2EQ1zuqg+HoAgCNLi6ZJtYXJVobLh3T6Uxm4BIi/AXANhc13OBFBn7AUKclaybtnWxp+Fp7y/xVUjtobrFljH8qgBIRMQMOE0PBrBebjmGEsNPtFx/EQn45KzUSvvFi9si9g3BXqnX+Ek/WHoTaGbFDIWULZ+gmWQs3Gko0VLJQTft2PUeqGbU4sDXSg9HKfmgsxZ58w0FY7+Zywbrop8D4oZtrgvmmRLzxjwDw/hMLtgG4E8Cdk89bOmbblq6ZxPrMni7tEyCUABLQxcDzAB4n1qu6HN9jmx+p9/IYWA4tZx3FmcJLpFPxhr8Gw7E3ABxuOpbhQa9sfPTalLis3Chmrf1lojcKlah8eBNtvMnNNTUrx699P3BzzZy1/YL10SAjvQ+Ctp1ZCsJ1yF2YEAYwKlyM3MAm0oMxBo0AjjcdhmFcS6THz1xcDa3vAtjFZJbeKx9f3u9FZ929c7cie/R6L5AtSegsKznaIX04AUcwcCAx9gZhEgETefjlO90EvMfAWgBrCXgbrF9VWr28YeKkd0x7H3sFMaYJOTBsaVfJl0SUhgUxEF0K4EemIxkeZi7oRDxdJDkjvCxtEbk2fkUnIDba3XtYzs2CVEZ8R7qyLnYImGVsO3vQHo6r74WhEkLNvL2cjdmxMtxfb63wYBPpgVnD+4Hxn6bDKABcK+0oZaeZgf3cWg8AGPqHPQnzkPTsVj/d82d3piwtqa7cspfWvoCPUMZMAQ1dTlDl1Ft7TXqTYp1wKvwfGxmzXAiQTA0lg55CPJKR0BoumvUvFKn/AjDWdCw5Y6DRMHvz7BwqIsbeTY7bYyCxHel3Ey0LPhBR6oPSYpsAvbRtbJn3DlDvqQgxfyz8vMYFtvHnU8BdoqoFik2kB0KjGSTWIFO4OHDlwy4Yik1j5kvcWKsPyYpxFb907az6mbnpBPAB4M5zHo1UhZoOBGSmaKkCPhJtjze2B8PNvwZorulYcoYc8R1Av5OZDhLy5SJTwz1GBz22cJ8UkjP13hatjybGExI9MKzoY2LZVhsi/BvAdxdbj48X7Lm1v0NBONF0CMZhrEEJnnVhIQJxFO5PLfxdrrvRFncgKLkLUQE2Gu6EUjEUj6N8R/KMjlfFVZVcYxdldGG/XgocUVs4MtNoKGbbuV0QIs9TgVztZcqR46rDUTedt4oWuyM9EFtxGMZgP6hhJn8OAnnpKlTlNTXRQSUorxukCWD4AKzHeNyPoylv0/VA3eJPg3FyvuvsCjN7Zj1l6R8SHNag2F8Qg1gGIrmi/pVAKBqnbONNoWNkEAvJNRq2J+o2vo5VQmqjEEepaWJ7ix5P+uuPfacvrNgqZNvZCymZ5+nozDuK5PdFGdQcDMVakvH698XFCwibSA9EmDIA/mE6jNEAsfakQIyVvwAb0UY5cs1I/9gQv85160W3UUSLGVwEibSBMplIRGElThJSM3KjMKoQuukhoCtRgecktPqyZYx/Kmk3G92HxCFHxm6yPd64NhiOJgBUS+j1IQDF91WetuQMI45AOVB52pKAb3zG8bKnyZZ2WDyldkb0MACzPFhat89oe8+DdS0DMTtWRsBxElIEmSPRfEnU7P0nZF1bChsDnr2BR6qOATBBRMzExMZRBgkNYmGmZ424PQjadvbw0ob4dZvF1NiNMswR6X7S50//reb0pklG9AegNrTw0EA4uthXkn4P2/TXvNSyibTFU7SfLoI3rzMVeHTSeA/WtQxAoJOmMlAmIlbo9dG9LL/QYcJS02EMAWfKnDXiqo7gBDkDExtHE5UzFh0EYG8RMUNNoYJlRlk94c0AAjwdQz6E+Enar56uCsfOMBYDAIQi/kCo+dxAOPpHh3yvE3AdgLEg8nSonk2kLZ7CrD/t1drK2XaEV2tbdofYEWw0LFzHjl3J6PTPUHhTNPvyesffFiSlRUlpqdeLkYmNownl03I3Pabe20K2nTuQfZ5k3rVmsgK3BsLRXwVn/MhVm9uhqArHjguGowuDFHifiO4l4HzsnN8eFayLfsorfVsjbfGMytOWBIC0dx9eTF8BUNANaaMKRVKNhp2JYPsLIkousCl+Q1swHL0LwBWmYxkAMxdYlnLsMDSxcXQhd5OcccQTaUnbzl5I+UWfZ3mnfmhruW8zYNS2lwi4DD7/xcG66O+V1kvbavd5xP3hZEw14diJGjgHwBcBHrqJlHElgMfdjSOLTaQtnqFKnWlg715jTLgyOLPpV8kVjabvxPcM5I5Gn8bySLeQlito1jFFqlATaROJSxWkRqib34kregSnla5LrvqGeG+LqG1nlkTbiuveBK4XE3z/iQXbguHYXwG+SEx0YErAuFiTujjY9mGCwtEHwHiCffpZ1dn997bHbtyU60KTz1s6Jr2xcx/28ZEadBzAxwOxT+nhlyJdVBu6db4Xdes2kbZ4B/MxHiuUQqvfB0LRC1Pxhkc91tqj6Tmq21dErAgbx9rjjc8Hw9HHAXh2fDhS2PF+RPGukPJPB2uZ0kFdPGVAhciBodvLO6hDpIkY5M2O4JCyxNPdH2MwKE8aGVTC+B0IhZBI96WagUtAuARaQZeWIxiObgTofQY2EDgDcAegHDD32v9OQHZnfZ/OzZ2V8AE7/v9G/P84zkH6IgA/z/sZ7YJNpC2eQWCJ0cCTiLAqGGp+gAh3dXPmvk3xG9oEdPcsfP7RX0OZJ8xYRFRwifSm1MSJr0iLZuvphRIXn/yNwmhiI22eQkCpiJixmx65wUAAQGRmXH35+LL7Ojd3poA851l4TyXAlTs+IQgAC3xkqK/CJtKWIqNKSIdANJuB2SVU4gTDzc8B9DITXlPA6yB+P8MqiW5/0tZSjhi5CXVUnBPqUpvKfx+c0PkBgH1Mx9KHNe7XJ+YA03ShPHpj8vTka1ghojUqIdLTxeZzGnBXOTB0e3kHOo4XFWUz5Ubr7p27NRhuXgTQf5rQL3iIpwdnxo5Krqh3dXPBJtIWzyBGBYuepgEAfABNBTCVuGd+MxN8YKAkjWA4ygDakXVZ6ARhCxjdBGxmIL39iAloB5iJOKWZNJg2kmIHjA4Q0gBvVowuZrVVgzt9Sm9NK7Szj9s7ujo6EI9kxJ+5lzBNkzmppPcSLQs+EBByn2fmphGO/QTg75oOZTtGLuhMoJjUIJbVdhBLnsj1PqTHbHOek7aPEd1xz6K5nIy5yGRKddTf7VsAs02HhUu26fAGN5e0ibTFOwg5NxQIQsgee2WPvnpyQ97p2zv+xdwzr317Vt77bYLu+ToB0KzgcwA4QJACQDi6lYAPGfwRgPUM+oCAtQS8rR31zth0+q33n1hQyJZpO5gdK0MnnyAjVtyNYyUlJT/OpLu/Jea3PQRMSnx3PxhuOgrwyZxGUXEM7ilwpBLp50x85hE700CCOzqEl72cojcUHX9bkAyGoz8BsMBUDAUN85cxO/ZtN4cC2UTa4hkMrDcdg0HGMHAIQIcAO0q/GAD5NLb6fDoYjr4F0AvE/AIDz2joJ9vjje3mQu6f4DacAEK5jFpx1kf3sv7Baz6uDkd/B+AS07EA4Ax3y9tDsk+qrAPQxdeYWkj0NBHLlCKZuukhkp1oyOZv7roz9MNSP18OoMZ0LAVITbBTn5sEfu/WgjaRtngGMz9LkjsBxYUCcDjAhzNhTvYLSgfD0dcIWAmmexJIxguiRIS0XMe7Ku5EGgCYaTGICyGRftNI4y2J7XCamdg4mhBsImZzNz2y1ncFMJV18yP1GwLhaAMBvzEdS0HC+CpcTKTtZEOLZ5B2VgKw9Yu5owAcxcA1TPxQkAIfBcPNP66e0XSk2bBkOt4J6JrgVD0noeUlyXj9k2AYn7THMOMcAEAmOSO8ZmJi4yhDLMlk5RPfqRXdce+BdGG4yKRaG+5koj+ajqMgITo7cGZ0f7eWs4m0xTOSq77xHtj20+dBNUBz2adeDoajf60JR6cYikPkYsvAc2vjV3RKaHkNES82HYOJnbHAmUsrARwhIlYAR+hFj9j0SXzY3nL9P4W0diBp25mlPRFKvCGsOSAKmesBWDvY3VHk4MuuLebWQhZLfzCp7wJi5kqjFQJwjgbWBMLRX40P3SJW91Zz1qLJAFy7cx8ULv6yjl4S5epuGO4RYO3ID2LRXadA6rpSpH7jBcOcSClIqInY3JAl6YmGTxaSi0yiZcEHzPg8gKKaFCvElYhEXPmssom0xVNSrfMeA/Ar03GMEhQBl5VQyXOBUPQ0CUGdcSR3dEZPYnR/fRcTfmYwgi3t2Ph3cVXNgjW38p7Eo4nqtqoTAJkmYiZj/1fCO9KF95pMxRseZeAK2DLLXTmwOh6sc2Mhm0hbPKekpPs6AC+YjmMUsS8RWoN1sfmeK8kd/UIr/+hJpAH4fGoJgLQJbWasMdKoKtdo2JGqnfSqkNaohEnJJZnKwE3y7FgZAUK2nT0UQKNhf6RaG+4E4SoA8sOZChQiPAef3ujGWjaRtnjO+ge/uQVM5wIomNqxUYAfzE3BULTBUxUS22E0U0PpIW0PzVsHwp+MiBu5oDMBOFlGCquNTGwcTQgOYqkYU/aMkNZ2gttwgrCfOzvdfuNNxgORbGm4nYALAGw1HYth3mGif0nMSE1NrJjvyv+XTaQtIiTj9e/7HJwLYFQ0kxUMhKZgOHqhJ2tPWVoC0ImerL0bxT2IZSA0eJEJXZ8BP+7qGc1HAAiKiBXozl9xwUKJNL+w7t658skbaemyjlc2PnptSlZzeCRaG/5Ejp4Kwp54mtPGTP+WLKejUi31v3Wzlt0m0hYRguHmsx0fHoZQTd4eBAFYstfM5oluL1xdte14ABVur9sfDPkJfBK0t8xfBQNlTUpBfBAL+5WclRoVhsVYsVJzetMkAAdIaDGbem/LlaVlKY7m18SqxldRRrd9QQkAAAq+SURBVNMYWIQ9o9TjHRA1+th/UCpef5ObEw17sYm0xVMmn7d0TDAc/QVAD0DK/WHPozqt1f+6vqoe5TWUUjBErfAIePvjFfPlHUNYbIIcZ4jsIJY8YL9P7r1Npk6bpCcaFs+pWvL++o5Ua0O9In0yIH/TLQAzKE6ELyTPSB2WbKlv3hC/brNXYjaRtnhGbWjhoZ2bO59AtmPY4iEE/lJ13UJXBw8w9KiuoZRiTJfzGwAJMUFjo5ilSgXwxqYV18v9Pkchgu9taJ8Wv0nO2nbyfqKiJP8886WtpfHZ5BmpTxHjKwC9bDoeF/iAQd/3OfhEqrU+nGhp+IOEHaFNpC2eEAw3n+2Qbw2AY03HsodQwqyudndJqR0dQzWUQrz/xIJtAP9CTNDAKOaaU28aD8ZRImLGdjhHEWJuPPzxxocb35HR2oGwbScAdCTP6CjOuuNIRCfiDf+XbJ33SRCdDeABFNXsB/4YwC+Y1DnJmkkHpFrrv71hVcObkhH4JcUsewaBUPRiZL2jS0zHskdB9HkA33FjqcrTlgSAtAbg+UWQif7mtYZpHMd3m8+nLxDRgn5MQqcvXFp2FAAR1xUCtUjojFoiEYWVCEDgvQ1Q3HuN3WGogwkslsBTgQ1iGRnEyRY8CODBmnDzJxi4gEHnA5iKwtt0fZFBfyHGvclQao3p3z2ZFLeMPgJ10a8T41YU3htvT4BVRu/T9kjjh6YDsVgsFkvxU3N60yRdQueC1VkATwVwkHAI7QCtBvRqBq3OKN/qQivtsom0xTV6kujbXF62nYEfEDALwAzYXe4h4C8mW+f/3nQUFovFYhl9TDh7YdCfUVOYaYpifJIZ+4GwDwH75Onb3QnCP8B4hxgvMfh5RXi+rbXhDYAKutTEJtIWVwjWNc8B028B+FxcNk3A7ERrwwoA2Hf6wootY/xTFevjGOpAgA8AY39kbZxct38rRgjUkGitj5mOw2KxWCx7FhNn3bZXt9O1t3LUXuzTBEYVNBSIKvs+jhhdTLxZMScc7U/4ONNWzCepNpG25E113aI6sL7P9SlSxFcnW+b/NNeHV562JKDK0+ORwQTy6fHQNAGECQCqoDEBisYTuBxMxEBVH6FK9JaisB4Hot5d7zHY8ZzKev4NAGORHTxRcLvjDPwg1drwLdNxWCwWi8WyJ2CbDS15UXN60yTNzm8BcjWJJuA3iWEk0QDQM1VKbLJUbejWcY7P2R+sj4bGsSB8GqApMHiDSswiA1QsFovFYrHYRNqSD5GI0ivp1wDt5eayDHpLdW+7xs01vaDH4P2Vnj/LAfxHMBTbFwrzwfx1ZHeuZSHaJK5psVgsFsseinVWsIyY6pWBGwGqc3tdBb6h7bEbizIhTMbr30+21N8ApiNgYmIUoUNc02KxWCyWPRSbSFtGRHDGj/Zj4D9cX5jxVKK1/s+urytMMl7/PvvKz4aQt24vxPyxpJ7FYrFYLHsyNpG2jAjy+78PwPV6XCZECt3qJldSD8/dyEw/kNSk0THm1WKxWCyWosAm0pZhUxNaNJUZl7i9LgEbUjWTRtmUO5acMueUjisvzjG1FovFYrEUITaRtgwbTfqb8MCZgoE/Y/mFjtvrmqRifLnYmFoAb6+7d+5WQT2LxWKxWPZobCJtGRZ7zWyeCOBzXqzNwD1erGuS7vatlUM/yi24VU7LYrFYLBaLTaQtwyLNdAWAUi/WznB6jRfrmoRLfPsJyj0kqGWxWCwWyx6PTaQtw4KAf/Fo6Y82xW9o82htY2jGGUJSjmZeIaRlsVgsFosFNpG2DIPa0K17g3GMR8u3e7SuQZgIfKmQ2N/a442j8HdosVgsFkvhYhNpS85klBOGV+OvCaPC8q4vgbpF5wI4VkKLiX4soWOxWCwWi2UHNpG25Awxwp4tzjgQkcioeT3Whm4dR8wxIbl/pqr3vk9Iy2KxWCwWSw+jJnGxCOBdWQcAVAQeCZ7q4fpyRCIqo5w7ABwoIUeghaPNNtBisVgslmLAJtKW3CE+3NP1NX/D0/UlCEX8gZWBXxKzJxaB/fBGoqPsNiEti8VisVgsfbCJtCUnxs9cXA2g2ksNAs4PhJqlmvNcZ6+ZzRODFHiAgMukNJnoBjwzNy2lZ7FYLBaLZQc2kbbkRCnrQyR0FNHPgnWxWRJa7sEUCDVfmtH0AoCZUqpE+Euqpf5eKT2LxWKxWCw7YxNpS06QdsZI6DBQBua/VNdF5wHsjUOIazAFQ9FPB8OxJ4joDgATBcXXdaXpSkE9i8VisVgsu1DgiYqlUKiZGQ1rjRZh2TUEfCvRWt8CUMHY41XWxQ5RGl8k4isBeFs33j+OUjirbUWDHQlusVgsFotBbCJtyYmqUNPxitRzhuRfIcadGvhTKpR6BZGIlpNmqqxbdLDSmAZgGhGfCeAIOf3dIfC3E63zv28yBovFYrFYLDaRtuRI5WlLAr6SdNJ0HAA2gfE8FJ4F8AI0PmQfr/N184a2vff5eLg2cONnLq4ugZ5ITHtrzZOI9F4gtQ8x783gTwB0JICx3jyVEUD4WbKl4Wumw7BYLBaLxWITacswCIZj7wK8n+k4BkED2Njz93YADKAbQGnP1yqR7QsoAyBS8+0yDyQ5dR7ikYzpQCwWi8VisQB+0wFYigl+CEAhN7gpAIGevwcGe2DxwS0+Lpljk2iLxWKxWAoH69phGQa8zHQEeya0PFmuztkQv26z6UgsFovFYrHswCbSlpxJtjY8CNDLpuPYk2Cmxckzkhfj/vou07FYLBaLxWLZGVsjbRkWwXDz2QA9YDqOPYDNxDQvEa//pelALBaLxWKx9I/PdACW4mLb2gfeHnPg7L1BmGo6ltEKg571Kd+sROu8FaZjsVgsFovFMjC2tMMybMZjQiMRTHlKj2a6GfT9VE1yetuK698wHYzFYrFYLJbBsaUdlhFReWbTwT5HPQJgsulYRgn3+RzM37Cq4U3TgVgsFovFYskNm0hbRkztjOhhjg8tAPY1HUsR8zoTfTPVUn+v6UAsFovFYrEMD5tIW/Kisi52iI/5PgCHm46lqCC8xBrfT9VOWj7caYwWi8VisVgKA5tIW/Km5tSbxnNZ+RJmXGo6liJgNbH+YSI+/08AselgLBaLxWKxjBybSFtcIxBqvpSI/hfAJNOxFBgJEH7NxL9IrZj/oulgLBaLxWKxuINNpC2uMnHWzWPT6bJvAPxNAONMx2OQrQw89P/bu39X2uM4juPP99cJOUh+DiSDumy6g0lRZFE2g9FiU/IX2Fn8BTbDvZNYb938yGJwduUknZJ8D0rC93zeBjeDyeD4uLwe03f69Ppuz+FTH4ONtN429aCKiIjI16OQlqpoGlttz1ntHDBveH/sPR+kBGy7+1b+Pvw5O1i6iz1IREREqkchLVXm1jq+NkGwWWAaaIu96B2VwHbNfL8Swu7V38WC7j2LiIh8Hwpp+Tgzv2raLs9H3cMUMAL8BHKRV73VNVAAPzKzwyxL9q53Fk5ijxIREZF4FNISTdfkSr5SqR0OwYfABnAGMf8B1hlpkgMl8KJhRTeODQpZlhwpmkVEROQ1hbR8On1j6/W3lHseLdddY96L0xOgO3F6AzSa0YzRgFMHtAB1QJ7nEL76d8zLt2PB8BSsDCE1rOzuKUZqnpSBs4SseNFxc8rv5YcY/ywiIiL/nyfZjN/lfTww6gAAAABJRU5ErkJggg==;perimeterSpacing=1;strokeWidth=1;imageBackground=#ffffff;fontFamily=Manrope;fontSource=https%3A%2F%2Ffonts.googleapis.com%2Fcss%3Ffamily%3DManrope;" parent="1" vertex="1">
          <mxGeometry x="516.76" y="-220" width="68.56" height="16.24" as="geometry" />
        </mxCell>
        <mxCell id="OBkcXNZdzhIq3iiDm8Ts-78" value="" style="shape=image;verticalLabelPosition=bottom;labelBackgroundColor=#ffffff;verticalAlign=top;aspect=fixed;imageAspect=0;image=data:image/svg+xml,PHN2ZyB4bWxucz0iaHR0cDovL3d3dy53My5vcmcvMjAwMC9zdmciIHhtbG5zOnhsaW5rPSJodHRwOi8vd3d3LnczLm9yZy8xOTk5L3hsaW5rIiB2aWV3Qm94PSIwIDAgOTMgNTEiIGZpbGw9IiNmZmYiIGZpbGwtcnVsZT0iZXZlbm9kZCIgc3Ryb2tlPSIjMDAwIiBzdHJva2UtbGluZWNhcD0icm91bmQiIHN0cm9rZS1saW5lam9pbj0icm91bmQiPjx1c2UgeGxpbms6aHJlZj0iI0EiIHg9Ii41IiB5PSIuNSIvPjxzeW1ib2wgaWQ9IkEiIG92ZXJmbG93PSJ2aXNpYmxlIj48ZyBzdHJva2U9Im5vbmUiIGZpbGwtcnVsZT0ibm9uemVybyI+PHBhdGggZD0iTTQ1LjcwNyAwYy05LjIzIDAtMTYuNzEzIDcuNDgyLTE2LjcxMyAxNi43MTNzNy40ODMgMTYuNzEzIDE2LjcxMyAxNi43MTNTNjIuNDIgMjUuOTQzIDYyLjQyIDE2LjcxMyA1NC45MzcgMCA0NS43MDcgMHptMCAzMS4yOGMtMi42MjYgMC00Ljc1NS0xLjc1NC00Ljc1NS0zLjkxOGg5LjVjMCAyLjE2My0yLjEzIDMuOTE4LTQuNzU1IDMuOTE4em03Ljg1NC01LjIxNWgtMTUuN3YtMi44NWgxNS43djIuODV6bS0uMDU2LTQuMzE1SDM3Ljg5N2wtLjE1NS0uMThjLTEuNjA4LTEuOTUzLTEuOTg3LTIuOTcyLTIuMzU0LTQtLjAwNi0uMDM0IDEuOTUuNCAzLjMzNy43MTIuNTgzLjEzIDEuMTcuMjUgMS43NTcuMzU1LTEuMDAyLTEuMTc0LTEuNTk3LTIuNjY3LTEuNTk3LTQuMTkzIDAtMy4zNSAyLjU3LTYuMjc4IDEuNjQyLTguNjQ0LjkwMi4wNzMgMS44NjcgMS45MDQgMS45MzIgNC43NjcuOTYtMS4zMjUgMS4zNi0zLjc0NiAxLjM2LTUuMjMgMC0xLjUzNyAxLjAxMy0zLjMyMiAyLjAyNS0zLjM4My0uOTAzIDEuNDg4LjIzNCAyLjc2NCAxLjI0NCA1LjkyOC4zOCAxLjIuMzMgMy4yLjYyMyA0LjQ1Ny4wOTctMi42MzUuNTUtNi40OCAyLjIyMi03LjgwNi0uNzM3IDEuNjcuMSAzLjc2My42ODggNC43NjguOTM0IDEuNjIyIDEuNSAyLjg1IDEuNSA1LjE3NmE2LjQ2IDYuNDYgMCAwIDEtMS41NDYgNC4xNzNjMS4xMDQtLjIwNyAxLjg2Ni0uMzk0IDEuODY2LS4zOTRsMy41ODQtLjdzLS41MiAyLjE0LTIuNTIyIDQuMjA0eiIgZmlsbD0iI2RhNGUzMSIvPjxwYXRoIGQ9Ik0wIDM2LjkyMmMuNzc4LS4xMyAxLjc5Ny0uMjQgMy4wOTMtLjI0IDEuNTkzIDAgMi43Ni4zNyAzLjUgMS4wMzcuNjY3LjU5MyAxLjA5MyAxLjUgMS4wOTMgMi42MTIgMCAxLjEzLS4zMzMgMi4wMi0uOTYzIDIuNjY3LS44Ny45MDgtMi4yNCAxLjM3LTMuODE2IDEuMzctLjQ4MiAwLS45MjYtLjAyLTEuMjk3LS4xdjVILjAxem0xLjYgNi4wMmMuMzUyLjA5My43OTcuMTMgMS4zMzQuMTMgMS45NDUgMCAzLjEzLS45NjMgMy4xMy0yLjY1IDAtMS42NjctMS4xODUtMi40NjMtMi45NDUtMi40NjMtLjcwNCAwLTEuMjQuMDU2LTEuNTIuMTN6bTcuODkzLjE0OGwtLjA3NC0yLjc5N2gxLjQyNmwuMDc0IDEuNzc4aC4wNTZjLjQwOC0xLjIwNCAxLjQwOC0xLjk2NCAyLjUtMS45NjQuMTY3IDAgLjI5Ni4wMi40NDUuMDM3djEuNTM3Yy0uMTY3LS4wMzctLjMzMy0uMDM3LS41NTYtLjAzNy0xLjE0OCAwLTEuOTYzLjg1Mi0yLjE4NiAyLjA3NS0uMDM4LjI1Mi0uMDU3LjUwNi0uMDU2Ljc2djQuNzhoLTEuNjNWNDMuMDl6bTEzLjk5NCAxLjZjMCAzLjMxNi0yLjMxNSA0Ljc2LTQuNDY0IDQuNzYtMi40MDggMC00LjI5Ny0xLjc3OC00LjI5Ny00LjYxMiAwLTIuOTgyIDEuOTgyLTQuNzQyIDQuNDQ2LTQuNzQyIDIuNTc1IDAgNC4zMTYgMS44NyA0LjMxNiA0LjU5NHptLTcuMDk0LjA5M2MwIDEuOTY0IDEuMSAzLjQ0NSAyLjcwNCAzLjQ0NSAxLjU1NiAwIDIuNzIzLTEuNDYzIDIuNzIzLTMuNDgyIDAtMS41Mi0uNzYtMy40MjctMi42ODYtMy40MjctMS45MDggMC0yLjc0IDEuNzc4LTIuNzQgMy40NjR6bTkuMTUyLTIuMDc2bC0uMDc0LTIuNDI2aDEuNDI2bC4wNzQgMS40NjNoLjA1NmMuNS0uODUyIDEuMzM0LTEuNjUgMi44MzQtMS42NSAxLjIwNCAwIDIuMTMuNzQgMi41MiAxLjc5N2guMDM3YTMuNTQgMy41NCAwIDAgMSAxLjAxOS0xLjE2N2MuNTM3LS40MDcgMS4xLS42MyAxLjk2My0uNjMgMS4yMDQgMCAyLjk2NC43NzggMi45NjQgMy45djUuMjZIMzYuNzd2LTUuMDU2YzAtMS43NC0uNjUtMi43Ni0xLjk0NS0yLjc2LS45NDUgMC0xLjY1LjY4NS0xLjk0NSAxLjQ2M2EyLjc5IDIuNzkgMCAwIDAtLjEzLjgxNXY1LjUzOGgtMS41OTR2LTUuMzdjMC0xLjQyNi0uNjMtMi40NDUtMS44Ny0yLjQ0NS0xIDAtMS43Ni44MTUtMi4wMiAxLjYzLS4wOTMuMjIyLS4xMy41Mi0uMTMuNzk3djUuNGgtMS41OTN2LTYuNTR6bTE2LjM1NyAyLjM1NWMuMDM3IDIuMjA0IDEuNDI2IDMuMTEyIDMuMDc1IDMuMTEyIDEuMTY3IDAgMS45LS4yMDQgMi40ODItLjQ2M2wuMjk2IDEuMTY3Yy0uNTc0LjI2LTEuNTc0LjU3NC0zIC41NzQtMi43NiAwLTQuNDA4LTEuODM0LTQuNDA4LTQuNTM4czEuNTkzLTQuODE2IDQuMjA1LTQuODE2YzIuOTQ1IDAgMy43MDUgMi41NTYgMy43MDUgNC4yMDUuMDA1LjI1NS0uMDE0LjUxLS4wNTYuNzZ6bTQuNzgtMS4xNjdjLjAyLTEuMDItLjQyNi0yLjYzLTIuMjYtMi42My0xLjY2NyAwLTIuMzcgMS41LTIuNSAyLjYzem01LjU1NS01Ljc2djIuMTVoMi4zMzR2MS4yNGgtMi4zMzR2NC44MzVjMCAxLjEuMzE1IDEuNzQgMS4yMjMgMS43NC40NDUgMCAuNzA0LS4wMzcuOTQ1LS4xbC4wNzQgMS4yNGMtLjMxNS4xLS44MTUuMjIyLTEuNDQ1LjIyMi0uNzYgMC0xLjM3LS4yNi0xLjc2LS42ODUtLjQ0NS0uNS0uNjMtMS4yOTctLjYzLTIuMzUzdi00LjloLTEuMzg3di0xLjI0aDEuNHYtMS42NTZ6bTQuMTctMi4wNDdoMS42M1Y0MS43aC4wMzdhMy4wNyAzLjA3IDAgMCAxIDEuMTY3LTEuMTY3IDMuMzQgMy4zNCAwIDAgMSAxLjY2Ny0uNDQ1YzEuMjA0IDAgMy4xMy43NCAzLjEzIDMuODE2djUuMzM0aC0xLjYzdi01LjE0YzAtMS40NDUtLjUzNy0yLjY1LTIuMDc1LTIuNjUtMS4wNTYgMC0xLjg3Ljc0LTIuMTg2IDEuNi0uMDkyLjI0LS4xLjQ4Mi0uMS43Nzh2NS40aC0xLjYzVjM2LjA5OHptMTEuMTg4IDguOTY0Yy4wMzcgMi4yMDQgMS40MjYgMy4xMTIgMy4wNzUgMy4xMTIgMS4xNjcgMCAxLjktLjIwNCAyLjQ4Mi0uNDYzbC4yOTYgMS4xNjdjLS41NzQuMjYtMS41NzQuNTc0LTMgLjU3NC0yLjc2IDAtNC40LTEuODM0LTQuNC00LjUzOHMxLjU5My00LjgxNiA0LjIwNS00LjgxNmMyLjk0NSAwIDMuNzA1IDIuNTU2IDMuNzA1IDQuMjA1LjAwNi4yNTUtLjAxMy41MS0uMDU2Ljc2em00Ljc4LTEuMTY3Yy4wMi0xLjAyLS40MjYtMi42My0yLjI2LTIuNjMtMS42NjcgMC0yLjM3IDEuNS0yLjUgMi42M3ptMTEuMDk0IDIuOWwuMDc0IDIuNDY0aC0xLjQ0NmwtLjA5My0xLjQ2M2gtLjA0N2MtLjQwOC43MjItMS4zNyAxLjY2Ny0yLjk2NCAxLjY2Ny0xLjQwOCAwLTMuMDkzLS43OTctMy4wOTMtMy45Mjd2LTUuMjQyaDEuNjN2NC45NDVjMCAxLjcwNC41MzcgMi44NyAyIDIuODcgMS4wOTMgMCAxLjg1Mi0uNzYgMi4xNS0xLjVhMi4yNCAyLjI0IDAgMCAwIC4xNDgtLjgzNHYtNS40ODNoMS42M3ptMi40ODMuODE0Yy41LjI5NiAxLjM1Mi42MyAyLjE2Ny42MyAxLjE2NyAwIDEuNzIyLS41NzQgMS43MjItMS4zMzQgMC0uNzc4LS40NjMtMS4xODUtMS42NS0xLjYzLTEuNjMtLjU5My0yLjQtMS40NjMtMi40LTIuNTM4IDAtMS40NDUgMS4xODUtMi42MyAzLjA5My0yLjYzLjkwOCAwIDEuNzA0LjI0IDIuMTg2LjU1NmwtLjQgMS4xODVjLS4zNTItLjIyMi0xLS41MzctMS44MzQtLjUzNy0uOTYzIDAtMS40ODIuNTU2LTEuNDgyIDEuMjIzIDAgLjc0LjUxOCAxLjA3NCAxLjY4NSAxLjUzNyAxLjUzNy41NzQgMi4zNTIgMS4zNTIgMi4zNTIgMi42ODYgMCAxLjU5My0xLjI0IDIuNzA0LTMuMzM0IDIuNzA0LS45ODIgMC0xLjktLjI2LTIuNTItLjYzeiIgZmlsbD0iI2U2NTIyYyIvPjwvZz48L3N5bWJvbD48L3N2Zz4=;fontFamily=Manrope;fontSource=https%3A%2F%2Ffonts.googleapis.com%2Fcss%3Ffamily%3DManrope;" parent="1" vertex="1">
          <mxGeometry x="600.0000000000001" y="-600" width="72.94" height="40" as="geometry" />
        </mxCell>
        <mxCell id="OBkcXNZdzhIq3iiDm8Ts-79" value="write to cache" style="text;html=1;strokeColor=none;fillColor=none;align=center;verticalAlign=middle;whiteSpace=wrap;rounded=0;fontSize=17;fontFamily=Manrope;fontSource=https%3A%2F%2Ffonts.googleapis.com%2Fcss%3Ffamily%3DManrope;" parent="1" vertex="1">
          <mxGeometry x="450" y="-420" width="130" height="40" as="geometry" />
        </mxCell>
        <mxCell id="OBkcXNZdzhIq3iiDm8Ts-80" value="sync remote" style="text;html=1;strokeColor=none;fillColor=none;align=center;verticalAlign=middle;whiteSpace=wrap;rounded=0;fontSize=17;fontFamily=Manrope;fontSource=https%3A%2F%2Ffonts.googleapis.com%2Fcss%3Ffamily%3DManrope;" parent="1" vertex="1">
          <mxGeometry x="467.12" y="-520" width="130" height="40" as="geometry" />
        </mxCell>
        <mxCell id="OBkcXNZdzhIq3iiDm8Ts-81" value="" style="shape=image;verticalLabelPosition=bottom;labelBackgroundColor=#ffffff;verticalAlign=top;aspect=fixed;imageAspect=0;image=data:image/svg+xml,PHN2ZyB4bWxucz0iaHR0cDovL3d3dy53My5vcmcvMjAwMC9zdmciIHhtbG5zOnhsaW5rPSJodHRwOi8vd3d3LnczLm9yZy8xOTk5L3hsaW5rIiB2aWV3Qm94PSIwIDAgNzkgODEiIGZpbGw9IiNmZmYiIGZpbGwtcnVsZT0iZXZlbm9kZCIgc3Ryb2tlPSIjMDAwIiBzdHJva2UtbGluZWNhcD0icm91bmQiIHN0cm9rZS1saW5lam9pbj0icm91bmQiPjx1c2UgeGxpbms6aHJlZj0iI0EiIHg9Ii41IiB5PSIuNSIvPjxzeW1ib2wgaWQ9IkEiIG92ZXJmbG93PSJ2aXNpYmxlIj48ZyBzdHJva2U9Im5vbmUiIGZpbGwtcnVsZT0ibm9uemVybyI+PHBhdGggZD0iTTI0LjY4NiA3Ny4zMTRjLTIuMTEyLTIuODk3LTEuNDQ4LTYuODggMS40NDgtOC45OTIuNjA0LS40MjIgMS4yNjctLjcyNCAxLjkzLS45NjZsLjEyLTIuNDE0Yy0xLjU3LS42NjQtMi44MzYtMi4zNTQtMi45NTctNC4wNDNsLTIuMzU0LS42MDNjLS40MjIuNjAzLS45MDUgMS4wODYtMS41MSAxLjUxLTIuODk3IDIuMTEyLTYuOTQgMS40NDgtOC45OTItMS40NDgtMi4xMTItMi44OTctMS40NDgtNi44OCAxLjQ0OC04Ljk5MnM2Ljg4LTEuNDQ4IDguOTkyIDEuNDQ4Yy41NDMuNzg1Ljk2NiAxLjcgMS4xNDcgMi41OTVsNC4xMDQgMS4wODZjMS4wODYtLjQyMiAyLjI5My0uNDgzIDMuMzgtLjA2bDIuMzU0LTEuN2MtLjYwNC0yLjQ3NC4zNjItNS4yIDIuNDc0LTYuNyAyLjg5Ny0yLjExMiA2Ljk0LTEuNDQ4IDguOTkyIDEuNDQ4IDIuMTEyIDIuODM2IDEuNDQ4IDYuODgtMS40NDggOC45OTItMi4xMTIgMS41MS00Ljk1IDEuNjMtNy4xMi4zMDJsLTIuMzU0IDEuN2MuMDYgMS4xNDctLjM2MiAyLjI5My0xLjA4NiAzLjJsLS4yNCA0LjIyNGMuODQ1LjQ4MyAxLjU3IDEuMDg2IDIuMTEyIDEuODcgMi4wNTIgMi44OTcgMS40NDggNi44OC0xLjQ0OCA4Ljk5Mi0yLjgzNiAyLjExMi02Ljg4IDEuNDQ4LTguOTkyLTEuNDQ4aDB6IiBmaWxsPSIjMDY5MGJhIi8+PHBhdGggZD0iTTMzLjY4IDcwLjc5N2MtLjY2NC0uOTA1LTEuNTctMS41MS0yLjUzNS0xLjc1bC4zNjItNi4xNTZjLjk2Ni0uNzg1IDEuMzI4LTIuMDUyLjkwNS0zLjJsNC4zNDUtMy4xMzhhNC42IDQuNiAwIDAgMCA2LjAzNS40ODNjMi4xMTItMS41MSAyLjUzNS00LjQwNSAxLjAyNi02LjUxOC0xLjUxLTIuMDUyLTQuNDA1LTIuNTM1LTYuNTE4LTEuMDI2LTEuODcgMS4zODgtMi40NzQgMy45MjMtMS4zODggNS45MTRsLTQuNDA1IDMuMTM4Yy0uOTA1LS43ODUtMi4yMzMtLjg0NS0zLjMyLS4xOGwtNS45NzUtMS41N2MuMDYtMS4wMjYtLjI0LTIuMTEyLS44NDUtMi45NTctMS41MS0yLjA1Mi00LjQ2Ni0yLjUzNS02LjUxOC0xLjAyNi0yLjExMiAxLjUxLTIuNTM1IDQuNDA1LTEuMDI2IDYuNTE4czQuNDA2IDIuNTM1IDYuNTE4IDEuMDI2Yy43ODUtLjYwMyAxLjMyOC0xLjMyOCAxLjYzLTIuMTczbDUuMjUgMS4zODhjLS40MjIuODQ1LS4zMDIgMS45My4zMDIgMi43MTYuNjA0Ljg0NSAxLjU3IDEuMjA3IDIuNTM1IDEuMTQ3bC0uMzAyIDUuNDNjLS45MDUgMC0xLjguMzAyLTIuNTk1LjkwNS0yLjA1MiAxLjUxLTIuNTM1IDQuNDA2LTEuMDI2IDYuNTE4czQuNDA2IDIuNTM1IDYuNTE4IDEuMDI2IDIuNTM1LTQuNDA1IDEuMDI2LTYuNTE4aDB6bTQuNzY4LTE5LjY3NGMxLjIwNy0uODQ1IDIuODM2LS42MDQgMy42OC42MDNzLjYwMyAyLjgzNi0uNjAzIDMuNjhjLS45NjYuNzI0LTIuMjkzLjY2NC0zLjItLjA2bC43ODUtLjYwM2MuNTQzLjMwMiAxLjMyOC4zMDIgMS44Ny0uMTIuNzg1LS41NDMuOTY2LTEuNjMuMzYyLTIuNDE0LS41NDMtLjc4NS0xLjYzLS45NjYtMi40MTQtLjM2Mi0uNTQzLjQyMi0uNzg1IDEuMDg2LS42NjQgMS43NWwtLjc4NS42MDNhMi43OCAyLjc4IDAgMCAxIC45NjYtMy4wNzhoMHptLTE5LjE5IDcuNzI1Yy0xLjI2Ny45MDUtMy4wMTcuNjAzLTMuOTIzLS42NjRzLS42MDQtMy4wMTcuNjY0LTMuOTIzIDMuMDE3LS42MDMgMy45MjMuNjAzYy4zMDIuNDIyLjQ4My45MDUuNTQzIDEuMzg4bC0uOTY2LS4yNGMtLjA2LS4xOC0uMTItLjQyMi0uMzAyLS42MDMtLjYwMy0uODQ1LTEuOC0xLjAyNi0yLjY1NS0uNDIycy0xLjAyNiAxLjgtLjQyMiAyLjY1NSAxLjggMS4wMjYgMi42NTUuNDIyYy4yNC0uMTguNDIyLS40MjIuNTQzLS42NjRsLjkwNS4yNGMtLjI0LjQ4My0uNTQzLjkwNS0uOTY2IDEuMjA3aDB6bTguMzkgMTYuMzU1Yy0uOTA1LTEuMjY3LS42MDMtMy4wMTcuNjA0LTMuOTIzLjQyMi0uMzAyLjkwNS0uNDgzIDEuMzg4LS41NDNsLS4wNi45NjZjLS4zMDIuMDYtLjU0My4xMi0uNzg1LjMwMi0uODQ1LjYwMy0xLjAyNiAxLjgtLjQyMiAyLjY1NXMxLjggMS4wMjYgMi42NTUuNDIyIDEuMDI2LTEuOC40MjItMi42NTVjLS4xMi0uMTgtLjMwMi0uMzAyLS40ODMtLjQyMmwuMDYtMS4wMjZhMi43NCAyLjc0IDAgMCAxIDEuMTQ3LjkwNWMuOTA1IDEuMjY3LjYwNCAzLjAxNy0uNjY0IDMuOTIzLTEuMjA3Ljk2Ni0yLjk1Ny42NjQtMy44NjItLjYwM2gweiIgZmlsbD0iI2MzZThmMiIvPjxwYXRoIGQ9Ik03Mi4xMiA2Ny41MzhjLTMuMzggMS4wODYtNy0uNzg1LTguMDg3LTQuMTY0LS4yNC0uNzI0LS4zMDItMS4zODgtLjMwMi0yLjExMmwtMi4yOTMtLjg0NWMtMS4wODYgMS4zMjgtMy4xMzggMS45My00Ljc2OCAxLjUxbC0xLjMyOCAyLjA1MmMuNDIyLjU0My43ODUgMS4yMDcuOTY2IDEuOTMgMS4wODYgMy4zOC0uNzg1IDctNC4xNjQgOC4xNDctMy4zOCAxLjA4Ni03LS43ODUtOC4wODctNC4xNjRzLjc4NS03IDQuMTY0LTguMDg3Yy45MDUtLjMwMiAxLjg3LS4zNjIgMi44MzYtLjI0bDIuMjkzLTMuNTZjLS4wNi0xLjE0Ny4yNC0yLjI5MyAxLjAyNi0zLjJsLS45MDUtMi43NzZjLTIuNTM1LS4xOC00Ljc2OC0xLjk5Mi01LjYxMi00LjQwNS0xLjA4Ni0zLjM4Ljc4NS03IDQuMTY0LTguMDg3czcgLjc4NSA4LjA4NyA0LjE2NGMuNzg1IDIuNDc0IDAgNS4yLTEuOTMgNi44OGwuOTA1IDIuNzc2YzEuMTQ3LjMwMiAyLjExMiAxLjAyNiAyLjcxNiAyLjA1MmwyLjg5NyAxLjM4OGMuNzI0LS42NjQgMi41OTUtMS4wMjYgMy41LTEuMzI4IDMuMzgtMS4wODYgNyAuNzg1IDguMTQ3IDQuMTY0IDEuMDI2IDMuMi0uODQ1IDYuODItNC4yMjQgNy45MDZoMHoiIGZpbGw9IiMwNjkwYmEiLz48cGF0aCBkPSJNNjguNjggNTYuOTc3Yy0xLjAyNi4zNjItMS45MyAxLjAyNi0yLjQ3NCAxLjg3bC01Ljc5NC0yLjIzM2MtLjQyMi0xLjE0Ny0xLjU3LTEuODctMi43NzYtMS44bC0xLjYzLTUuMDdjMi4wNTItMS4wMjYgMy4wNzgtMy4zOCAyLjM1NC01LjYxMi0uNzg1LTIuNDc0LTMuNDQtMy44MDItNS44NTQtMy4wMTdzLTMuODAyIDMuNDQtMy4wMTcgNS44NTRjLjcyNCAyLjIzMyAyLjk1NyAzLjU2IDUuMiAzLjEzOGwxLjYzIDUuMTNhMi42OSAyLjY5IDAgMCAwLTEuMTQ3IDMuMDc4bC0zLjM4IDUuMmMtLjk2Ni0uMzYyLTIuMDUyLS40MjItMy4wNzgtLjEyLTIuNDc0Ljc4NS0zLjgwMiAzLjQ0LTMuMDE3IDUuODU0Ljc4NSAyLjQ3NCAzLjQ0IDMuODAyIDUuODU0IDMuMDE3IDIuNDc0LS43ODUgMy44MDItMy40NCAzLjAxNy01Ljg1NC0uMzAyLS45MDUtLjg0NS0xLjctMS41Ny0yLjIzM2wyLjk1Ny00LjU4N2EyLjc4IDIuNzggMCAwIDAgMi43MTYuNjAzYy45NjYtLjMwMiAxLjYzLTEuMDg2IDEuODctMi4wNTJsNS4wNyAxLjk5MmE0LjY0IDQuNjQgMCAwIDAgLjA2IDIuNzE2Yy43ODUgMi40NzQgMy40NCAzLjgwMiA1Ljg1NCAzLjAxNyAyLjQ3NC0uNzg1IDMuODAyLTMuNDQgMy4wMTctNS44NTQtLjc4NS0yLjQ3NC0zLjM4LTMuODAyLTUuODU0LTMuMDE3aDB6bS0xNy4yLTEwLjYyYy0uNDIyLTEuMzg4LjMwMi0yLjg5NyAxLjctMy4zMiAxLjM4OC0uNDgzIDIuODk3LjMwMiAzLjMyIDEuNy4zNjIgMS4xNDctLjEyIDIuNDE0LTEuMDg2IDMuMDE3bC0uMzAyLS45MDVjLjQ4My0uNDIyLjcyNC0xLjE0Ny40ODMtMS44YTEuNzEgMS43MSAwIDAgMC0zLjI1OSAxLjA4NiAxLjg1IDEuODUgMCAwIDAgMS40NDggMS4yMDdsLjMwMi45NjZjLTEuMTQ3LS4wNi0yLjIzMy0uNzg1LTIuNTk1LTEuOTNoMHptMS4zODggMjAuNjRjLjQ4MyAxLjUxLS4zNjIgMy4wNzgtMS44IDMuNTYtMS41MS40ODMtMy4wNzgtLjM2Mi0zLjU2LTEuOHMuMzYyLTMuMDc4IDEuOC0zLjU2Yy40ODMtLjE4IDEuMDI2LS4xOCAxLjUxLS4wNmwtLjU0My44NDVjLS4xOCAwLS40MjIgMC0uNjY0LjA2LS45NjYuMzAyLTEuNTEgMS4zODgtMS4yMDcgMi40MTQuMzAyLjk2NiAxLjM4OCAxLjUxIDIuNDE0IDEuMjA3Ljk2Ni0uMzAyIDEuNTEtMS4zODggMS4yMDctMi4zNTQtLjEyLS4zMDItLjI0LS41NDMtLjQ4My0uNzI0bC41NDMtLjc4NWMuMzAyLjMwMi42MDMuNzI0Ljc4NSAxLjIwN2gwem0xOC4xMDUtMi44OTdjLTEuNTEuNDgzLTMuMDc4LS4zNjItMy41Ni0xLjgtLjE4LS40ODMtLjE4LTEuMDI2LS4wNi0xLjUxbC45MDUuMzYyYy0uMDYuMzAyLS4wNi42MDMuMDYuODQ1LjMwMiAxLjAyNiAxLjM4OCAxLjUxIDIuNDE0IDEuMjA3czEuNTctMS4zODggMS4yMDctMi40MTRjLS4zMDItLjk2Ni0xLjM4OC0xLjUxLTIuNDE0LTEuMjA3LS4xOC4wNi0uNDIyLjE4LS41NDMuMzAybC0uOTY2LS4zNjJjLjMwMi0uMzYyLjcyNC0uNjY0IDEuMjY3LS44NDUgMS41MS0uNDgzIDMuMDc4LjM2MiAzLjU2IDEuOC40MjIgMS41Ny0uMzYyIDMuMTM4LTEuODcgMy42MmgweiIgZmlsbD0iI2MzZThmMiIvPjxwYXRoIGQ9Ik03NyAxOS45MjJjMCAzLjU2LTIuODk3IDYuNDU3LTYuNDU3IDYuNDU3LS43MjQgMC0xLjQ0OC0uMTItMy4yLS40ODNsLTEuNTEgMS44N2MxLjkzIDEuNTcgMS45MyAzLjY4IDEuMDI2IDUuMTNsMS41MSAxLjg3Yy42NjQtLjI0IDEuMzg4LS4zNjIgMi4xMTItLjM2MiAzLjU2IDAgNi40NTcgMi44OTcgNi40NTcgNi40NTdzLTIuODk3IDYuNDU3LTYuNDU3IDYuNDU3LTYuNDU3LTIuODk3LTYuNDU3LTYuNDU3YzAtLjk2Ni4yNC0xLjkzLjYwMy0yLjc3NmwtMi42NTUtMy4yNmMtMS4xNDctLjMwMi0yLjExMi0uOTY2LTIuNzc2LTEuOTNINTYuM2MtLjg0NSAyLjM1NC0zLjIgMy45MjMtNS43OTQgMy45MjMtMy41NiAwLTYuNDU3LTIuODk3LTYuNDU3LTYuNDU3czIuODk3LTYuNDU3IDYuNDU3LTYuMzk3YTYuNDYgNi40NiAwIDAgMSA1LjkxNCAzLjk4M2gyLjg5N2MuNjY0LS45NjYgMS42My0xLjcgMi43NzYtMS45M2wyLjY1NS0zLjI2Yy0uNDIyLS44NDUtLjYwNC0xLjgtLjYwNC0yLjc3NiAwLTMuNTYgMi44OTctNi40NTcgNi40NTctNi40NTdTNzcgMTYuNDIyIDc3IDE5LjkyMmgweiIgZmlsbD0iIzA2OTBiYSIvPjxwYXRoIGQ9Ik02NS45MDUgMTkuOTIyYzAgMS4wODYuMzYyIDIuMTEyIDEuMDI2IDIuODk3bC0zLjkyMyA0Ljc2OGMtMS4yMDcuMDYtMi4yOTMuOTA1LTIuNTk1IDIuMDUyaC01LjM3Yy0uMzYyLTIuMjMzLTIuMjkzLTMuOTgzLTQuNTg3LTMuOTgzYTQuNjEgNC42MSAwIDAgMC00LjY0NyA0LjY0NyA0LjY1IDQuNjUgMCAwIDAgNC42NDcgNC42NDdjMi4zNTQgMCA0LjI4NS0xLjc1IDQuNjQ3LTMuOTgzaDUuMzdjLjMwMiAxLjE0NyAxLjMyOCAxLjk5MiAyLjU5NSAyLjA1MmwzLjkyMyA0Ljc2OGMtLjY2NC43ODUtMS4wMjYgMS44LTEuMDI2IDIuODk3YTQuNjUgNC42NSAwIDAgMCA0LjY0NyA0LjY0NyA0LjY1IDQuNjUgMCAwIDAgNC42NDctNC42NDcgNC42MSA0LjYxIDAgMCAwLTQuNjQ3LTQuNjQ3IDQuNyA0LjcgMCAwIDAtMi41OTUuNzg1bC0zLjQ0LTQuMjI0Yy44NDUtLjQ4MyAxLjM4OC0xLjM4OCAxLjM4OC0yLjM1NCAwLTEuMDI2LS41NDMtMS45My0xLjM4OC0yLjQxNGwzLjQ0LTQuMjI0YTQuNyA0LjcgMCAwIDAgMi41OTUuNzg1IDQuNjUgNC42NSAwIDAgMCA0LjY0Ny00LjY0NyA0LjY1IDQuNjUgMCAwIDAtNC42NDctNC42NDdjLTIuNTk1LjE4LTQuNzA3IDIuMjkzLTQuNzA3IDQuODI4aDB6bS0xNS4zOSAxMy4wOTZhMi42OCAyLjY4IDAgMCAxLTIuNjU1LTIuNjU1IDIuNjggMi42OCAwIDAgMSAyLjY1NS0yLjY1NWMxLjIwNyAwIDIuMjMzLjg0NSAyLjUzNSAxLjkzaC0uOTY2Yy0uMjQtLjYwMy0uODQ1LTEuMDI2LTEuNTctMS4wMjYtLjk2NiAwLTEuNy43ODUtMS43IDEuNyAwIC45NjYuNzg1IDEuNzUgMS43IDEuNzUuNzI0IDAgMS4zMjgtLjQyMiAxLjU3LTEuMDI2aC45NjZjLS4zMDIgMS4yMDctMS4zMjggMS45OTItMi41MzUgMS45OTJoMHptMjAuMDM2IDUuMDdjMS41NyAwIDIuODM2IDEuMjY3IDIuODM2IDIuODM2cy0xLjI2NyAyLjgzNi0yLjgzNiAyLjgzNi0yLjgzNi0xLjI2Ny0yLjgzNi0yLjgzNmMwLS41NDMuMTgtMS4wMjYuNDIyLTEuNDQ4bC42NjQuNzg1YTIuMTcgMi4xNyAwIDAgMC0uMTIxLjY2NCAxLjg4IDEuODggMCAwIDAgMS44NzEgMS44NzEgMS44OCAxLjg4IDAgMCAwIDEuODcxLTEuODcxIDEuODggMS44OCAwIDAgMC0xLjg3MS0xLjg3MWMtLjMwMiAwLS42MDMuMDYtLjg0NS4xOGwtLjYwNC0uNzI0Yy40MjItLjMwMi45NjYtLjQyMiAxLjQ0OC0uNDIyaDB6bTIuODM2LTE4LjE2NWMwIDEuNTctMS4yNjcgMi44MzYtMi44MzYgMi44MzYtLjU0MyAwLTEuMDI2LS4xMi0xLjQ0OC0uNDIybC42MDQtLjcyNGMuMjQuMTIuNTQzLjE4Ljg0NS4yNGExLjg4IDEuODggMCAwIDAgMS44NzEtMS44NzEgMS44OCAxLjg4IDAgMCAwLTEuODcxLTEuODcxIDEuODggMS44OCAwIDAgMC0xLjg3MSAxLjg3MWMwIC4yNC4wNi40MjIuMTIuNjAzbC0uNjY0Ljc4NWMtLjI0LS40MjItLjQyMi0uOTA1LS40MjItMS40NDggMC0xLjU3IDEuMjY3LTIuODM2IDIuODM2LTIuODM2IDEuNTcuMDYgMi44MzYgMS4yNjcgMi44MzYgMi44MzZoMHoiIGZpbGw9IiNjM2U4ZjIiLz48cGF0aCBkPSJNMzMuMjU2LjMxYTYuNDIgNi40MiAwIDAgMSA0LjEwNCA4LjE0N2MtLjI0LjcyNC0uNTQzIDEuMzI4LTEuMDI2IDEuOTNsMS4zMjggMi4wNTJjMS43LS40MjIgMy42OC4yNCA0Ljc2OCAxLjU3bDIuMjkzLS44NDVjMC0uNzI0LjEyLTEuNDQ4LjMwMi0yLjExMmE2LjQyIDYuNDIgMCAwIDEgOC4xNDctNC4xMDRjMy4zOCAxLjA4NiA1LjI1IDQuNzA3IDQuMTA0IDguMTQ3YTYuNDIgNi40MiAwIDAgMS04LjE0NyA0LjEwNGMtLjkwNS0uMzAyLTEuNzUtLjc4NS0yLjQxNC0xLjQ0OGwtMy45MjMgMS41MWMtLjYwNC45NjYtMS41NyAxLjc1LTIuNzE2IDIuMDUybC0uOTA1IDIuNzc2YzEuOTMgMS43IDIuNzE2IDQuNDA2IDEuOTMgNi44OGE2LjQyIDYuNDIgMCAwIDEtOC4xNDcgNC4xMDRjLTMuMzItMS4yNjctNS4yLTQuODg4LTQuMTA0LTguMjY4Ljc4NS0yLjQ3NCAzLjA3OC00LjIyNCA1LjYxMi00LjQwNWwuOTA1LTIuNzc2Yy0uNzI0LS45MDUtMS4wODYtMi4wNTItLjk2Ni0zLjI2TDMyLjExIDEyLjhjLS45NjYuMTItMS45My4wNi0yLjgzNi0uMjQtMy4zOC0xLjA4Ni01LjI1LTQuNzA3LTQuMTY0LTguMDg3IDEuMTQ3LTMuMzggNC43NjgtNS4yNSA4LjE0Ny00LjE2NGgweiIgZmlsbD0iIzA2OTBiYSIvPjxwYXRoIGQ9Ik0yOS44MTcgMTAuODdjMS4wMjYuMzYyIDIuMTEyLjMwMiAzLjA3OC0uMDZsMy4zMiA1LjJjLS4zNjIgMS4yMDcuMTggMi40MTQgMS4xNDcgMy4wNzhsLTEuNyA1LjA3Yy0yLjIzMy0uMzYyLTQuNDY2LjkwNS01LjIgMy4xMzgtLjc4NSAyLjQ3NC41NDMgNS4wNyAyLjk1NyA1LjkxNCAyLjQxNC43ODUgNS4wNy0uNTQzIDUuOTE0LTIuOTU3LjcyNC0yLjIzMy0uMzAyLTQuNTg3LTIuMzU0LTUuNjEybDEuNy01LjA3YzEuMjA3LjA2IDIuMzU0LS42NjQgMi43NzYtMS44bDUuNzk0LTIuMjMzYy41NDMuODQ1IDEuMzg4IDEuNTcgMi40NzQgMS44NyAyLjQ3NC43ODUgNS4wNy0uNTQzIDUuOTE0LTMuMDE3Ljc4NS0yLjQ3NC0uNTQzLTUuMDctMy4wMTctNS45MTQtMi40NzQtLjc4NS01LjA3LjU0My01LjkxNCAyLjk1N2E0LjY0IDQuNjQgMCAwIDAtLjA2IDIuNzE2bC01LjA3IDEuOTkyYy0uMTgtLjkwNS0uODQ1LTEuNzUtMS44LTIuMDUyYTIuOTEgMi45MSAwIDAgMC0yLjcxNi41NDNMMzQuMSAxMC4wMjVjLjcyNC0uNTQzIDEuMjY3LTEuMzI4IDEuNTctMi4yMzMuNzg1LTIuNDc0LS41NDMtNS4wNy0zLjAxNy01Ljg1NHMtNS4wNy41NDMtNS44NTQgMy4wMTcuNTQzIDUuMTMgMy4wMTcgNS45MTRoMHptNy42NjQgMTguNzdjLS40ODMgMS4zODgtMS45MyAyLjE3My0zLjMyIDEuN3MtMi4xNzMtMS45My0xLjctMy4zMmMuMzYyLTEuMTQ3IDEuNTEtMS44NyAyLjY1NS0xLjhsLS4zMDIuOTA1Yy0uNjY0LjA2LTEuMjA3LjU0My0xLjQ0OCAxLjE0N2ExLjcxIDEuNzEgMCAwIDAgMy4yNTkgMS4wODZjLjI0LS42NjQgMC0xLjM4OC0uNDgzLTEuOGwuMzAyLS45NjZjLjk2Ni42NjQgMS40NDggMS44NyAxLjAyNiAzLjA3OGgwem0xMC45ODQtMTcuNTYyYy40ODMtMS41MSAyLjA1Mi0yLjI5MyAzLjU2LTEuOCAxLjQ0OC40ODMgMi4yOTMgMi4xMTIgMS44IDMuNTZzLTIuMDUyIDIuMjkzLTMuNTYgMS44Yy0uNDgzLS4xOC0uOTA1LS40ODMtMS4yMDctLjg0NWwuOTY2LS4zNjJjLjE4LjEyLjM2Mi4yNC42MDMuMzAyLjk2Ni4zMDIgMi4wNTItLjI0IDIuMzU0LTEuMjA3cy0uMjQtMi4wNTItMS4yMDctMi4zNTQtMi4wNTIuMjQtMi40MTQgMS4yMDdjLS4wNi4zMDItLjEyLjYwMy0uMDYuODQ1bC0uOTA1LjM2MmMtLjA2LS40ODMtLjA2LTEuMDI2LjA2LTEuNTFoMHpNMzIuMSAzLjc1YzEuNTEuNDgzIDIuMjkzIDIuMDUyIDEuOCAzLjU2LS4xOC40ODMtLjQyMi45MDUtLjg0NSAxLjI2N2wtLjQ4My0uNzg1YTIuMTcgMi4xNyAwIDAgMCAuNDgzLS43MjRjLjMwMi0xLjAyNi0uMjQtMi4wNTItMS4yMDctMi40MTQtLjk2Ni0uMzAyLTIuMDUyLjI0LTIuNDE0IDEuMjA3LS4zMDIuOTY2LjI0IDIuMDUyIDEuMjA3IDIuMzU0LjE4LjA2LjQyMi4xMi42MDQuMDZsLjU0My44NDVjLS40ODMuMTItLjk2Ni4xMi0xLjUxLS4wNi0xLjUxLS40ODMtMi4yOTMtMi4wNTItMS44LTMuNTYuNTQzLTEuMzg4IDIuMTczLTIuMjMzIDMuNjItMS43NWgweiIgZmlsbD0iI2MzZThmMiIvPjxwYXRoIGQ9Ik0xMC4yMDMgMzQuMjg1Yy42MDMuNDIyIDEuMDg2Ljk2NiAxLjUxIDEuNTdsMi4zNTQtLjYwM2MuMTItMS43IDEuMzg4LTMuNDQgMi45NTctNC4wNDNsLS4xMi0yLjQxNGMtLjY2NC0uMTgtMS4zMjgtLjU0My0xLjkzLS45NjYtMi44MzYtMi4xNzMtMy41LTYuMjE2LTEuMzg4LTkuMTEzczYuMDk1LTMuNSA4Ljk5Mi0xLjM4OGMyLjgzNiAyLjExMiAzLjUgNi4wOTUgMS4zODggOC45OTItLjU0My43ODUtMS4yNjcgMS4zODgtMi4xMTIgMS44N2wuMjQgNC4yMjRjLjcyNC45MDUgMS4xNDcgMi4wNTIgMS4wODYgMy4ybDIuMzU0IDEuN2MyLjE3My0xLjMyOCA1LjAxLTEuMjA3IDcuMTIuMzAyIDIuODk3IDIuMTEyIDMuNSA2LjE1NiAxLjM4OCA4Ljk5Mi0yLjA1MiAyLjg5Ny02LjA5NSAzLjUtOC45OTIgMS40NDgtMi4xMTItMS41MS0zLjA3OC00LjIyNC0yLjQ3NC02LjdsLTIuMzU0LTEuN2MtMS4wODYuNDIyLTIuMjkzLjQyMi0zLjM4LS4wNmwtNC4xMDQgMS4wODZjLS4xOC45NjYtLjU0MyAxLjg3LTEuMTQ3IDIuNTk1LTIuMDUyIDIuODM2LTYuMDM1IDMuNS04LjkzMiAxLjM4OC0yLjg5Ny0yLjA1Mi0zLjUtNi4wOTUtMS40NDgtOC45OTIgMi4xMTItMi44OTcgNi4wOTUtMy41IDguOTkyLTEuMzg4eiIgZmlsbD0iIzA2OTBiYSIvPjxwYXRoIGQ9Ik0xMC4yMDMgNDIuMjUyYy42NjQtLjkwNS45NjYtMS45My45MDUtMi45NTdsNS45NzUtMS41N2EyLjgxIDIuODEgMCAwIDAgMy4zMTktLjE4MWw0LjM0NSAzLjEzOGMtMS4wMjYgMS45OTItLjQ4MyA0LjUyNiAxLjM4OCA1LjkxNCAyLjExMiAxLjUxIDUuMDEgMS4wODYgNi41MTgtMS4wMjYgMS41MS0yLjA1MiAxLjA4Ni01LjAxLTEuMDI2LTYuNTE4LTEuODctMS4zODgtNC40NjYtMS4xNDctNi4wOTUuNDgzbC00LjM0NS0zLjEzOGMuNDIyLTEuMDg2LjEyLTIuNDE0LS44NDUtMy4ybC0uMzYyLTYuMTU2YTQuMTcgNC4xNyAwIDAgMCAyLjUzNS0xLjc1YzEuNTEtMi4xMTIgMS4wMjYtNS4wMS0xLjAyNi02LjUxOHMtNS4wMS0xLjA4Ni02LjUxOCAxLjAyNmMtMS41MSAyLjA1Mi0xLjA4NiA1LjAxIDEuMDI2IDYuNTE4Ljc4NS41NDMgMS43Ljg0NSAyLjU5NS45MDVsLjMwMiA1LjQzYy0uOTY2LS4xMi0xLjkzLjMwMi0yLjUzNSAxLjE0N2EyLjc3IDIuNzcgMCAwIDAtLjMwMiAyLjcxNmwtNS4yNSAxLjM4OGMtLjMwMi0uODQ1LS44NDUtMS42My0xLjYzLTIuMTczLTIuMTEyLTEuNTEtNS4wMS0xLjAyNi02LjUxOCAxLjAyNnMtMS4wODYgNS4wMSAxLjAyNiA2LjUxOCA1LjAxIDEuMDI2IDYuNTE4LTEuMDI2aDB6bTIwLjIxNy0xLjU3YzEuMjA3Ljg0NSAxLjQ0OCAyLjUzNS42MDMgMy42OC0uODQ1IDEuMjA3LTIuNTM1IDEuNDQ4LTMuNjguNjA0LS45NjYtLjcyNC0xLjMyOC0xLjk5Mi0uOTA1LTMuMDc4bC43ODUuNjA0Yy0uMTIuNjY0LjEyIDEuMzI4LjY2NCAxLjc1Ljc4NS41NDMgMS44Ny4zNjIgMi40MTQtLjM2Mi41NDMtLjc4NS40MjItMS44Ny0uMzYyLTIuNDE0LS41NDMtLjQyMi0xLjMyOC0uNDIyLTEuODctLjEybC0uOTA1LS42MDNjLjk2Ni0uNzI0IDIuMjMzLS43ODUgMy4yNi0uMDZoMHpNMTcuMDgyIDI0LjgxYy0xLjI2Ny0uOTA1LTEuNTEtMi43MTYtLjYwNC0zLjkyMy45MDUtMS4yNjcgMi43MTYtMS41MSAzLjkyMy0uNjAzIDEuMjY3LjkwNSAxLjU3IDIuNzE2LjYwNCAzLjkyM2EyLjc0IDIuNzQgMCAwIDEtMS4xNDcuOTA1bC0uMDYtMS4wMjZjLjE4LS4xMi4zNjItLjI0LjQ4My0uNDIyLjYwMy0uODQ1LjQyMi0yLjA1Mi0uNDIyLTIuNjU1cy0yLjA1Mi0uNDIyLTIuNjU1LjQyMi0uNDIyIDIuMDUyLjQyMiAyLjY1NWMuMjQuMTguNTQzLjMwMi43ODUuMzAybC4wNi45NjZjLS40MjItLjA2LS45MDUtLjI0LTEuMzg4LS41NDNoMHpNNC4xNjggMzcuODQ2Yy45MDUtMS4yNjcgMi43MTYtMS41NyAzLjkyMy0uNjAzLjQyMi4zMDIuNzI0LjcyNC45NjYgMS4xNDdsLS45NjYuMjRjLS4xMi0uMjQtLjMwMi0uNDgzLS41NDMtLjY2NC0uODQ1LS42MDMtMi4wNTItLjQyMi0yLjY1NS40MjJzLS40MjIgMi4wNTIuNDIyIDIuNjU1IDIuMDUyLjQyMiAyLjY1NS0uNDIyYy4xMi0uMTguMjQtLjM2Mi4zMDItLjYwM2wxLjAyNi0uMjRjLS4wNi40ODMtLjE4Ljk2Ni0uNTQzIDEuMzg4LS45MDUgMS4yNjctMi42NTUgMS41MS0zLjkyMy42MDMtMS4zMjgtLjkwNS0xLjU3LTIuNzE2LS42NjQtMy45MjNoMHoiIGZpbGw9IiNjM2U4ZjIiLz48L2c+PC9zeW1ib2w+PC9zdmc+;fontFamily=Manrope;fontSource=https%3A%2F%2Ffonts.googleapis.com%2Fcss%3Ffamily%3DManrope;" parent="1" vertex="1">
          <mxGeometry x="199.30999999999995" y="-598.33" width="37.38" height="38.33" as="geometry" />
        </mxCell>
        <mxCell id="OBkcXNZdzhIq3iiDm8Ts-82" value="&lt;font style=&quot;font-size: 12px&quot; color=&quot;#000000&quot;&gt;&lt;span style=&quot;font-size: 12px&quot;&gt;InfluxDB&lt;/span&gt;&lt;/font&gt;" style="text;html=1;resizable=0;points=[];autosize=1;align=center;verticalAlign=middle;spacingTop=-4;fontSize=12;fontFamily=Manrope;fontColor=#001135;fontSource=https%3A%2F%2Ffonts.googleapis.com%2Fcss%3Ffamily%3DManrope;" parent="1" vertex="1">
          <mxGeometry x="182.99500000000035" y="-618.33" width="70" height="20" as="geometry" />
        </mxCell>
        <mxCell id="OBkcXNZdzhIq3iiDm8Ts-83" value="router" style="rounded=1;whiteSpace=wrap;html=1;fillColor=#f5f5f5;fontColor=#333333;strokeColor=#666666;fontFamily=Manrope;fontSource=https%3A%2F%2Ffonts.googleapis.com%2Fcss%3Ffamily%3DManrope;" parent="1" vertex="1">
          <mxGeometry x="152" y="-130" width="70" height="40" as="geometry" />
        </mxCell>
        <mxCell id="OBkcXNZdzhIq3iiDm8Ts-86" style="edgeStyle=orthogonalEdgeStyle;rounded=0;orthogonalLoop=1;jettySize=auto;html=1;exitX=0.5;exitY=0;exitDx=0;exitDy=0;entryX=0.5;entryY=1;entryDx=0;entryDy=0;fontSize=23;startArrow=classic;startFill=1;endArrow=classic;endFill=1;strokeWidth=1;fontFamily=Manrope;fontSource=https%3A%2F%2Ffonts.googleapis.com%2Fcss%3Ffamily%3DManrope;" parent="1" source="OBkcXNZdzhIq3iiDm8Ts-84" target="OBkcXNZdzhIq3iiDm8Ts-57" edge="1">
          <mxGeometry relative="1" as="geometry" />
        </mxCell>
        <mxCell id="OBkcXNZdzhIq3iiDm8Ts-84" value="router" style="rounded=1;whiteSpace=wrap;html=1;fillColor=#f5f5f5;fontColor=#333333;strokeColor=#666666;fontFamily=Manrope;fontSource=https%3A%2F%2Ffonts.googleapis.com%2Fcss%3Ffamily%3DManrope;" parent="1" vertex="1">
          <mxGeometry x="282" y="-130" width="70" height="40" as="geometry" />
        </mxCell>
        <mxCell id="OBkcXNZdzhIq3iiDm8Ts-87" style="edgeStyle=orthogonalEdgeStyle;rounded=0;orthogonalLoop=1;jettySize=auto;html=1;exitX=0.5;exitY=0;exitDx=0;exitDy=0;fontSize=23;startArrow=classic;startFill=1;endArrow=classic;endFill=1;strokeWidth=1;fontFamily=Manrope;fontSource=https%3A%2F%2Ffonts.googleapis.com%2Fcss%3Ffamily%3DManrope;" parent="1" source="OBkcXNZdzhIq3iiDm8Ts-27" edge="1">
          <mxGeometry relative="1" as="geometry">
            <mxPoint x="605" y="-240" as="targetPoint" />
          </mxGeometry>
        </mxCell>
        <mxCell id="OBkcXNZdzhIq3iiDm8Ts-88" style="edgeStyle=orthogonalEdgeStyle;rounded=0;orthogonalLoop=1;jettySize=auto;html=1;exitX=0.5;exitY=0;exitDx=0;exitDy=0;fontSize=23;startArrow=classic;startFill=1;endArrow=classic;endFill=1;strokeWidth=1;entryX=0.5;entryY=1;entryDx=0;entryDy=0;fontFamily=Manrope;fontSource=https%3A%2F%2Ffonts.googleapis.com%2Fcss%3Ffamily%3DManrope;" parent="1" source="OBkcXNZdzhIq3iiDm8Ts-35" target="OBkcXNZdzhIq3iiDm8Ts-64" edge="1">
          <mxGeometry relative="1" as="geometry">
            <mxPoint x="610" y="-240" as="targetPoint" />
          </mxGeometry>
        </mxCell>
        <mxCell id="OBkcXNZdzhIq3iiDm8Ts-92" value="return scraped metrics" style="text;html=1;strokeColor=none;fillColor=none;align=center;verticalAlign=middle;whiteSpace=wrap;rounded=0;fontSize=17;fontFamily=Manrope;fontSource=https%3A%2F%2Ffonts.googleapis.com%2Fcss%3Ffamily%3DManrope;" parent="1" vertex="1">
          <mxGeometry x="650" y="-540" width="130" height="40" as="geometry" />
        </mxCell>
        <mxCell id="zxhEp3c9NetxkomeqzlE-1" value="" style="shape=cylinder3;whiteSpace=wrap;html=1;boundedLbl=1;backgroundOutline=1;size=15;fontSize=20;fillColor=#f8cecc;strokeColor=#b85450;verticalAlign=middle;fontFamily=Manrope;fontSource=https%3A%2F%2Ffonts.googleapis.com%2Fcss%3Ffamily%3DManrope;fontStyle=1" vertex="1" parent="1">
          <mxGeometry x="231.56" y="-360" width="38.13" height="40" as="geometry" />
        </mxCell>
        <mxCell id="zxhEp3c9NetxkomeqzlE-2" value="" style="edgeStyle=orthogonalEdgeStyle;rounded=0;orthogonalLoop=1;jettySize=auto;html=1;fontSize=17;exitX=0;exitY=0;exitDx=0;exitDy=30;exitPerimeter=0;endArrow=classic;entryX=0.5;entryY=0;entryDx=0;entryDy=0;entryPerimeter=0;startArrow=none;startFill=0;endFill=1;fontFamily=Manrope;fontSource=https%3A%2F%2Ffonts.googleapis.com%2Fcss%3Ffamily%3DManrope;" edge="1" parent="1" source="OBkcXNZdzhIq3iiDm8Ts-56" target="zxhEp3c9NetxkomeqzlE-1">
          <mxGeometry relative="1" as="geometry">
            <mxPoint x="371.8699999999999" y="-470" as="sourcePoint" />
            <mxPoint x="260" y="-450" as="targetPoint" />
          </mxGeometry>
        </mxCell>
        <mxCell id="zxhEp3c9NetxkomeqzlE-3" value="" style="shape=cylinder3;whiteSpace=wrap;html=1;boundedLbl=1;backgroundOutline=1;size=15;fontSize=20;fillColor=#f8cecc;strokeColor=#b85450;verticalAlign=middle;fontFamily=Manrope;fontSource=https%3A%2F%2Ffonts.googleapis.com%2Fcss%3Ffamily%3DManrope;fontStyle=1" vertex="1" parent="1">
          <mxGeometry x="586.5699999999999" y="-360" width="38.13" height="40" as="geometry" />
        </mxCell>
        <mxCell id="zxhEp3c9NetxkomeqzlE-4" value="" style="edgeStyle=orthogonalEdgeStyle;rounded=0;orthogonalLoop=1;jettySize=auto;html=1;exitX=1;exitY=0;exitDx=0;exitDy=30;exitPerimeter=0;fontSize=23;strokeWidth=1;endArrow=classic;endFill=1;fontFamily=Manrope;fontSource=https%3A%2F%2Ffonts.googleapis.com%2Fcss%3Ffamily%3DManrope;" edge="1" parent="1" source="OBkcXNZdzhIq3iiDm8Ts-56" target="zxhEp3c9NetxkomeqzlE-3">
          <mxGeometry relative="1" as="geometry">
            <mxPoint x="467.1200000000001" y="-470" as="sourcePoint" />
            <mxPoint x="605.5714285714287" y="-330" as="targetPoint" />
          </mxGeometry>
        </mxCell>
      </root>
    </mxGraphModel>
  </diagram>
</mxfile>
